<?xml version="1.0" standalone="no"?>
<!DOCTYPE svg PUBLIC "-//W3C//DTD SVG 1.1//EN" "http://www.w3.org/Graphics/SVG/1.1/DTD/svg11.dtd" >
<svg>
<metadata>
Created by FontForge 20090914 at Thu Mar 26 15:47:55 2020
 By www-data
Copyright 2018 The Srisakdi Project Authors (https://github.com/cadsondemak/Srisakdi)
</metadata>
<defs>
<font id="Srisakdi-Bold" horiz-adv-x="0" >
  <font-face 
    font-family="Srisakdi"
    font-weight="700"
    font-stretch="normal"
    units-per-em="1000"
    panose-1="0 0 8 0 0 0 0 0 0 0"
    ascent="800"
    descent="-200"
    x-height="475.996"
    cap-height="706"
    bbox="-537.998 -664 1361 1484"
    underline-thickness="50"
    underline-position="-50"
    unicode-range="U+000D-U+FB02"
  />
<missing-glyph horiz-adv-x="624" 
d="M79 867h465v-867h-465v867zM502 44v780h-381v-780h381z" />
    <glyph glyph-name="fi" unicode="fi" horiz-adv-x="701" 
d="M434.5 600c13 15.333 19.499 32.3301 19.499 50.9971c0 14.667 -4 25.834 -12 33.501s-19.333 11.5 -34 11.5c-19.333 0 -36.333 -6.66699 -51 -20s-24.667 -31.666 -30 -54.999l-37 -151h165l-16 -64h-165l-127 -508l-4 -16c41.333 -17.333 81.333 -42 120 -74
c-11.333 6.66699 -28.833 13.334 -52.5 20.001s-50.167 12.334 -79.5 17.001c-22.667 -66.667 -53.5 -117 -92.5 -151s-85.833 -51 -140.5 -51c-67.333 0 -118.333 25.333 -153 76c-7.33301 18 -11 36.333 -11 55c0 28 10.5 53 31.5 75s49.167 39.333 84.5 52
s74.333 19 117 19c34 0 67.333 -4 100 -12l125 498h-114l16 64h114l37 151c10.667 42.667 31.334 76.5 62.001 101.5s67.667 37.5 111 37.5c36 0 65.167 -8.83301 87.5 -26.5s33.5 -40.834 33.5 -69.501c0 -33.333 -15 -57.833 -45 -73.5s-67.667 -23.5 -113 -23.5
c22.667 6.66699 40.5 17.667 53.5 33zM-15.001 -254.003c28 24.667 50.332 60.333 66.999 107c-8.66699 0.666992 -21.667 1 -39 1c-64 0 -112.833 -8.66699 -146.5 -26s-50.5 -40.333 -50.5 -69c0 -6 0.5 -11.667 1.5 -17s2.16699 -9.33301 3.5 -12
c12.667 -14 34.334 -21 65.001 -21c38 0 71 12.333 99 37zM615.498 595.496c-8.33301 7.66699 -12.5 17.5 -12.5 29.5c0 17.333 7.33301 32.5 22 45.5s30.667 19.5 48 19.5c12.667 0 23.167 -3.83301 31.5 -11.5s12.5 -17.5 12.5 -29.5c0 -17.333 -7.33301 -32.5 -22 -45.5
s-30.667 -19.5 -48 -19.5c-12.667 0 -23.167 3.83301 -31.5 11.5zM484.998 5.99609c-8.66699 8 -13 18.999 -13 32.999c0 6 1 12.333 3 19l81 328c0.666992 2 1 4.66699 1 8c0 6 -1.83301 10.667 -5.5 14s-8.5 5 -14.5 5c-23.333 0 -53.666 -12.333 -90.999 -37
c27.333 30.667 54.666 55 81.999 73s51.666 27 72.999 27c14 0 25.333 -4 34 -12s13 -19 13 -33c0 -5.33301 -1 -11.666 -3 -18.999l-82 -328c-1.33301 -4 -2 -7.66699 -2 -11c0 -10.667 7.33301 -16 22 -16c23.333 0 53.666 12.333 90.999 37
c-27.333 -30.667 -54.666 -55 -81.999 -73s-51.666 -27 -72.999 -27c-14 0 -25.333 4 -34 12z" />
    <glyph glyph-name="fl" unicode="fl" horiz-adv-x="665" 
d="M527 84c-1.33301 -4 -2.00195 -7.67285 -2.00195 -11.0059c0 -10.667 7.33301 -16 22 -16c23.333 0 53.666 12.333 90.999 37c-27.333 -30.667 -54.666 -55 -81.999 -73s-51.666 -27 -72.999 -27c-14 0 -25.333 4 -34 12s-13 19 -13 33c0 6 1 12.333 3 19l152 608
c1.33301 4 2 7.66699 2 11c0 10.667 -7.33301 16 -22 16c-8.66699 0 -20 -2.33301 -34 -7c1.33301 -9.33301 2 -16.666 2 -21.999c0 -33.333 -15 -57.833 -45 -73.5s-67.667 -23.5 -113 -23.5c22.667 6.66699 40.5 17.667 53.5 33s19.5 32.333 19.5 51
c0 14.667 -4 25.834 -12 33.501s-19.333 11.5 -34 11.5c-19.333 0 -36.333 -6.66699 -51 -20s-24.667 -31.666 -30 -54.999l-37 -151h165l-16 -64h-165l-127 -508l-4 -16c41.333 -17.333 81.333 -42 120 -74c-11.333 6.66699 -28.833 13.334 -52.5 20.001
s-50.167 12.334 -79.5 17.001c-22.667 -66.667 -53.5 -117 -92.5 -151s-85.833 -51 -140.5 -51c-67.333 0 -118.333 25.333 -153 76c-7.33301 18 -11 36.333 -11 55c0 28 10.5 53 31.5 75s49.167 39.333 84.5 52s74.333 19 117 19c34 0 67.333 -4 100 -12l125 498h-114
l16 64h114l37 151c10.667 42.667 31.334 76.5 62.001 101.5s67.667 37.5 111 37.5c26 0 48.833 -4.83301 68.5 -14.5s34.167 -23.167 43.5 -40.5c40.667 34 75.667 51 105 51c14 0 25.333 -4 34 -12s13 -19 13 -33c0 -5.33301 -1 -11.666 -3 -18.999zM-15.002 -254.006
c28 24.667 50.332 60.333 66.999 107c-8.66699 0.666992 -21.667 1 -39 1c-64 0 -112.833 -8.66699 -146.5 -26s-50.5 -40.333 -50.5 -69c0 -6 0.5 -11.667 1.5 -17s2.16699 -9.33301 3.5 -12c12.667 -14 34.334 -21 65.001 -21c38 0 71 12.333 99 37z" />
    <glyph glyph-name="uni0E240E45" unicode="&#xe24;&#xe45;" horiz-adv-x="805" 
d="M696.5 458.5c31 -30.333 61.8359 -66.834 92.5029 -109.501c-13.333 -3.33301 -22.333 -7 -27 -11s-8.33398 -11 -11.001 -21l-154 -619c-8.66699 -36.667 -23.667 -68.167 -45 -94.5s-45.333 -43.5 -72 -51.5l189 765c5.33301 20 14 32 26 36
c-20 28 -36.333 48.833 -49 62.5s-24.667 20.5 -36 20.5c-13.333 0 -28.833 -7 -46.5 -21s-41.5 -36.667 -71.5 -68c-10 -12.667 -17 -26 -21 -40l-152 -609c-8.66699 -36.667 -23.667 -68.167 -45 -94.5s-45.333 -43.5 -72 -51.5l188 755c4 17.333 13.333 29.333 28 36
c-33.333 31.333 -61.833 54.666 -85.5 69.999s-48.5 23 -74.5 23c-35.333 0 -69 -13.667 -101 -41c22.667 -6 44.5 -15.833 65.5 -29.5s37.833 -29.167 50.5 -46.5c-30 -11.333 -53 -26.166 -69 -44.499s-28 -43.5 -36 -75.5l-14 -57h6c20 0 34.833 -4.66699 44.5 -14
s14.5 -22 14.5 -38c0 -25.333 -10.833 -47.666 -32.5 -66.999s-45.834 -29 -72.501 -29c-40.667 0 -61 18.667 -61 56c0 8.66699 1.66699 20.334 5 35.001l30 121c7.33301 29.333 18.333 53.666 33 72.999s33.667 35 57 47c-16 12 -35.5 22 -58.5 30s-46.167 13 -69.5 15
c28 42.667 60.167 75.5 96.5 98.5s74.166 34.5 113.499 34.5c57.333 0 121.333 -34.667 192 -104c71.333 69.333 127 104 167 104c20.667 0 46.5 -15.167 77.5 -45.5zM158.503 90.999c-3 3.33301 -7.5 5 -13.5 5c-8.66699 0 -16.334 -3.5 -23.001 -10.5
s-10 -15.167 -10 -24.5c0 -6 1.5 -10.667 4.5 -14s7.5 -5 13.5 -5c8.66699 0 16.334 3.5 23.001 10.5s10 15.167 10 24.5c0 6 -1.5 10.667 -4.5 14z" />
    <glyph glyph-name="uni0E260E45" unicode="&#xe26;&#xe45;" horiz-adv-x="815" 
d="M706.5 458.5c31 -30.333 61.8359 -66.8311 92.5029 -109.498c-13.333 -3.33301 -22.333 -7 -27 -11s-8.33398 -11 -11.001 -21l-154 -619c-8.66699 -36.667 -23.667 -68.167 -45 -94.5s-45.333 -43.5 -72 -51.5l189 765c5.33301 20 14 32 26 36
c-20 28 -36.333 48.833 -49 62.5s-24.667 20.5 -36 20.5c-13.333 0 -28.833 -7 -46.5 -21s-41.5 -36.667 -71.5 -68c-10 -12.667 -17 -26 -21 -40l-152 -609c-8.66699 -36.667 -23.667 -68.167 -45 -94.5s-45.333 -43.5 -72 -51.5l188 755c4 17.333 13.333 29.333 28 36
c-33.333 31.333 -61.833 54.666 -85.5 69.999s-48.5 23 -74.5 23c-35.333 0 -69 -13.667 -101 -41c22.667 -6 44.5 -15.833 65.5 -29.5s37.833 -29.167 50.5 -46.5c-29.333 -11.333 -52.166 -26.333 -68.499 -45s-28.5 -43.667 -36.5 -75l-31 -127
c-6 -24.667 -19.333 -43.834 -40 -57.501s-41.334 -20.5 -62.001 -20.5s-36.167 4.5 -46.5 13.5s-15.5 21.167 -15.5 36.5c0 26.667 10.167 49.334 30.5 68.001s43.166 28.667 68.499 30l16 64c7.33301 29.333 18.333 53.666 33 72.999s33.667 35 57 47
c-16 12 -35.5 22 -58.5 30s-46.167 13 -69.5 15c28 42.667 60.167 75.5 96.5 98.5s74.166 34.5 113.499 34.5c57.333 0 121.333 -34.667 192 -104c71.333 69.333 127 104 167 104c20.667 0 46.5 -15.167 77.5 -45.5zM82.0029 52.502c6.66699 7 10 15.167 10 24.5
c0 6 -1.5 10.667 -4.5 14s-7.5 5 -13.5 5c-8.66699 0 -16.334 -3.5 -23.001 -10.5s-10 -15.167 -10 -24.5c0 -6 1.5 -10.667 4.5 -14s7.5 -5 13.5 -5c8.66699 0 16.334 3.5 23.001 10.5z" />
    <glyph glyph-name=".notdef" horiz-adv-x="624" 
d="M79 867h465v-867h-465v867zM502 44v780h-381v-780h381z" />
    <glyph glyph-name="NULL" 
 />
    <glyph glyph-name="NULL" 
 />
    <glyph glyph-name="nonmarkingreturn" unicode="&#xd;" horiz-adv-x="258" 
 />
    <glyph glyph-name="space" unicode=" " horiz-adv-x="258" 
 />
    <glyph glyph-name="exclam" unicode="!" horiz-adv-x="270" 
d="M184 603c7.33301 35.333 21.168 62.999 41.501 82.999s45.5 31.333 75.5 34l-135 -471c-10.667 -37.333 -34.334 -60.666 -71.001 -69.999zM39.002 4.99902c-9.33301 8.66699 -14 19.667 -14 33c0 20.667 8.16699 38.834 24.5 54.501s34.833 23.5 55.5 23.5
c14.667 0 26.667 -4.33301 36 -13s14 -19.667 14 -33c0 -20.667 -8.16699 -38.834 -24.5 -54.501s-34.833 -23.5 -55.5 -23.5c-14.667 0 -26.667 4.33301 -36 13z" />
    <glyph glyph-name="quotedbl" unicode="&#x22;" horiz-adv-x="350" 
d="M165 656c3.33301 20.667 13.5 36.5 30.5 47.5s39.5 16.5 67.5 16.5l-66 -195c-10.667 -29.333 -31 -45 -61 -47zM313 656c3.33301 20.667 13.5 36.5 30.5 47.5s39.5 16.5 67.5 16.5l-66 -195c-10.667 -29.333 -31 -45 -61 -47z" />
    <glyph glyph-name="numbersign" unicode="#" horiz-adv-x="587" 
d="M494 463l-70 -172h107l-17 -68h-118l-90 -223h-80l90 223h-107l-90 -223h-80l90 223h-96l17 68h107l70 172h-103l17 68h113l69 169h80l-69 -169h107l69 169h80l-69 -169h104l-17 -68h-114zM414 463h-107l-70 -172h107z" />
    <glyph glyph-name="dollar" unicode="$" horiz-adv-x="667" 
d="M567.5 571c-13.667 4 -31.1689 10.001 -52.502 18.001c-11.333 4.66699 -25.666 10 -42.999 16l-33 -131c24 7.33301 49.333 11 76 11c52.667 0 93.834 -13 123.501 -39s44.5 -62.333 44.5 -109c0 -68 -20.333 -128.333 -61 -181s-95 -93.334 -163 -122.001
c15.333 -26 28.333 -51.667 39 -77c-16.667 26.667 -34.667 50.334 -54 71.001c-38.667 -15.333 -80 -26 -124 -32l-19 -76h-60l18 70h-23c-56 0 -106.833 6.16699 -152.5 18.5s-77.5 28.166 -95.5 47.499c-6 13.333 -9 27 -9 41c0 22 7.66699 43 23 63s37.166 36 65.499 48
s60.833 18 97.5 18c52 0 99.667 -12.333 143 -37l23 92c-16.667 -3.33301 -32.334 -5 -47.001 -5c-44 0 -78 12.333 -102 37s-36 58.334 -36 101.001c0 49.333 11.833 94.5 35.5 135.5s56.167 73.333 97.5 97s87.333 35.5 138 35.5h14l22 87h60l-24 -96
c10.667 -2.66699 29 -8.33398 55 -17.001c20.667 -7.33301 38.834 -13 54.501 -17s32.834 -6 51.501 -6c40 0 82.333 10.667 127 32c-22 -32 -47.5 -56.667 -76.5 -74s-58.5 -26 -88.5 -26c-16 0 -30.833 2 -44.5 6zM413.998 614.001l-3.00098 -0.00195312
c-33.333 0 -63.333 -8.16699 -90 -24.5s-47.667 -38.166 -63 -65.499s-23 -56.666 -23 -87.999c0 -29.333 9.33301 -52.333 28 -69s45.334 -25 80.001 -25h3l15 58c-16 -6.66699 -33 -16 -51 -28c19.333 28 39.333 50 60 66zM424.997 417.999l-15.999 -66.001
c13.333 4.66699 28.333 11.334 45 20.001c-16.667 -25.333 -35 -45 -55 -59l-40 -159c22 -18.667 40.667 -38 56 -58c54.667 22 98 51.667 130 89s48 80.333 48 129c0 33.333 -11.667 59.333 -35 78s-56 28 -98 28c-8.66699 0 -20.334 -0.666992 -35.001 -2zM275.998 60.998
l17.999 71c-44 17.333 -89 26 -135 26c-32.667 0 -57.167 -4.66699 -73.5 -14s-24.5 -25 -24.5 -47c0 -6.66699 1 -12.667 3 -18c20.667 -15.333 66.334 -23 137.001 -23c22 0 47 1.66699 75 5zM338.997 71.998c16 3.33301 30.333 7.33398 43 12.001
c-7.33301 5.33301 -19 12.666 -35 21.999z" />
    <glyph glyph-name="percent" unicode="%" horiz-adv-x="993" 
d="M155.5 314c-22.333 14.667 -39.168 32 -50.501 52c-3.33301 13.333 -5 29.666 -5 48.999c0 42 10.5 78.667 31.5 110s51.833 61.333 92.5 90c-48 -73.333 -72 -144.666 -72 -213.999c0 -16 0.666992 -28 2 -36c19.333 -20 43 -30 71 -30c34 0 63 12.833 87 38.5
s42.167 58.834 54.5 99.501s18.5 83.334 18.5 128.001l-1 38c-5.33301 8.66699 -12.666 15.5 -21.999 20.5s-19 7.5 -29 7.5c-18 0 -31.167 -7.83301 -39.5 -23.5s-12.5 -35.167 -12.5 -58.5c0 -20.667 2.66699 -38 8 -52c-34 32.667 -51 64 -51 94
c0 22.667 9.16699 42.167 27.5 58.5s39.5 24.5 63.5 24.5c22.667 0 43.5 -7.33301 62.5 -22s33.5 -34 43.5 -58c2 -12.667 3 -26.334 3 -41.001c0 -48.667 -8.83301 -95.834 -26.5 -141.501s-42.334 -83 -74.001 -112s-67.5 -43.5 -107.5 -43.5
c-27.333 0 -52.166 7.33301 -74.499 22zM614.998 620c9.33301 19.333 23 36.832 41 52.499s39.667 28.167 65 37.5l-288 -631c-11.333 -25.333 -26 -45.666 -44 -60.999s-38.333 -25 -61 -29zM664.498 15.999c-22.333 14.667 -39.168 32 -50.501 52
c-3.33301 13.333 -5 29.666 -5 48.999c0 42 10.5 78.667 31.5 110s51.833 61.333 92.5 90c-48 -73.333 -72 -144.666 -72 -213.999c0 -16 0.666992 -28 2 -36c19.333 -20 43 -30 71 -30c34 0 63 12.833 87 38.5s42.167 58.834 54.5 99.501s18.5 83.334 18.5 128.001l-1 38
c-5.33301 8.66699 -12.666 15.5 -21.999 20.5s-19 7.5 -29 7.5c-18 0 -31.167 -7.83301 -39.5 -23.5s-12.5 -35.167 -12.5 -58.5c0 -20.667 2.66699 -38 8 -52c-34 32.667 -51 64 -51 94c0 22.667 9.16699 42.167 27.5 58.5s39.5 24.5 63.5 24.5
c22.667 0 43.5 -7.33301 62.5 -22s33.5 -34 43.5 -58c2 -12.667 3 -26.334 3 -41.001c0 -48.667 -8.83301 -95.834 -26.5 -141.501s-42.334 -83 -74.001 -112s-67.5 -43.5 -107.5 -43.5c-27.333 0 -52.166 7.33301 -74.499 22z" />
    <glyph glyph-name="ampersand" unicode="&#x26;" horiz-adv-x="740" 
d="M708 307.5c-24 -18.333 -49.333 -28.502 -76 -30.502c-27.333 -89.333 -70.5 -159.5 -129.5 -210.5s-127.5 -76.5 -205.5 -76.5c-53.333 0 -100.5 11.333 -141.5 34s-74.5 50.334 -100.5 83.001c-12.667 32 -19 61 -19 87c0 34.667 12.167 66.834 36.5 96.501
s57.5 50.834 99.5 63.501c-22.667 13.333 -40.167 32 -52.5 56s-18.5 51.667 -18.5 83c0 42 10.833 79.5 32.5 112.5s51 58.667 88 77s77.167 27.5 120.5 27.5c50.667 0 94.167 -11.167 130.5 -33.5s64.166 -48.833 83.499 -79.5c1.33301 -10.667 2 -20 2 -28
c0 -48 -15.833 -86.5 -47.5 -115.5s-74.167 -43.5 -127.5 -43.5c-40 0 -71.833 8 -95.5 24s-35.5 37.333 -35.5 64c0 26 11.833 47.833 35.5 65.5s57.834 30.167 102.501 37.5c-19.333 -8.66699 -34.166 -19.834 -44.499 -33.501s-15.5 -28.167 -15.5 -43.5
s5 -27.166 15 -35.499s23.667 -12.5 41 -12.5c26 0 46.5 9 61.5 27s22.5 42 22.5 72c0 9.33301 -1 18.333 -3 27c-26.667 25.333 -61.667 38 -105 38c-50.667 0 -91.5 -13.833 -122.5 -41.5s-46.5 -64.5 -46.5 -110.5c0 -33.333 7.66699 -61.333 23 -84
s37.333 -38.334 66 -47.001v-8c-48 -12.667 -85.667 -34.334 -113 -65.001s-41 -64 -41 -100c0 -26 5.33301 -53 16 -81c48 -26 97 -39 147 -39c60 0 112 20.333 156 61s76.667 96.667 98 168c-30 8.66699 -59 13 -87 13c-46.667 0 -91.334 -11.667 -134.001 -35
c24 33.333 49.333 58.5 76 75.5s56 25.5 88 25.5c20 0 48 -4.66699 84 -14c35.333 -10 64.333 -15 87 -15c44 0 85 15 123 45c-25.333 -35.333 -50 -62.166 -74 -80.499z" />
    <glyph glyph-name="quotesingle" unicode="'" horiz-adv-x="202" 
d="M165 656c3.33301 20.667 13.5 36.5 30.5 47.5s39.5 16.5 67.5 16.5l-66 -195c-10.667 -29.333 -31 -45 -61 -47z" />
    <glyph glyph-name="parenleft" unicode="(" horiz-adv-x="276" 
d="M66 -39.5c-22.667 47 -33.9971 97.833 -33.9971 152.5c0 60.667 7.66699 121.334 23 182.001c25.333 102 65.666 190.5 120.999 265.5s126.666 138.167 213.999 189.5c-58 -54.667 -108.5 -121.334 -151.5 -200.001s-75.833 -163.667 -98.5 -255
c-17.333 -70.667 -26 -137.667 -26 -201c0 -54 4.33301 -103 13 -147s21 -79.667 37 -107c-42.667 33.333 -75.334 73.5 -98.001 120.5z" />
    <glyph glyph-name="parenright" unicode=")" horiz-adv-x="276" 
d="M67.5 40c43 78.667 75.8301 163.667 98.4971 255c17.333 70.667 26 137.667 26 201c0 54 -4.33301 103 -13 147s-21 79.667 -37 107c42.667 -33.333 75.334 -73.5 98.001 -120.5s34 -97.833 34 -152.5c0 -60.667 -7.66699 -121.334 -23 -182.001
c-25.333 -102 -65.666 -190.5 -120.999 -265.5s-126.666 -138.167 -213.999 -189.5c58 54.667 108.5 121.334 151.5 200.001z" />
    <glyph glyph-name="asterisk" unicode="*" horiz-adv-x="416" 
d="M131 442l110 96l-117 32l37 65l109 -43l26 128h68l-38 -128l131 43l3 -65l-131 -32l62 -96l-65 -42l-49 106l-103 -106z" />
    <glyph glyph-name="plus" unicode="+" horiz-adv-x="521" 
d="M489 268h-186l-47 -186h-68l47 186h-186l16 68h187l46 186h68l-46 -186h185z" />
    <glyph glyph-name="comma" unicode="," horiz-adv-x="251" 
d="M130.5 102.5c9 -9 13.498 -22.168 13.498 -39.501c0 -40 -14.667 -76.833 -44 -110.5s-65.666 -56.167 -108.999 -67.5c40.667 28 66 63.667 76 107h-4c-15.333 0 -27.5 4.16699 -36.5 12.5s-13.5 19.5 -13.5 33.5c0 20.667 8.33301 38.834 25 54.501
s35.334 23.5 56.001 23.5c15.333 0 27.5 -4.5 36.5 -13.5z" />
    <glyph glyph-name="hyphen" unicode="-" horiz-adv-x="341" 
d="M75 333h240l-18 -70h-240z" />
    <glyph glyph-name="period" unicode="." horiz-adv-x="246" 
d="M27 5c-9.33301 8.66699 -14 19.667 -14 33c0 20.667 8.16699 38.834 24.5 54.501s34.833 23.5 55.5 23.5c14.667 0 26.667 -4.33301 36 -13s14 -19.667 14 -33c0 -20.667 -8.16699 -38.834 -24.5 -54.501s-34.833 -23.5 -55.5 -23.5c-14.667 0 -26.667 4.33301 -36 13z
" />
    <glyph glyph-name="slash" unicode="/" horiz-adv-x="414" 
d="M442 750h80l-532 -910h-80z" />
    <glyph glyph-name="zero" unicode="0" horiz-adv-x="636" 
d="M147 28c-38.667 25.333 -67.335 55.002 -86.002 89.002c-6.66699 26 -10 54 -10 84c0 73.333 18.167 137.166 54.5 191.499s89.833 105.5 160.5 153.5c-83.333 -124.667 -125 -247.667 -125 -369c0 -22.667 1.33301 -43 4 -61c32.667 -34.667 73.334 -52 122.001 -52
c58.667 0 108.834 22 150.501 66s73 101.167 94 171.5s31.5 143.833 31.5 220.5c0 16 -0.666992 38 -2 66c-9.33301 15.333 -22 27.166 -38 35.499s-32.667 12.5 -50 12.5c-31.333 0 -54.166 -13.667 -68.499 -41s-21.5 -61 -21.5 -101c0 -30.667 4.66699 -60 14 -88
c-58.667 56.667 -88 110.334 -88 161.001c0 26 7.33301 50 22 72s34 39.333 58 52s50 19 78 19c39.333 0 75.333 -12.667 108 -38s57.667 -58.333 75 -99c2.66699 -20.667 4 -44.334 4 -71.001c0 -83.333 -15.167 -164.5 -45.5 -243.5s-72.833 -143.5 -127.5 -193.5
s-116.334 -75 -185.001 -75c-47.333 0 -90.333 12.667 -129 38z" />
    <glyph glyph-name="one" unicode="1" horiz-adv-x="336" 
d="M119.5 34.5c5.66699 12.333 11.833 31.5 18.5 57.5l95 383c12 44.667 23.667 82.667 35 114l-4 2c-20.667 -24 -50 -45.667 -88 -65s-73.333 -33 -106 -41c32.667 16.667 70.5 46.667 113.5 90s81.5 87 115.5 131l75 -22l-148 -592c-7.33301 -29.333 -11 -51.333 -11 -66
c0 -10 1.33301 -18.667 4 -26h-120c8 10.667 14.833 22.167 20.5 34.5z" />
    <glyph glyph-name="two" unicode="2" horiz-adv-x="556" 
d="M220 89c23.333 -5.33301 37.002 -8.33398 41.002 -9.00098c17.333 -4 35 -7.66699 53 -11s34 -5 48 -5c24.667 0 49.834 4.83301 75.501 14.5s50.5 24.167 74.5 43.5c-19.333 -36 -44.333 -67 -75 -93s-65.334 -39 -104.001 -39c-12 0 -26.667 1.66699 -44 5
s-34.666 7 -51.999 11c-50.667 12 -89 18 -115 18c-41.333 0 -74.333 -11.333 -99 -34l-41 20c26.667 45.333 59.5 87.5 98.5 126.5s97.5 86.833 175.5 143.5c51.333 37.333 91.166 69.5 119.499 96.5s50 56.833 65 89.5s22.5 71 22.5 115l-1 24
c-18.667 20.667 -48.334 31 -89.001 31c-50 0 -89.667 -15.5 -119 -46.5s-44 -72.5 -44 -124.5c0 -26.667 3.66699 -53 11 -79c-58.667 41.333 -88 87 -88 137c0 33.333 10.5 64.5 31.5 93.5s48.667 51.833 83 68.5s70.166 25 107.499 25
c42.667 0 80.167 -10.167 112.5 -30.5s55.5 -45.166 69.5 -74.499c8.66699 -16.667 13 -35.334 13 -56.001c0 -54.667 -18 -105 -54 -151s-88 -94.667 -156 -146c-90 -67.333 -152.667 -118.666 -188 -153.999c22 -0.666992 44.667 -3.66699 68 -9z" />
    <glyph glyph-name="three" unicode="3" horiz-adv-x="543" 
d="M535 486c-25.333 -32 -60.667 -59.333 -106 -82c14.667 -9.33301 28 -22 40 -38s22.333 -33.333 31 -52c5.33301 -16 8 -32.333 8 -49c0 -72.667 -23.667 -132.667 -71 -180l24 -40c-6.66699 8 -17 19 -31 33c-30.667 -28 -68.667 -49.667 -114 -65s-96.333 -23 -153 -23
c-44 0 -80.833 5.83301 -110.5 17.5s-51.167 28.5 -64.5 50.5c-1.33301 8 -2 14.667 -2 20c0 47.333 19.333 85.166 58 113.499s90.334 42.5 155.001 42.5c65.333 0 125 -26 179 -78c30 44.667 45 99 45 163c-11.333 23.333 -33 35 -65 35c-26 0 -53 -8.33301 -81 -25
l-10 57c70 34 123.833 68.167 161.5 102.5s56.5 73.833 56.5 118.5l-1 17c-12.667 17.333 -33 26 -61 26c-80.667 0 -144 -49 -190 -147c2.66699 34.667 13.167 67.834 31.5 99.501s43.166 57.5 74.499 77.5s67.333 30 108 30c30.667 0 54.167 -7 70.5 -21
s31.5 -34.333 45.5 -61c6.66699 -14 10 -28.667 10 -44c0 -33.333 -12.667 -66 -38 -98zM275.999 76c30.667 12 56.999 29.332 78.999 51.999c-52 24 -108.667 36 -170 36c-34 0 -61.167 -7.5 -81.5 -22.5s-30.5 -34.833 -30.5 -59.5
c9.33301 -7.33301 22.833 -13.166 40.5 -17.499s37.834 -6.5 60.501 -6.5c37.333 0 71.333 6 102 18z" />
    <glyph glyph-name="four" unicode="4" horiz-adv-x="657" 
d="M595.5 255c15.667 3.33301 33.832 8.99902 54.499 16.999c-22 -32.667 -47 -57.167 -75 -73.5s-60.333 -24.5 -97 -24.5h-1l-29 -82c-5.33301 -15.333 -10 -29.5 -14 -42.5s-6 -23.5 -6 -31.5c0 -7.33301 1.33301 -13.333 4 -18h-123
c9.33301 8.66699 16.833 18.667 22.5 30s13.834 32 24.501 62l33 93l-98 23c-30 -35.333 -60.333 -61.166 -91 -77.499s-63 -24.5 -97 -24.5c-32 0 -56.833 6.66699 -74.5 20s-26.5 32 -26.5 56s8.5 45 25.5 63s39.833 32 68.5 42s59.334 15 92.001 15
c24 0 51.333 -2.66699 82 -8c49.333 80 109.666 215.333 180.999 406h92c-75.333 -190 -142 -330 -200 -420c20 -4.66699 44.667 -10 74 -16l73 206h92l-77 -218c16 -1.33301 27.667 -2 35 -2c21.333 0 39.833 1.66699 55.5 5zM217.998 222.999
c-21.333 3.33301 -39.001 5 -53.001 5c-22.667 0 -40.5 -3.16699 -53.5 -9.5s-19.5 -14.833 -19.5 -25.5c0 -6 2.83301 -10.667 8.5 -14s13.834 -5 24.501 -5c31.333 0 62.333 16.333 93 49z" />
    <glyph glyph-name="five" unicode="5" horiz-adv-x="560" 
d="M375 610c-32 -60 -56.334 -103.668 -73.001 -131.001c15.333 3.33301 29.666 5 42.999 5c34.667 0 65.834 -9.5 93.501 -28.5s51.167 -46.833 70.5 -83.5c6.66699 -16 10 -35.333 10 -58c0 -40.667 -8 -79.5 -24 -116.5s-38.333 -70.167 -67 -99.5
c13.333 -18.667 24.333 -36.334 33 -53.001c-13.333 16.667 -27.666 30.667 -42.999 42c-32.667 -30.667 -70.334 -54.5 -113.001 -71.5s-87 -25.5 -133 -25.5c-41.333 0 -76.666 5.83301 -105.999 17.5s-50.333 28.5 -63 50.5c-2 7.33301 -3 14 -3 20
c0 28.667 9.5 54.834 28.5 78.501s44 42.5 75 56.5s63.167 21 96.5 21c62.667 0 120.334 -24.333 173.001 -73c20 27.333 35.5 57.833 46.5 91.5s16.5 67.5 16.5 101.5c0 11.333 -0.333008 20 -1 26c-29.333 20 -62.333 30 -99 30c-20 0 -39.833 -3 -59.5 -9
s-37.5 -14.333 -53.5 -25l-61 34c25.333 37.333 53.166 82.333 83.499 135s57.5 104.334 81.5 155.001h32c12 -12 28.833 -21.667 50.5 -29s46.167 -11 73.5 -11s51.666 4 72.999 12s42 19.333 62 34c-37.333 -80 -91 -120 -161 -120c-33.333 0 -60.666 8 -81.999 24z
M272.499 77.499c27.667 13 52.833 30.833 75.5 53.5c-50 22 -104.333 33 -163 33c-30 0 -53.667 -6.83301 -71 -20.5s-26 -34.167 -26 -61.5c25.333 -16 57.333 -24 96 -24c31.333 0 60.833 6.5 88.5 19.5z" />
    <glyph glyph-name="six" unicode="6" horiz-adv-x="574" 
d="M140 21c-35.333 20.667 -62.001 44.334 -80.001 71.001c-5.33301 24.667 -8 49 -8 73c0 87.333 17.833 162.333 53.5 225s93.334 118.667 173.001 168s188.167 97 325.5 143c-115.333 -62.667 -206.5 -122 -273.5 -178s-115.5 -114 -145.5 -174s-45 -127.333 -45 -202
c0 -12.667 1.33301 -29.667 4 -51c36 -22.667 73.333 -34 112 -34c40.667 0 76.167 10.833 106.5 32.5s53.666 52.667 69.999 93s24.5 87.5 24.5 141.5c-8.66699 14 -18 24 -28 30s-22.333 9 -37 9c-29.333 0 -52.666 -10.167 -69.999 -30.5s-26 -47.5 -26 -81.5
c0 -25.333 4.66699 -49.333 14 -72c-30.667 14 -54 30.667 -70 50s-24 40.333 -24 63c0 43.333 14.833 77.666 44.5 102.999s69.834 38 120.501 38c67.333 0 117.333 -39.333 150 -118c5.33301 -16.667 8 -34.667 8 -54c0 -56 -11.333 -104.833 -34 -146.5
s-54.834 -73.667 -96.501 -96s-90.5 -33.5 -146.5 -33.5c-46 0 -86.667 10.333 -122 31z" />
    <glyph glyph-name="seven" unicode="7" horiz-adv-x="470" 
d="M547 623.5l-53 -62.5l-108 -131h87c-10 -22 -25.167 -38.833 -45.5 -50.5s-44.833 -17.5 -73.5 -17.5h-21c-38.667 -52 -73 -104.333 -103 -157s-60 -113.667 -90 -183c-1.33301 -5.33301 -2 -8.66602 -2 -9.99902c0 -4.66699 2 -8.66699 6 -12h-119
c10 7.33301 17.667 17 23 29c28 62.667 58 120.667 90 174s67.667 106.333 107 159h-122c10 22 24.333 38.833 43 50.5s40.667 17.5 66 17.5h65l94 113l26 31l-3 3c-17.333 -9.33301 -42.5 -16.833 -75.5 -22.5s-63.167 -8.5 -90.5 -8.5c-40 0 -70.5 7.16699 -91.5 21.5
s-31.5 34.5 -31.5 60.5c0 24 8 43.667 24 59s36.333 23 61 23c21.333 0 42 -6 62 -18s38.333 -29.333 55 -52c-30.667 10.667 -56 16 -76 16c-24 0 -36 -7 -36 -21c0 -6.66699 3.83301 -11.834 11.5 -15.501s20.5 -5.5 38.5 -5.5c53.333 0 106.5 7.5 159.5 22.5
s102.167 36.167 147.5 63.5h38z" />
    <glyph glyph-name="eight" unicode="8" horiz-adv-x="541" 
d="M517 474c-20.667 -34 -54.6689 -68.0068 -102.002 -102.007c20.667 -33.333 35.834 -62.666 45.501 -87.999s14.5 -50.333 14.5 -75c0 -44 -10.833 -82.5 -32.5 -115.5s-52.667 -58.5 -93 -76.5s-87.5 -27 -141.5 -27c-38 0 -70.667 4.83301 -98 14.5
s-48.666 21.834 -63.999 36.501c-14.667 29.333 -22 54.666 -22 75.999c0 31.333 8.33301 60.833 25 88.5s43.5 55.834 80.5 84.501s87.5 61 151.5 97c8.66699 4 16 8.33301 22 13c-11.333 26.667 -17 55.667 -17 87c0 29.333 5.66699 60.333 17 93
c6 -34 27.667 -80.333 65 -139c34 25.333 58.333 50.333 73 75s22 52.334 22 83.001c0 4.66699 -0.666992 10.334 -2 17.001c-6.66699 8 -17.334 14.333 -32.001 19s-31 7 -49 7c-40.667 0 -73 -14.167 -97 -42.5s-36 -66.5 -36 -114.5
c0 -33.333 7.66699 -60.666 23 -81.999c-34.667 7.33301 -61 20 -79 38s-27 40.333 -27 67c0 62 21 111.167 63 147.5s98.667 54.5 170 54.5c30.667 0 56.334 -5.16699 77.001 -15.5s40 -27.166 58 -50.499c10.667 -15.333 16 -33.666 16 -54.999
c0 -42.667 -10.333 -81 -31 -115zM375.998 260.993c-6.66699 19.333 -17 41.333 -31 66l-33 -19c-74 -40.667 -126 -75.5 -156 -104.5s-45 -59.167 -45 -90.5c0 -8.66699 1.66699 -18 5 -28c8 -8 22 -14.167 42 -18.5s42.667 -6.5 68 -6.5c49.333 0 88.333 12.833 117 38.5
s43 60.167 43 103.5c0 20 -3.33301 39.667 -10 59z" />
    <glyph glyph-name="nine" unicode="9" horiz-adv-x="577" 
d="M301.5 163.5c67 53.667 115.499 111.5 145.499 173.5s45 134 45 216c0 12.667 -1.33301 29.667 -4 51c-36 22.667 -73.333 34 -112 34c-40.667 0 -76.167 -10.833 -106.5 -32.5s-53.666 -52.667 -69.999 -93s-24.5 -87.5 -24.5 -141.5c8.66699 -14 20 -24 34 -30
s32 -9 54 -9c62.667 0 113.667 23.667 153 71c-10 -45.333 -29 -80.166 -57 -104.499s-62 -36.5 -102 -36.5c-71.333 0 -123.333 39.333 -156 118c-5.33301 16.667 -8 34.667 -8 54c0 56 11.333 104.833 34 146.5s54.834 73.667 96.501 96s90.5 33.5 146.5 33.5
c46 0 86.667 -10.333 122 -31s62 -44.334 80 -71.001c5.33301 -24.667 8 -49 8 -73c0 -94 -17.833 -173.5 -53.5 -238.5s-93.334 -121 -173.001 -168s-188.167 -90.167 -325.5 -129.5c115.333 56 206.5 110.833 273.5 164.5z" />
    <glyph glyph-name="colon" unicode=":" horiz-adv-x="246" 
d="M127 407c-9.33301 8.66699 -14 19.667 -14 33c0 20.667 8.16699 38.834 24.5 54.501s34.833 23.5 55.5 23.5c14.667 0 26.667 -4.33301 36 -13s14 -19.667 14 -33c0 -20.667 -8.16699 -38.834 -24.5 -54.501s-34.833 -23.5 -55.5 -23.5c-14.667 0 -26.667 4.33301 -36 13
zM29 13c-9.33301 8.66699 -14 19.667 -14 33c0 20.667 8.16699 38.834 24.5 54.501s34.833 23.5 55.5 23.5c14.667 0 26.667 -4.33301 36 -13s14 -19.667 14 -33c0 -20.667 -8.16699 -38.834 -24.5 -54.501s-34.833 -23.5 -55.5 -23.5c-14.667 -0 -26.667 4.33301 -36 13z
" />
    <glyph glyph-name="semicolon" unicode=";" horiz-adv-x="251" 
d="M130.5 102.5c9 -9 13.498 -22.168 13.498 -39.501c0 -40 -14.667 -76.833 -44 -110.5s-65.666 -56.167 -108.999 -67.5c40.667 28 66 63.667 76 107h-4c-15.333 0 -27.5 4.16699 -36.5 12.5s-13.5 19.5 -13.5 33.5c0 20.667 8.33301 38.834 25 54.501
s35.334 23.5 56.001 23.5c15.333 0 27.5 -4.5 36.5 -13.5zM126.998 406.999c-9.33301 8.66699 -14 19.667 -14 33c0 20.667 8.16699 38.834 24.5 54.501s34.833 23.5 55.5 23.5c14.667 0 26.667 -4.33301 36 -13s14 -19.667 14 -33
c0 -20.667 -8.16699 -38.834 -24.5 -54.501s-34.833 -23.5 -55.5 -23.5c-14.667 0 -26.667 4.33301 -36 13z" />
    <glyph glyph-name="less" unicode="&#x3c;" horiz-adv-x="520" 
d="M48 266l18 72l488 193l-18 -72l-414 -157l336 -157l-18 -72z" />
    <glyph glyph-name="equal" unicode="=" horiz-adv-x="520" 
d="M88 426h440l-17 -68h-440zM43 246h440l-17 -68h-440z" />
    <glyph glyph-name="greater" unicode="&#x3e;" horiz-adv-x="520" 
d="M18 145l414 157l-336 157l18 72l392 -193l-18 -72l-488 -193z" />
    <glyph glyph-name="question" unicode="?" horiz-adv-x="509" 
d="M229.5 265c25 43.333 63.1699 84.002 114.503 122.002c36.667 27.333 64.334 53.833 83.001 79.5s28 54.167 28 85.5c0 27.333 -9.66699 48.833 -29 64.5s-46.333 23.5 -81 23.5c-26.667 0 -51.834 -5 -75.501 -15s-42.5 -23.833 -56.5 -41.5s-21 -37.167 -21 -58.5
c0 -13.333 4.33301 -23.5 13 -30.5s20.667 -10.5 36 -10.5c19.333 0 34.833 5.83301 46.5 17.5s17.5 28.5 17.5 50.5c0 13.333 -2.33301 25.666 -7 36.999c27.333 -4.66699 48.166 -13 62.499 -25s21.5 -27 21.5 -45c0 -30 -14.5 -54.667 -43.5 -74s-65.833 -29 -110.5 -29
c-40 0 -71 8.16699 -93 24.5s-33 39.5 -33 69.5c0 38.667 12.167 73.167 36.5 103.5s56.666 54 96.999 71s83.166 25.5 128.499 25.5c57.333 0 101.833 -12.333 133.5 -37s47.5 -59.667 47.5 -105c0 -49.333 -13.5 -92 -40.5 -128s-66.167 -71 -117.5 -105
c-62 -40.667 -107.167 -75.834 -135.5 -105.501s-46.5 -60.5 -54.5 -92.5c-3.33301 42 7.5 84.667 32.5 128zM128.003 5.00195c-9.33301 8.66699 -14 19.667 -14 33c0 20.667 8.16699 38.834 24.5 54.501s34.833 23.5 55.5 23.5c14.667 0 26.667 -4.33301 36 -13
s14 -19.667 14 -33c0 -20.667 -8.16699 -38.834 -24.5 -54.501s-34.833 -23.5 -55.5 -23.5c-14.667 0 -26.667 4.33301 -36 13z" />
    <glyph glyph-name="at" unicode="@" horiz-adv-x="835" 
d="M451 164c0 10 2.66309 20.334 7.99609 31.001l18 37c-60.667 -67.333 -118 -101 -172 -101c-26 0 -47.333 8.33301 -64 25s-30 40.667 -40 72c0.666992 18 1.66699 33 3 45s4 25.333 8 40c15.333 56 38.833 105 70.5 147s69.5 74.333 113.5 97s91.667 34 143 34
c46.667 0 85.334 -9.16699 116.001 -27.5s51.667 -43.5 63 -75.5c-47.333 27.333 -99.333 41 -156 41c-69.333 0 -128.5 -21 -177.5 -63s-81.833 -99.667 -98.5 -173c-6.66699 -28 -10.667 -52.333 -12 -73c7.33301 -9.33301 14.5 -16.166 21.5 -20.499s16.5 -6.5 28.5 -6.5
c32 0 66.833 15 104.5 45s75.834 72.333 114.501 127l36 70c12.667 24.667 31 37 55 37c18 0 27 -5.66699 27 -17c0 -5.33301 -2 -12 -6 -20l-108 -216c-2.66699 -5.33301 -4 -10 -4 -14c0 -7.33301 5.66699 -11 17 -11c71.333 0 124.833 19.667 160.5 59
s53.5 96.666 53.5 171.999c0 47.333 -10.833 88.666 -32.5 123.999s-52.334 62.5 -92.001 81.5s-86.167 28.5 -139.5 28.5c-74 0 -140.333 -15.833 -199 -47.5s-104.667 -75.667 -138 -132s-50 -119.833 -50 -190.5c0 -50 10.333 -93.833 31 -131.5
s49.834 -66.667 87.501 -87s81.834 -30.5 132.501 -30.5c38.667 0 77 4.33301 115 13s71 21 99 37c-48 -66.667 -125.333 -100 -232 -100c-59.333 0 -111 12.167 -155 36.5s-78 59 -102 104s-36 97.833 -36 158.5c0 80 19.5 152 58.5 216s93.167 114 162.5 150
s147.333 54 234 54c64 0 119.833 -11.5 167.5 -34.5s84.334 -56 110.001 -99s38.5 -93.167 38.5 -150.5c0 -96.667 -28.833 -169.167 -86.5 -217.5s-145.167 -72.5 -262.5 -72.5c-22.667 0 -34 9.66699 -34 29z" />
    <glyph glyph-name="A" unicode="A" horiz-adv-x="760" 
d="M752 671.5c46.667 -25.667 69.998 -61.1641 69.998 -106.497c0 -26.667 -7.66699 -52.167 -23 -76.5s-35.666 -44.666 -60.999 -60.999s-52 -26.5 -80 -30.5c20.667 19.333 37.167 39.666 49.5 60.999s18.5 42.333 18.5 63c0 36 -17.333 64.5 -52 85.5
s-80.667 31.5 -138 31.5c-128 0 -224 -45.333 -288 -136s-98.333 -213.334 -103 -368.001c31.333 -46.667 74.333 -70 129 -70c70.667 0 142.667 36 216 108l39 156c8.66699 34.667 17.334 62.667 26.001 84l-3 2c-20 -23.333 -46.667 -43.333 -80 -60s-67 -25 -101 -25
c-31.333 0 -55.833 7.33301 -73.5 22s-26.5 34.334 -26.5 59.001c0 20 4.66699 39.167 14 57.5s22.333 33.166 39 44.499s34.667 17 54 17c17.333 0 30.666 -4.66699 39.999 -14s14 -21.333 14 -36c0 -6 -0.333008 -10.667 -1 -14c-7.33301 13.333 -17.666 20 -30.999 20
s-24.333 -4.66699 -33 -14s-13 -21 -13 -35c0 -11.333 4.5 -20.333 13.5 -27s21.833 -10 38.5 -10c65.333 0 144.333 54.667 237 164h32l-117 -471c-8.66699 -36 -13 -62 -13 -78c0 -5.33301 0.666992 -10 2 -14h-112c7.33301 9.33301 13.333 20 18 32s10.334 32 17.001 60
l1 4h-3c-72 -70.667 -144 -106 -216 -106c-40 0 -76.833 10.167 -110.5 30.5s-58.5 49.166 -74.5 86.499c-4 23.333 -6 48.666 -6 75.999c0 102 20.667 192.833 62 272.5s100.166 142 176.499 187s164.833 67.5 265.5 67.5c78 0 140.333 -12.833 187 -38.5z" />
    <glyph glyph-name="B" unicode="B" horiz-adv-x="745" 
d="M708 364c6.66699 -11.333 10.001 -30.0039 10.001 -56.0039c0 -51.333 -10.667 -101.5 -32 -150.5s-51.166 -89 -89.499 -120s-81.166 -46.5 -128.499 -46.5c-35.333 0 -63.833 9.33301 -85.5 28s-36.834 44.667 -45.501 78
c9.33301 -9.33301 25.166 -17.666 47.499 -24.999s45.166 -11 68.499 -11c36 0 67.333 11.333 94 34s47.167 52 61.5 88s21.5 73.667 21.5 113c0 14.667 -1.33301 26.334 -4 35.001c-44 -35.333 -90.667 -53 -140 -53c-26.667 0 -47.5 5.66699 -62.5 17s-22.5 27 -22.5 47
c0 32 12.167 58.667 36.5 80s53.833 32 88.5 32c30.667 0 62.667 -8.33301 96 -25c11.333 22.667 20.333 46.334 27 71.001s10 47.334 10 68.001c0 14.667 -3 27 -9 37c-34 24.667 -76.333 37 -127 37c-63.333 0 -117 -18 -161 -54s-75.333 -86.333 -94 -151
c40 28 82.667 69 128 123h32l-116 -468c-8.66699 -36 -13 -62 -13 -78c0 -5.33301 0.666992 -10 2 -14h-112c7.33301 9.33301 13.333 20 18 32s10.334 32 17.001 60l58 233c7.33301 30.667 16.333 58.667 27 84l-4 2c-15.333 -18 -32.333 -32.667 -51 -44
c-1.33301 -25.333 -1.66602 -45.666 -0.999023 -60.999c-9.33301 14 -17.666 29.333 -24.999 46c-34.667 -17.333 -70 -26 -106 -26c-31.333 0 -55.833 7.33301 -73.5 22s-26.5 34.334 -26.5 59.001c0 19.333 4.83301 38.166 14.5 56.499s22.667 33.333 39 45
s34.166 17.5 53.499 17.5c17.333 0 30.666 -4.66699 39.999 -14s14 -21.333 14 -36c0 -6 -0.333008 -10.667 -1 -14c-7.33301 13.333 -17.666 20 -30.999 20c-12.667 0 -23.5 -4.5 -32.5 -13.5s-13.5 -21.167 -13.5 -36.5c0 -11.333 4.5 -20.166 13.5 -26.499
s21.833 -9.5 38.5 -9.5s35 3.66699 55 11c-2 12 -3 24.667 -3 38c0 53.333 14.333 100 43 140s67.667 70.833 117 92.5s103.666 32.5 162.999 32.5c45.333 0 83.666 -6.66699 114.999 -20s59 -35.666 83 -66.999c10.667 -18.667 16 -37.334 16 -56.001
c0 -30.667 -5.5 -61.334 -16.5 -92.001s-26.5 -59.334 -46.5 -86.001c8.66699 -8 17 -16.333 25 -25zM585.001 374.996c-22 14 -42 21 -60 21c-14.667 0 -26.667 -3.5 -36 -10.5s-14 -15.833 -14 -26.5c0 -7.33301 3.16699 -13 9.5 -17s14.833 -6 25.5 -6c26 0 51 13 75 39z
" />
    <glyph glyph-name="C" unicode="C" horiz-adv-x="766" 
d="M400 578c-41.333 -40 -74.666 -92.668 -99.999 -158.001c35.333 14.667 71.666 33.834 108.999 57.501s73 51.167 107 82.5h32l-81 -328c-8.66699 -36 -13 -62 -13 -78c0 -5.33301 0.666992 -10 2 -14h-110c7.33301 9.33301 13.333 20 18 32s10.334 32 17.001 60l25 103
c7.33301 30.667 16.333 58.667 27 84l-3 2c-46.667 -30.667 -97.667 -55.334 -153 -74.001c-13.333 -55.333 -20 -110 -20 -164c0 -10 0.666992 -23.667 2 -41c18 -24 44.667 -43.333 80 -58s76.666 -22 123.999 -22c48 0 93.167 8.33301 135.5 25s88.5 43 138.5 79
c-49.333 -54 -98.5 -96.833 -147.5 -128.5s-102.833 -47.5 -161.5 -47.5c-55.333 0 -105.333 14.333 -150 43s-77.667 67.667 -99 117c-4.66699 28 -7 52.667 -7 74c0 36 3.33301 69.667 10 101c-18.667 -1.33301 -31.667 -2 -39 -2c-36.667 0 -64.167 6.83301 -82.5 20.5
s-27.5 32.834 -27.5 57.501c0 20 4.83301 39.5 14.5 58.5s22.667 34.333 39 46s34.166 17.5 53.499 17.5c17.333 0 30.666 -4.66699 39.999 -14s14 -21.333 14 -36c0 -6 -0.333008 -10.667 -1 -14c-7.33301 13.333 -17.666 20 -30.999 20s-24.333 -5.16699 -33 -15.5
s-13 -21.5 -13 -33.5s5.33301 -21.167 16 -27.5s26.334 -9.5 47.001 -9.5c8.66699 0 15.334 0.333008 20.001 1c18.667 58 45.167 111 79.5 159s74.833 86.167 121.5 114.5s96.667 42.5 150 42.5c28 0 62.667 -5 104 -15c21.333 -4.66699 39.5 -8.16699 54.5 -10.5
s30.833 -3.5 47.5 -3.5c40 0 82.333 8.33301 127 25c-18 -32 -39 -56.167 -63 -72.5s-54 -24.5 -90 -24.5c-15.333 0 -31.833 1.5 -49.5 4.5s-34.5 6.5 -50.5 10.5c-14.667 3.33301 -29.834 6.5 -45.501 9.5s-29.834 4.5 -42.501 4.5c-53.333 0 -100.666 -20 -141.999 -60z
" />
    <glyph glyph-name="D" unicode="D" horiz-adv-x="837" 
d="M849 486c0 -82.667 -20.832 -162.337 -62.499 -239.004s-97.334 -138.667 -167.001 -186s-144.834 -71 -225.501 -71c-62 0 -111 13.333 -147 40s-62.667 65.334 -80 116.001c22.667 -24.667 55.334 -44.834 98.001 -60.501s85.334 -23.5 128.001 -23.5
c66.667 0 127.667 20.333 183 61s99 93.334 131 158.001s48 131.667 48 201c0 28 -3.33301 58.667 -10 92c-50.667 42.667 -115 64 -193 64c-50 0 -96.167 -9.16699 -138.5 -27.5s-76.5 -44.166 -102.5 -77.499s-40.333 -71.666 -43 -114.999
c58.667 24.667 125.334 72 200.001 142h32l-81 -326c-8.66699 -34.667 -13 -60.667 -13 -78c0 -5.33301 0.666992 -10 2 -14h-110c7.33301 8.66699 13.166 19 17.499 31s10.166 32.333 17.499 61l11 46c-50.667 8 -87.667 29 -111 63c-34 -11.333 -67 -17 -99 -17
c-36.667 0 -64.167 6.83301 -82.5 20.5s-27.5 32.834 -27.5 57.501c0 20 4.83301 39.5 14.5 58.5s22.667 34.333 39 46s34.166 17.5 53.499 17.5c17.333 0 30.666 -4.66699 39.999 -14s14 -21.333 14 -36c0 -6 -0.333008 -10.667 -1 -14
c-7.33301 13.333 -17.666 20 -30.999 20c-12.667 0 -23.5 -4.5 -32.5 -13.5s-13.5 -20.833 -13.5 -35.5c0 -12 5.16699 -21.167 15.5 -27.5s25.833 -9.5 46.5 -9.5c14.667 0 28.334 1.33301 41.001 4c-2 10 -3 20.333 -3 31c0 53.333 16 101.333 48 144
s74.333 75.834 127 99.501s109 35.5 169 35.5c66 0 124.333 -12.833 175 -38.5s88 -60.834 112 -105.501c7.33301 -27.333 11 -54 11 -80zM382.001 420.997c-38 -25.333 -73.333 -45.667 -106 -61c10.667 -30 33.667 -55.667 69 -77l13 52
c7.33301 30.667 16.333 58.667 27 84z" />
    <glyph glyph-name="E" unicode="E" horiz-adv-x="766" 
d="M400 578c-41.333 -40 -74.667 -92.6689 -100 -158.002c35.333 14.667 71.666 33.834 108.999 57.501s73 51.167 107 82.5h32l-49 -198h4c17.333 26.667 38.333 48.5 63 65.5s49 25.5 73 25.5c22.667 0 40.334 -7.66699 53.001 -23s19 -35.666 19 -60.999
c0 -9.33301 -0.333008 -16.333 -1 -21c-16.667 24.667 -40 37 -70 37c-31.333 0 -60.333 -11.667 -87 -35s-53.667 -56 -81 -98l-5 -20c-8.66699 -36 -13 -62 -13 -78c0 -5.33301 0.666992 -10 2 -14h-110c7.33301 9.33301 13.333 20 18 32s10.334 32 17.001 60l25 103
c7.33301 30.667 16.333 58.667 27 84l-3 2c-46.667 -30.667 -97.667 -55.334 -153 -74.001c-13.333 -55.333 -20 -110 -20 -164c0 -10 0.666992 -23.667 2 -41c18 -24 44.667 -43.333 80 -58s76.666 -22 123.999 -22c48 0 93.167 8.33301 135.5 25s88.5 43 138.5 79
c-49.333 -54 -98.5 -96.833 -147.5 -128.5s-102.833 -47.5 -161.5 -47.5c-55.333 0 -105.333 14.333 -150 43s-77.667 67.667 -99 117c-4.66699 28 -7 52.667 -7 74c0 36 3.33301 69.667 10 101c-18.667 -1.33301 -31.667 -2 -39 -2c-36.667 0 -64.167 6.83301 -82.5 20.5
s-27.5 32.834 -27.5 57.501c0 20 4.83301 39.5 14.5 58.5s22.667 34.333 39 46s34.166 17.5 53.499 17.5c17.333 0 30.666 -4.66699 39.999 -14s14 -21.333 14 -36c0 -6 -0.333008 -10.667 -1 -14c-7.33301 13.333 -17.666 20 -30.999 20s-24.333 -5.16699 -33 -15.5
s-13 -21.5 -13 -33.5s5.33301 -21.167 16 -27.5s26.334 -9.5 47.001 -9.5c8.66699 0 15.334 0.333008 20.001 1c18.667 58 45.167 111 79.5 159s74.833 86.167 121.5 114.5s96.667 42.5 150 42.5c28 0 62.667 -5 104 -15c21.333 -4.66699 39.5 -8.16699 54.5 -10.5
s30.833 -3.5 47.5 -3.5c40 0 82.333 8.33301 127 25c-18 -32 -39 -56.167 -63 -72.5s-54 -24.5 -90 -24.5c-15.333 0 -31.833 1.5 -49.5 4.5s-34.5 6.5 -50.5 10.5c-14.667 3.33301 -29.834 6.5 -45.501 9.5s-29.834 4.5 -42.501 4.5c-53.333 0 -100.666 -20 -141.999 -60z
" />
    <glyph glyph-name="F" unicode="F" horiz-adv-x="722" 
d="M839 706c-18 -32 -39.3291 -56.1729 -63.9961 -72.5059s-55 -24.5 -91 -24.5c-26 0 -58.333 5 -97 15c-14.667 3.33301 -30 6.5 -46 9.5s-31 4.5 -45 4.5c-38.667 0 -74.834 -10.167 -108.501 -30.5s-61.167 -47.333 -82.5 -81s-34 -69.5 -38 -107.5
c53.333 23.333 118.333 70.333 195 141h32l-54 -218h4c17.333 26.667 38.666 48.5 63.999 65.5s51 25.5 77 25.5c24 0 42.833 -7.66699 56.5 -23s20.5 -35.333 20.5 -60c0 -4 -0.666992 -11.333 -2 -22c-16 24.667 -40.667 37 -74 37s-63.666 -11.5 -90.999 -34.5
s-55 -55.833 -83 -98.5l-35 -140c-8.66699 -34.667 -13 -60.667 -13 -78c0 -5.33301 0.666992 -10 2 -14h-110c7.33301 8.66699 13.166 19 17.499 31s10.166 32.333 17.499 61l61 243c7.33301 30.667 16.333 58.667 27 84l-4 2c-38 -25.333 -73.333 -45.666 -106 -60.999
c3.33301 -17.333 10 -35.333 20 -54c-14.667 12 -28.334 26.667 -41.001 44c-39.333 -16 -77.333 -24 -114 -24s-64.167 6.83301 -82.5 20.5s-27.5 32.834 -27.5 57.501c0 20.667 4.66699 40.334 14 59.001s22.166 33.834 38.499 45.501s34.5 17.5 54.5 17.5
c17.333 0 30.666 -4.66699 39.999 -14s14 -21.333 14 -36c0 -6 -0.333008 -10.667 -1 -14c-7.33301 13.333 -17.666 20 -30.999 20c-12.667 0 -23.5 -4.66699 -32.5 -14s-13.5 -20.666 -13.5 -33.999c0 -25.333 20.667 -38 62 -38c18 0 35.333 2.33301 52 7
c-5.33301 19.333 -8 37.333 -8 54c0 46.667 13.833 89.334 41.5 128.001s64 69.167 109 91.5s92.5 33.5 142.5 33.5c28.667 0 63 -5 103 -15c21.333 -4.66699 39.5 -8.16699 54.5 -10.5s30.833 -3.5 47.5 -3.5c40.667 0 83.334 8.33301 128.001 25z" />
    <glyph glyph-name="G" unicode="G" horiz-adv-x="860" 
d="M408 579c-44 -39.333 -79.3281 -91.668 -105.995 -157.001c70 30 138.333 76 205 138h32l-39 -157h4c19.333 27.333 44 49.333 74 66s62.333 25 97 25c72 0 127 -37 165 -111c6.66699 -18.667 10 -37 10 -55c0 -63.333 -18.333 -120.833 -55 -172.5
s-85.5 -92.167 -146.5 -121.5s-126.167 -44 -195.5 -44c-136.667 0 -228 53.333 -274 160c-4.66699 28 -7 52.667 -7 74c0 36 3.33301 69.667 10 101c-17.333 -1.33301 -30.333 -2 -39 -2c-36.667 0 -64.167 6.83301 -82.5 20.5s-27.5 32.834 -27.5 57.501
c0 20 4.83301 39.5 14.5 58.5s22.667 34.333 39 46s34.166 17.5 53.499 17.5c17.333 0 30.666 -4.66699 39.999 -14s14 -21.333 14 -36c0 -6 -0.333008 -10.667 -1 -14c-7.33301 13.333 -17.666 20 -30.999 20s-24.333 -5.16699 -33 -15.5s-13 -21.5 -13 -33.5
s5.33301 -21.167 16 -27.5s26.334 -9.5 47.001 -9.5c9.33301 0 16.333 0.333008 21 1c19.333 58.667 47.166 112 83.499 160s79.166 86 128.499 114s101.666 42 156.999 42c29.333 0 64.666 -5 105.999 -15c41.333 -9.33301 75 -14 101 -14c40 0 82.333 8.33301 127 25
c-16.667 -30.667 -40.334 -54.5 -71.001 -71.5s-65 -25.5 -103 -25.5c-25.333 0 -54.333 5 -87 15c-18 4.66699 -32.667 8.16699 -44 10.5s-24 3.5 -38 3.5c-57.333 0 -108 -19.667 -152 -59zM278.005 348.998c-14 -54 -21 -109.334 -21 -166.001
c0 -10 0.666992 -23.667 2 -41c18 -24 44.667 -43.333 80 -58s76.666 -22 123.999 -22c56.667 0 107.667 11.833 153 35.5s80.833 56.334 106.5 98.001s38.5 88.5 38.5 140.5c0 16 -2.33301 34.333 -7 55c-27.333 23.333 -59.333 35 -96 35c-68 0 -129 -41 -183 -123
l-17 -71c-8.66699 -36 -13 -62 -13 -78c0 -5.33301 0.666992 -10 2 -14h-110c7.33301 9.33301 13.333 20 18 32s10.334 32 17.001 60l25 103c7.33301 30.667 16.333 58.667 27 84l-3 2c-50 -32 -97.667 -56 -143 -72z" />
    <glyph glyph-name="H" unicode="H" horiz-adv-x="821" 
d="M795 383c6 -16.667 9.00293 -34.6689 9.00293 -54.002c0 -51.333 -9.83301 -103.166 -29.5 -155.499s-49.667 -95.833 -90 -130.5s-89.5 -52 -147.5 -52c-31.333 0 -57.333 9.33301 -78 28s-35.334 44.667 -44.001 78c30 -24 63 -36 99 -36
c37.333 0 71.5 13.833 102.5 41.5s55.167 63 72.5 106s26 86.167 26 129.5c0 18.667 -2 36.334 -6 53.001c-27.333 23.333 -59.333 35 -96 35c-68 0 -129 -41 -183 -123l-52 -211c-8.66699 -36 -13 -62 -13 -78c0 -5.33301 0.666992 -10 2 -14h-110
c7.33301 9.33301 13.333 20 18 32s10.334 32 17.001 60l60 243c7.33301 30.667 16.333 58.667 27 84l-3 2c-40.667 -26.667 -76.334 -47.334 -107.001 -62.001c3.33301 -16.667 10 -34.334 20 -53.001c-16.667 13.333 -30.334 28 -41.001 44
c-39.333 -16 -77.333 -24 -114 -24s-64.167 6.83301 -82.5 20.5s-27.5 32.834 -27.5 57.501c0 20 4.83301 39.5 14.5 58.5s22.667 34.333 39 46s34.166 17.5 53.499 17.5c17.333 0 30.666 -4.66699 39.999 -14s14 -21.333 14 -36c0 -6 -0.333008 -10.667 -1 -14
c-7.33301 13.333 -17.666 20 -30.999 20c-12.667 0 -23.5 -4.5 -32.5 -13.5s-13.5 -20.833 -13.5 -35.5c0 -12 5.16699 -21.167 15.5 -27.5s25.833 -9.5 46.5 -9.5c18 0 35.333 2.33301 52 7c-5.33301 19.333 -8 37.333 -8 54c0 46.667 13.833 89.334 41.5 128.001
s64 69.167 109 91.5s92.5 33.5 142.5 33.5c28.667 0 63 -5 103 -15c21.333 -4.66699 39.5 -8.16699 54.5 -10.5s30.833 -3.5 47.5 -3.5c40.667 0 83.334 8.33301 128.001 25c-18 -32 -39.333 -56.167 -64 -72.5s-55 -24.5 -91 -24.5c-26 0 -58.333 5 -97 15
c-14.667 3.33301 -30 6.5 -46 9.5s-31 4.5 -45 4.5c-38.667 0 -74.834 -10.167 -108.501 -30.5s-61.167 -47.333 -82.5 -81s-34 -69.5 -38 -107.5c53.333 23.333 118.333 70.333 195 141h32l-39 -157h4c19.333 27.333 44 49.333 74 66s62.333 25 97 25
c72 0 127 -37 165 -111z" />
    <glyph glyph-name="I" unicode="I" horiz-adv-x="541" 
d="M561 116c-21.333 30.667 -52.001 56.667 -92.001 78c-25.333 -63.333 -65.166 -113.166 -119.499 -149.499s-117.166 -54.5 -188.499 -54.5c-42.667 0 -79.667 6.83301 -111 20.5s-52.666 32.167 -63.999 55.5c-2 7.33301 -3 15.333 -3 24
c0 45.333 11.333 85.166 34 119.499s54 60.666 94 78.999s85 27.5 135 27.5c59.333 0 113 -12.333 161 -37l50 202c7.33301 30.667 16.333 58.667 27 84l-3 2c-51.333 -33.333 -95.333 -57.5 -132 -72.5s-73.334 -22.5 -110.001 -22.5s-64.167 6.83301 -82.5 20.5
s-27.5 32.834 -27.5 57.501c0 20 4.83301 39.5 14.5 58.5s22.667 34.333 39 46s34.166 17.5 53.499 17.5c17.333 0 30.666 -4.66699 39.999 -14s14 -21.333 14 -36c0 -6 -0.333008 -10.667 -1 -14c-7.33301 13.333 -17.666 20 -30.999 20c-12.667 0 -23.5 -4.5 -32.5 -13.5
s-13.5 -20.833 -13.5 -35.5c0 -12 5.16699 -21.167 15.5 -27.5s25.833 -9.5 46.5 -9.5c41.333 0 85.5 13.5 132.5 40.5s100.5 68.167 160.5 123.5h32l-116 -467l-3 -11c34 -32 61 -69.333 81 -112zM311.499 105.5c39 29 66.168 68.833 81.501 119.5
c-43.333 12.667 -87 19 -131 19c-60.667 0 -107.334 -12.5 -140.001 -37.5s-49 -63.5 -49 -115.5c6 -8.66699 18.333 -15.667 37 -21s39.667 -8 63 -8c53.333 0 99.5 14.5 138.5 43.5z" />
    <glyph glyph-name="J" unicode="J" horiz-adv-x="541" 
d="M499 -134c-21.333 30.667 -52.002 56.667 -92.002 78c-25.333 -63.333 -65.166 -113.166 -119.499 -149.499s-117.166 -54.5 -188.499 -54.5c-42.667 0 -79.667 6.83301 -111 20.5s-52.666 32.167 -63.999 55.5c-2 6.66699 -3 14.667 -3 24
c0 45.333 11.333 85.166 34 119.499s54 60.666 94 78.999s85 27.5 135 27.5c59.333 0 113 -12.333 161 -37l112 452c10 36.667 19 64.667 27 84l-3 2c-51.333 -33.333 -95.333 -57.5 -132 -72.5s-73.334 -22.5 -110.001 -22.5s-64.167 6.83301 -82.5 20.5
s-27.5 32.834 -27.5 57.501c0 20 4.83301 39.5 14.5 58.5s22.667 34.333 39 46s34.166 17.5 53.499 17.5c17.333 0 30.666 -4.66699 39.999 -14s14 -21.333 14 -36c0 -6 -0.333008 -10.667 -1 -14c-7.33301 13.333 -17.666 20 -30.999 20c-12.667 0 -23.5 -4.5 -32.5 -13.5
s-13.5 -20.833 -13.5 -35.5c0 -12 5.33301 -21.167 16 -27.5s26.334 -9.5 47.001 -9.5c41.333 0 85.333 13.5 132 40.5s100 68.167 160 123.5h32l-178 -717l-3 -11c32.667 -30.667 59.667 -68 81 -112zM249.498 -144.5c39 29 66.167 68.833 81.5 119.5
c-43.333 12.667 -87 19 -131 19c-126 0 -189 -51 -189 -153c6 -8.66699 18.333 -15.667 37 -21s39.667 -8 63 -8c53.333 0 99.5 14.5 138.5 43.5z" />
    <glyph glyph-name="K" unicode="K" horiz-adv-x="764" 
d="M832 690.5c20 -13 29.9971 -31.498 29.9971 -55.498c0 -22 -5.5 -42.167 -16.5 -60.5s-26.167 -33 -45.5 -44s-40.333 -16.5 -63 -16.5c-27.333 0 -48.666 7 -63.999 21s-21.666 31.667 -18.999 53c7.33301 -4.66699 18.5 -8.5 33.5 -11.5s28.5 -4.5 40.5 -4.5
c18.667 0 33.167 4.5 43.5 13.5s15.5 20.167 15.5 33.5c0 10.667 -4.5 18.834 -13.5 24.501s-21.167 8.5 -36.5 8.5c-22.667 0 -45.834 -7.16699 -69.501 -21.5s-51 -39 -82 -74s-68.5 -83.833 -112.5 -146.5c34 -115.333 105.333 -292.333 214 -531
c-78.667 105.333 -140.167 190.666 -184.5 255.999s-78.833 121 -103.5 167l-86 -130l-20 -80c-8.66699 -36 -13 -62 -13 -78c0 -5.33301 0.666992 -10 2 -14h-112c7.33301 9.33301 13.333 20 18 32s10.334 32 17.001 60l93 373c8.66699 34.667 17.334 62.667 26.001 84
l-3 2c-48 -56.667 -102.333 -85 -163 -85c-32 0 -57 7.33301 -75 22s-27 34.667 -27 60c0 19.333 4.66699 38.166 14 56.499s22.333 33.166 39 44.499s34.667 17 54 17c17.333 0 30.666 -4.66699 39.999 -14s14 -21.333 14 -36c0 -6 -0.333008 -10.667 -1 -14
c-7.33301 13.333 -17.666 20 -30.999 20s-24.333 -4.66699 -33 -14s-13 -21 -13 -35c0 -11.333 4.33301 -20.333 13 -27s21.334 -10 38.001 -10c32 0 66.167 13.5 102.5 40.5s76.166 68.167 119.499 123.5h32l-78 -315c56.667 84 105 149 145 195s78.5 79.167 115.5 99.5
s77.167 30.5 120.5 30.5c36.667 0 65 -6.5 85 -19.5z" />
    <glyph glyph-name="L" unicode="L" horiz-adv-x="712" 
d="M358 355c-18 -72 -43 -136.664 -75 -193.997l46 -25c42.667 -24 78.834 -42 108.501 -54s60.834 -18 93.501 -18c50.667 0 100.667 15.667 150 47c-18.667 -42 -44 -72.667 -76 -92s-66 -29 -102 -29c-32 0 -63.667 6.66699 -95 20s-68 32.666 -110 57.999l-56 31
c-26.667 -35.333 -56.167 -62.333 -88.5 -81s-66.166 -28 -101.499 -28c-29.333 0 -51.833 6.5 -67.5 19.5s-23.5 30.5 -23.5 52.5c0 28 7.5 52.833 22.5 74.5s35.5 38.667 61.5 51s54.333 18.5 85 18.5c25.333 0 51.666 -4.33301 78.999 -13c24 48.667 43 102 57 160
l27 108l3 11c-32 31.333 -58.667 68.666 -80 111.999c22 -30.667 52.333 -57 91 -79c23.333 63.333 59.666 113.333 108.999 150s105.333 55 168 55c38.667 0 73.667 -6.83301 105 -20.5s54.666 -32.167 69.999 -55.5c2 -8 3 -17.333 3 -28
c0 -42.667 -11.167 -80.834 -33.5 -114.501s-52.5 -60 -90.5 -79s-80 -28.5 -126 -28.5c-48 0 -94 11 -138 33zM460 592.503c-34 -30.333 -58 -70.832 -72 -121.499c33.333 -10 67.333 -15 102 -15c58 0 102.167 12.667 132.5 38s46.833 63.666 49.5 114.999
c-28 19.333 -59.333 29 -94 29c-44.667 0 -84 -15.167 -118 -45.5zM172 129.004c-18.667 6 -37.668 9 -57.001 9c-24.667 0 -44 -5.16699 -58 -15.5s-21 -23.5 -21 -39.5c0 -8 2.83301 -14.167 8.5 -18.5s13.834 -6.5 24.501 -6.5c34 0 68.333 23.667 103 71z" />
    <glyph glyph-name="M" unicode="M" horiz-adv-x="1080" 
d="M976 516c-24 -49.333 -43.666 -103.671 -58.999 -163.004s-23 -110.666 -23 -153.999c0 -44.667 8.16699 -78.667 24.5 -102s39.833 -35 70.5 -35c34 0 66.333 13.333 97 40c-20.667 -36 -44.667 -63.667 -72 -83s-56.333 -29 -87 -29c-40.667 0 -72 16.5 -94 49.5
s-33 79.167 -33 138.5c0 56.667 8.16699 116.334 24.5 179.001s38.833 120 67.5 172c-38 9.33301 -89.667 26.333 -155 51c-54.667 20 -99 34.667 -133 44s-68.667 14 -104 14c-65.333 0 -117.333 -19.167 -156 -57.5s-59.334 -89.166 -62.001 -152.499
c44.667 24.667 101.334 68.667 170.001 132h32l-60 -243c37.333 4.66699 76.166 20 116.499 46s88.5 65 144.5 117h32l-96 -388c-8.66699 -36 -13 -62 -13 -78c0 -5.33301 0.666992 -10 2 -14h-112c7.33301 9.33301 13.333 20 18 32s10.334 32 17.001 60l40 163
c10 36.667 19 64.667 27 84l-3 2c-36 -28.667 -68.833 -50.5 -98.5 -65.5s-60.167 -24.167 -91.5 -27.5l-39 -156c-8.66699 -36 -13 -62 -13 -78c0 -5.33301 0.666992 -10 2 -14h-112c7.33301 9.33301 13.333 20 18 32s10.334 32 17.001 60l40 161
c-42 10 -77 33.333 -105 70c-1.33301 3.33301 -2.66602 8.33301 -3.99902 15c-25.333 -8 -51 -12 -77 -12c-36.667 0 -64.167 6.83301 -82.5 20.5s-27.5 32.834 -27.5 57.501c0 20 4.83301 39.5 14.5 58.5s22.667 34.333 39 46s34.166 17.5 53.499 17.5
c17.333 0 30.666 -4.66699 39.999 -14s14 -21.333 14 -36c0 -6 -0.333008 -10.667 -1 -14c-7.33301 13.333 -17.666 20 -30.999 20c-12.667 0 -23.5 -4.5 -32.5 -13.5s-13.5 -20.833 -13.5 -35.5c0 -12 5.16699 -21.167 15.5 -27.5s25.833 -9.5 46.5 -9.5
c11.333 0 22.333 1 33 3v7c0 56 13.833 107.167 41.5 153.5s65.667 83 114 110s101.5 40.5 159.5 40.5c41.333 0 81 -5.83301 119 -17.5s84.667 -29.167 140 -52.5c33.333 -14 61.166 -25.167 83.499 -33.5s45.166 -15.5 68.499 -21.5c28 39.333 59.167 70 93.5 92
s70.166 33 107.499 33c28.667 0 51.334 -6 68.001 -18s25 -28.667 25 -50c0 -40.667 -20.667 -72.167 -62 -94.5s-90.333 -33.5 -147 -33.5c-8.66699 0 -21 0.666992 -37 2zM1008 572.995c4.66699 -0.666992 11.334 -1 20.001 -1c35.333 0 64.166 5 86.499 15
s33.5 23.333 33.5 40c0 7.33301 -3 13.333 -9 18s-14.333 7 -25 7c-34.667 0 -70 -26.333 -106 -79zM364.001 420.995l-22.999 -15.002c-20.667 -13.333 -39.334 -24.666 -56.001 -33.999l2 -14c15.333 -13.333 32.333 -23.666 51 -30.999l2 8
c7.33301 30.667 16.333 58.667 27 84z" />
    <glyph glyph-name="N" unicode="N" horiz-adv-x="850" 
d="M685 347c-14 -58 -20.998 -107.337 -20.998 -148.004c0 -44.667 8.16699 -78.667 24.5 -102s39.833 -35 70.5 -35c34 0 66.333 13.333 97 40c-20.667 -36 -44.667 -63.667 -72 -83s-56.333 -29 -87 -29c-40 0 -71.333 16.667 -94 50s-34 80 -34 140
c0 47.333 7.33301 100.333 22 159c21.333 84.667 51 156.334 89 215.001l-35 21c-32.667 20.667 -61.667 36.334 -87 47.001s-55 16 -89 16c-57.333 0 -102.333 -19.667 -135 -59s-50 -89.666 -52 -150.999c44.667 24.667 101.334 68.667 170.001 132h32l-59 -240
c42 8 81 25.333 117 52c-20.667 -32 -41.834 -57.667 -63.501 -77s-45.167 -33 -70.5 -41l-40 -162c-8.66699 -36 -13 -62 -13 -78c0 -5.33301 0.666992 -10 2 -14h-112c7.33301 9.33301 13.333 20 18 32s10.334 32 17.001 60l39 157c-54.667 9.33301 -90.667 39 -108 89
c-25.333 -8 -51 -12 -77 -12c-36.667 0 -64.167 6.83301 -82.5 20.5s-27.5 32.834 -27.5 57.501c0 20 4.83301 39.5 14.5 58.5s22.667 34.333 39 46s34.166 17.5 53.499 17.5c17.333 0 30.666 -4.66699 39.999 -14s14 -21.333 14 -36c0 -6 -0.333008 -10.667 -1 -14
c-7.33301 13.333 -17.666 20 -30.999 20c-12.667 0 -23.5 -4.5 -32.5 -13.5s-13.5 -20.833 -13.5 -35.5c0 -12 5.16699 -21.167 15.5 -27.5s25.833 -9.5 46.5 -9.5c11.333 0 22.333 1 33 3v2c0 55.333 12.167 106.666 36.5 153.999s58.166 85 101.499 113s92.333 42 147 42
c40.667 0 75 -6.5 103 -19.5s58.667 -31.833 92 -56.5c16 -12 28.333 -20.667 37 -26c28 32.667 58.167 57.834 90.5 75.501s65.5 26.5 99.5 26.5c27.333 0 48.166 -5.66699 62.499 -17s21.5 -27 21.5 -47c0 -40 -16.5 -72 -49.5 -96s-73.5 -36 -121.5 -36
c-24 0 -47.667 3.33301 -71 10c-27.333 -52.667 -49.333 -111.667 -66 -177zM784.002 577.996c14 -4 29.333 -6 46 -6c28 0 49.667 5.66699 65 17s23 25 23 41c0 14.667 -9.66699 22 -29 22c-33.333 0 -68.333 -24.667 -105 -74zM364.002 420.996
c-24 -16 -49.333 -31.667 -76 -47c8 -25.333 24.333 -42.333 49 -51l3 12c7.33301 30.667 16.333 58.667 27 84z" />
    <glyph glyph-name="O" unicode="O" horiz-adv-x="774" 
d="M173 23c-38.667 22 -71.3311 51.332 -97.998 87.999c-11.333 37.333 -17 78.666 -17 123.999c0 101.333 29.167 189.5 87.5 264.5s138.833 135.833 241.5 182.5c-72.667 -54 -130.334 -121 -173.001 -201s-64 -163.333 -64 -250c0 -26 2.33301 -56.667 7 -92
c50 -50 112.333 -75 187 -75c68.667 0 128.334 18.833 179.001 56.5s89.5 88.334 116.5 152.001s40.5 134.167 40.5 211.5c0 29.333 -1.66699 59 -5 89c-18 20.667 -38 37 -60 49s-45 18 -69 18c-27.333 0 -51 -8.5 -71 -25.5s-35.333 -39 -46 -66s-16 -54.833 -16 -83.5
c0 -29.333 7 -55.666 21 -78.999s35.333 -42.666 64 -57.999c-48.667 6 -88.334 24.333 -119.001 55s-46 68.667 -46 114c0 39.333 10 75.166 30 107.499s47 58 81 77s71.333 28.5 112 28.5c82 0 150 -40.333 204 -121c8.66699 -36.667 13 -74 13 -112
c0 -88.667 -19 -170.167 -57 -244.5s-91.167 -133.333 -159.5 -177s-145.5 -65.5 -231.5 -65.5c-62.667 0 -113.334 11 -152.001 33z" />
    <glyph glyph-name="P" unicode="P" horiz-adv-x="734" 
d="M779 548c0 -64.667 -19.998 -125.001 -59.998 -181.001s-92.167 -100.667 -156.5 -134s-131.5 -50 -201.5 -50c-12 0 -20.667 0.333008 -26 1l-23 -92c-8.66699 -34.667 -13 -60.667 -13 -78c0 -5.33301 0.666992 -10 2 -14h-112c7.33301 8.66699 13.166 19 17.499 31
s10.166 32.333 17.499 61l28 109c-46 18 -74.333 47.333 -85 88c28 -18 60.667 -29.333 98 -34l18 70c8.66699 34.667 17.334 62.667 26.001 84l-3 2c-12.667 -15.333 -29.667 -30 -51 -44c1.33301 -19.333 2.66602 -33 3.99902 -41c-12 18.667 -18.667 29.334 -20 32.001
c-38 -21.333 -76.667 -32 -116 -32c-31.333 0 -55.833 7.33301 -73.5 22s-26.5 34.334 -26.5 59.001c0 20 4.66699 39.167 14 57.5s22.333 33.166 39 44.499s34.667 17 54 17c17.333 0 30.666 -4.66699 39.999 -14s14 -21.333 14 -36c0 -6 -0.333008 -10.667 -1 -14
c-7.33301 13.333 -17.666 20 -30.999 20s-24.333 -4.66699 -33 -14s-13 -21 -13 -35c0 -11.333 4.5 -20.333 13.5 -27s21.833 -10 38.5 -10c19.333 0 38.666 4 57.999 12c-4 15.333 -6 30.333 -6 45c0 50.667 16.333 95.5 49 134.5s75.334 69.167 128.001 90.5
s108.667 32 168 32c52 0 95.167 -8 129.5 -24s61.5 -40.667 81.5 -74c8.66699 -20.667 13 -42 13 -64zM524.502 300.499c51.667 25.667 92.667 60.334 123 104.001s45.5 93.167 45.5 148.5c0 13.333 -2 27 -6 41c-18 17.333 -37.167 29.666 -57.5 36.999
s-50.833 11 -91.5 11c-80 0 -144.833 -18.333 -194.5 -55s-78.834 -89.334 -87.501 -158.001c41.333 26 88.333 69.667 141 131h32l-76 -305c62.667 4.66699 119.834 19.834 171.501 45.501z" />
    <glyph glyph-name="Q" unicode="Q" horiz-adv-x="775" 
d="M735.5 273c-25.667 -63.333 -61.9971 -117.837 -108.997 -163.504s-101.5 -78.5 -163.5 -98.5c11.333 -31.333 25.666 -67.333 42.999 -108c-34 33.333 -64.333 65.333 -91 96c-28 -6 -57.667 -9 -89 -9c-62.667 0 -113.334 11 -152.001 33s-71.334 51.333 -98.001 88
c-12 40.667 -18 82.334 -18 125.001c0 99.333 29.167 186.833 87.5 262.5s139.166 136.834 242.499 183.501c-72.667 -53.333 -130.334 -120.333 -173.001 -201s-64 -164.334 -64 -251.001c0 -30.667 2 -61 6 -91c24 -24 51 -43.167 81 -57.5s65.333 -21.5 106 -21.5
c10 0 17.333 0.333008 22 1c-13.333 18 -30 42.333 -50 73l-17 25c24.667 4.66699 45.834 9.83398 63.501 15.501s36.167 13.834 55.5 24.501c6 -39.333 14.333 -80.333 25 -123c48.667 16.667 91 44.834 127 84.501s63.5 87.334 82.5 143.001s28.5 114.834 28.5 177.501
c0 33.333 -2 64 -6 92c-17.333 20 -37 36.167 -59 48.5s-45 18.5 -69 18.5c-27.333 0 -51 -8.33301 -71 -25s-35.333 -38.334 -46 -65.001s-16 -54.334 -16 -83.001c0 -62.667 28 -109 84 -139c-48 6 -87.5 24.5 -118.5 55.5s-46.5 69.167 -46.5 114.5
c0 38.667 10 74.167 30 106.5s47.167 58 81.5 77s71.833 28.5 112.5 28.5c82.667 0 150.334 -40.333 203.001 -121c9.33301 -36 14 -73.667 14 -113c0 -72 -12.833 -139.667 -38.5 -203z" />
    <glyph glyph-name="R" unicode="R" horiz-adv-x="762" 
d="M755 432.5c-22 -39.667 -52.498 -73.501 -91.498 -101.501s-82.833 -48.333 -131.5 -61c21.333 -54 44.333 -106.167 69 -156.5s66 -128.166 124 -233.499c-82 84 -147 153 -195 207s-92.333 108.667 -133 164l10 38c193.333 42.667 293.333 148.334 300 317.001
c-5.33301 10.667 -13.833 19 -25.5 25s-25.167 9 -40.5 9c-28.667 0 -56.834 -11.667 -84.501 -35s-58.667 -62.333 -93 -117s-76.166 -131 -125.499 -229l-42 -167c-8.66699 -34.667 -13 -60.667 -13 -78c0 -5.33301 0.666992 -10 2 -14h-112
c7.33301 8.66699 13.166 19 17.499 31s10.166 32.333 17.499 61l93 373c10 36.667 19 64.667 27 84l-3 2c-48 -56.667 -102.333 -85 -163 -85c-32 0 -57 7.33301 -75 22s-27 34.667 -27 60c0 19.333 4.66699 38.166 14 56.499s22.333 33.166 39 44.499s34.667 17 54 17
c17.333 0 30.666 -4.66699 39.999 -14s14 -21.333 14 -36c0 -6 -0.333008 -10.667 -1 -14c-7.33301 13.333 -17.666 20 -30.999 20s-24.333 -4.66699 -33 -14s-13 -21 -13 -35c0 -11.333 4.33301 -20.333 13 -27s21.334 -10 38.001 -10c32 0 66.167 13.5 102.5 40.5
s76.166 68.167 119.499 123.5h32l-50 -201c40 75.333 79.5 129.333 118.5 162s82.833 49 131.5 49c30 0 55.333 -7 76 -21s38.667 -36.333 54 -67c6.66699 -19.333 10 -39.666 10 -60.999c0 -46 -11 -88.833 -33 -128.5z" />
    <glyph glyph-name="S" unicode="S" horiz-adv-x="695" 
d="M809 693c-23.333 -34 -49.834 -59.834 -79.501 -77.501s-60.5 -26.5 -92.5 -26.5c-16.667 0 -32.167 2 -46.5 6s-31.833 10.333 -52.5 19c-21.333 8.66699 -40.166 15.167 -56.499 19.5s-34.166 6.5 -53.499 6.5c-34.667 0 -65.834 -8.66699 -93.501 -26
s-49.5 -40.166 -65.5 -68.499s-24 -58.833 -24 -91.5c0 -30.667 9.66699 -54.667 29 -72s47 -26 83 -26c38 0 76.667 10.333 116 31c-44.667 -66 -103.667 -99 -177 -99c-46 0 -81.5 12.833 -106.5 38.5s-37.5 60.5 -37.5 104.5c0 51.333 12.333 98.333 37 141
s58.5 76.334 101.5 101.001s90.833 37 143.5 37c24 0 45.5 -2.33301 64.5 -7s41.167 -11.334 66.5 -20.001c24 -8 43.833 -14 59.5 -18s33.167 -6 52.5 -6c41.333 0 85.333 11.333 132 34zM664.999 464.499c30.667 -27 45.999 -64.834 45.999 -113.501
c0 -71.333 -21.167 -134.333 -63.5 -189s-98.833 -97 -169.5 -127c14.667 -25.333 28.334 -52 41.001 -80c-18.667 30 -37.334 54.667 -56.001 74c-68.667 -26 -141 -39 -217 -39c-58.667 0 -111.667 6.33301 -159 19s-80.333 29 -99 49
c-6.66699 13.333 -10 27.666 -10 42.999c0 23.333 8 45.333 24 66s38.667 37.167 68 49.5s63.333 18.5 102 18.5c102 0 189 -45 261 -135c56 23.333 100.833 54.333 134.5 93s50.5 83.334 50.5 134.001c0 34.667 -12.167 61.667 -36.5 81s-58.5 29 -102.5 29
c-54.667 0 -106.667 -16.333 -156 -49c26 38.667 56.333 67.834 91 87.501s75.334 29.5 122.001 29.5c55.333 0 98.333 -13.5 129 -40.5zM397.998 86.998c-34.667 25.333 -71.834 44.666 -111.501 57.999s-79.834 20 -120.501 20c-34 0 -59.5 -5 -76.5 -15
s-25.5 -26.333 -25.5 -49c0 -6.66699 1 -13 3 -19c10.667 -7.33301 28.334 -13.166 53.001 -17.499s54.334 -6.5 89.001 -6.5c66 0 129 9.66699 189 29z" />
    <glyph glyph-name="T" unicode="T" horiz-adv-x="642" 
d="M198.5 591.5c-32.333 -31 -48.501 -74.8311 -48.501 -131.498c0 -16.667 1.66699 -35.667 5 -57l13 -11c54 82 139.667 142.667 257 182c-44 -23.333 -82 -52.833 -114 -88.5s-57.667 -76.5 -77 -122.5c10.667 -1.33301 19.334 -2 26.001 -2c39.333 0 81 12.667 125 38
s87 60.666 129 105.999h32l-68 -273c-8.66699 -36 -13 -62 -13 -78c0 -5.33301 0.666992 -10 2 -14h-112c7.33301 9.33301 13.333 20 18 32s10.334 32 17.001 60l12 48c6.66699 28 15.334 56 26.001 84l-3 2c-28.667 -23.333 -59.834 -41.666 -93.501 -54.999
s-66.167 -20 -97.5 -20c-10.667 0 -18.667 0.333008 -24 1c-14 -52.667 -20.333 -110.667 -19 -174c10.667 -16 33.667 -29.333 69 -40s70 -16 104 -16c40.667 0 85.334 8.66699 134.001 26s95.667 43.333 141 78c-48.667 -62.667 -99.5 -107.667 -152.5 -135
s-102.833 -41 -149.5 -41c-32 0 -64 5.83301 -96 17.5s-59.667 28 -83 49s-39 44.167 -47 69.5c-2.66699 18.667 -4 38.667 -4 60c0 50 8 95.333 24 136c-18 12 -34 27.333 -48 46c-8 27.333 -12 55 -12 83c0 51.333 12.333 96.666 37 135.999s58.667 69.666 102 90.999
s92 32 146 32c28 0 54.5 -2.33301 79.5 -7s57.167 -11.667 96.5 -21c30.667 -8 55.5 -13.833 74.5 -17.5s37.5 -5.5 55.5 -5.5c24 0 48.167 3.83301 72.5 11.5s47.166 19.5 68.499 35.5c-19.333 -42 -43.833 -72.333 -73.5 -91s-60.834 -28 -93.501 -28
c-14 0 -29.167 1.5 -45.5 4.5s-32.333 6.33301 -48 10l-31.5 7.5c-36 9.33301 -67.333 16.5 -94 21.5s-53 7.5 -79 7.5c-60.667 0 -107.167 -15.5 -139.5 -46.5z" />
    <glyph glyph-name="U" unicode="U" horiz-adv-x="719" 
d="M625 92c-8.66699 -36 -13.001 -61.9971 -13.001 -77.9971c0 -5.33301 0.666992 -10 2 -14h-112c7.33301 9.33301 13.333 20 18 32s10.334 32 17.001 60l1 4h-3c-70.667 -70.667 -142.667 -106 -216 -106c-40 0 -76.833 10.167 -110.5 30.5s-58.167 49.166 -73.5 86.499
c-5.33301 34 -8 64.333 -8 91c0 39.333 5.33301 80.333 16 123c-24.667 10 -44 25.167 -58 45.5s-21 43.833 -21 70.5c0 61.333 27.833 112.5 83.5 153.5s124.167 68.833 205.5 83.5c18.667 3.33301 34.5 6.66602 47.5 9.99902s28.5 8.66602 46.5 15.999h32
c-60.667 -64.667 -109 -122 -145 -172s-63.667 -101 -83 -153h16c57.333 0 107.333 18 150 54c-21.333 -37.333 -47.833 -66.5 -79.5 -87.5s-67.5 -32.5 -107.5 -34.5c-12 -52 -18 -109.667 -18 -173c31.333 -46.667 74.333 -70 129 -70c70.667 0 142.667 36 216 108l65 263
c10 36.667 19 64.667 27 84l-3 2c-16.667 -17.333 -36.5 -30.833 -59.5 -40.5s-46.833 -14.5 -71.5 -14.5c-30.667 0 -54.667 7.33301 -72 22s-26 34 -26 58c0 20 4.83301 39.333 14.5 58s22.5 33.667 38.5 45s33.667 17 53 17c17.333 0 30.666 -4.66699 39.999 -14
s14 -21.333 14 -36c0 -6 -0.333008 -10.667 -1 -14c-7.33301 13.333 -17.666 20 -30.999 20s-24.333 -5.16699 -33 -15.5s-13 -21.5 -13 -33.5c0 -11.333 4.5 -20.333 13.5 -27s20.5 -10 34.5 -10c27.333 0 57 13.333 89 40s68.333 68 109 124h32zM170.999 400.003
c29.333 65.333 73.667 133.333 133 204c-46.667 -11.333 -85.5 -30 -116.5 -56s-46.5 -56.333 -46.5 -91c0 -23.333 10 -42.333 30 -57z" />
    <glyph glyph-name="V" unicode="V" horiz-adv-x="695" 
d="M690 471c-35.333 -79.333 -90.0029 -162.161 -164.003 -248.494s-151.667 -160.5 -233 -222.5h-93c-23.333 38.667 -41.5 76.5 -54.5 113.5s-19.5 75.833 -19.5 116.5c0 30 3.66699 60.333 11 91c-24.667 10 -44 25.167 -58 45.5s-21 43.5 -21 69.5
c0 61.333 27.833 112.666 83.5 153.999s124.167 69.333 205.5 84c18 3.33301 33.5 6.66602 46.5 9.99902s28.5 8.66602 46.5 15.999h32c-58 -61.333 -105.833 -117.833 -143.5 -169.5s-66.167 -103.167 -85.5 -154.5c4 -0.666992 10 -1 18 -1
c56.667 0 106.334 18 149.001 54c-21.333 -36.667 -47.833 -65.667 -79.5 -87s-67.167 -33 -106.5 -35c-4.66699 -22.667 -7 -47 -7 -73c0 -64 14.667 -123.333 44 -178c72.667 61.333 141.667 132.333 207 213s112.333 156.667 141 228
c-62.667 27.333 -94 62.666 -94 105.999c0 30.667 11.5 56.167 34.5 76.5s51.833 30.5 86.5 30.5c28.667 0 50.834 -7.83301 66.501 -23.5s23.5 -38.834 23.5 -69.501c0 -38.667 -10 -82.334 -30 -131.001c10 -6 26.333 -14.667 49 -26
c-15.333 2 -33.666 5.66699 -54.999 11zM622.997 538.005c8.66699 30.667 13.001 57.333 13.001 80s-6.33301 34 -19 34c-8.66699 0 -15.834 -4.33301 -21.501 -13s-8.5 -19.667 -8.5 -33c0 -21.333 12 -44 36 -68zM163.998 401.004c26 60 70.333 127.667 133 203
c-44.667 -10.667 -83 -29.167 -115 -55.5s-48 -56.5 -48 -90.5c0 -24 10 -43 30 -57z" />
    <glyph glyph-name="W" unicode="W" horiz-adv-x="956" 
d="M951 471c-34.667 -80 -88.501 -163.831 -161.501 -251.498s-146.833 -160.834 -221.5 -219.501h-93c-17.333 34 -30 77 -38 129c-48.667 -50 -96.667 -93 -144 -129h-93c-18.667 36.667 -32.834 72.334 -42.501 107.001s-14.5 70 -14.5 106
c0 34.667 4.66699 71.334 14 110.001c-30 8.66699 -53.833 23.5 -71.5 44.5s-26.5 46.167 -26.5 75.5c0 58.667 27.833 108.167 83.5 148.5s123.834 67.833 204.501 82.5c18 3.33301 33.5 6.66602 46.5 9.99902s28.5 8.66602 46.5 15.999h32
c-52 -58.667 -95 -113.5 -129 -164.5s-60 -101.833 -78 -152.5c53.333 0.666992 101 18.667 143 54c-18.667 -32.667 -42 -59.5 -70 -80.5s-58.667 -34.167 -92 -39.5c-8 -34.667 -12 -70.667 -12 -108c0 -56 9.66699 -107.333 29 -154c57.333 48.667 112.333 104 165 166
c-0.666992 10 -1 25 -1 45c0 70 7.5 139 22.5 207s38 124.5 69 169.5s69.833 67.5 116.5 67.5c26 0 46 -7.83301 60 -23.5s21 -38.5 21 -68.5c0 -56 -18.833 -119.833 -56.5 -191.5s-86.834 -143.5 -147.501 -215.5c2 -57.333 10.667 -108 26 -152
c68.667 60.667 134.167 131.167 196.5 211.5s107.5 155.833 135.5 226.5c-62.667 27.333 -94 62.666 -94 105.999c0 30.667 11.5 56.167 34.5 76.5s51.833 30.5 86.5 30.5c28.667 0 50.834 -7.83301 66.501 -23.5s23.5 -39.167 23.5 -70.5c0 -38 -10 -81.333 -30 -130
c10 -6 26.333 -14.667 49 -26c-15.333 2 -33.666 5.66699 -54.999 11zM556.499 552.502c-19 -66.333 -32.5 -138.5 -40.5 -216.5c36 52 64.333 102.5 85 151.5s31 93.5 31 133.5c0 20.667 -4.66699 31 -14 31c-22 0 -42.5 -33.167 -61.5 -99.5zM883.999 538.002
c8.66699 30.667 13.001 57.333 13.001 80s-6.33301 34 -19 34c-8.66699 0 -15.834 -4.33301 -21.501 -13s-8.5 -19.667 -8.5 -33c0 -21.333 12 -44 36 -68zM147 426.501c8 -11 19.3311 -20.168 33.998 -27.501c24.667 63.333 63.334 131.666 116.001 204.999
c-45.333 -11.333 -83.666 -29.666 -114.999 -54.999s-47 -53.666 -47 -84.999c0 -14 4 -26.5 12 -37.5z" />
    <glyph glyph-name="X" unicode="X" horiz-adv-x="932" 
d="M981 691c19.333 -12.667 28.999 -31.001 28.999 -55.001c0 -34 -11.833 -62.833 -35.5 -86.5s-53.5 -35.5 -89.5 -35.5c-27.333 0 -48.166 6.83301 -62.499 20.5s-21.166 31.5 -20.499 53.5c27.333 -10.667 52 -16 74 -16c18.667 0 33.334 4.33301 44.001 13s16 20 16 34
c0 10.667 -4.33301 18.834 -13 24.501s-21 8.5 -37 8.5c-28.667 0 -57.334 -11 -86.001 -33s-63.667 -60.333 -105 -115l-92 -120v-11c54.667 -25.333 98.334 -58.666 131.001 -99.999c-32.667 17.333 -76 32.333 -130 45l2 -216
c0.666992 -28.667 1.66699 -49.334 3 -62.001s4 -26 8 -40h-121c11.333 26 17 58 17 96l-1 168l-62 -80c-54.667 -71.333 -105 -121.5 -151 -150.5s-97.667 -43.5 -155 -43.5c-43.333 0 -76.833 10.333 -100.5 31s-35.5 50.334 -35.5 89.001c0 58 18.333 110.333 55 157
s84.834 83.167 144.501 109.5s122.5 39.5 188.5 39.5c39.333 0 77.333 -4 114 -12l-1 165c-21.333 -28 -48.333 -49.833 -81 -65.5s-66.667 -23.5 -102 -23.5c-34.667 0 -61.5 7.5 -80.5 22.5s-28.5 35.5 -28.5 61.5c0 30.667 10.333 57.667 31 81s45.334 35 74.001 35
c17.333 0 30.666 -4.66699 39.999 -14s14 -21.333 14 -36c0 -6 -0.333008 -10.667 -1 -14c-6 13.333 -16.333 20 -31 20c-12.667 0 -23.334 -4.83301 -32.001 -14.5s-13 -21.167 -13 -34.5c0 -12 4.5 -21.167 13.5 -27.5s22.5 -9.5 40.5 -9.5c32 0 65.5 11.667 100.5 35
s73.167 61.666 114.5 114.999h32l2 -198l30 39c48 62 91.667 105.667 131 131s83.666 38 132.999 38c37.333 0 65.666 -6.33301 84.999 -19zM476.999 339.999c-23.333 2.66699 -47.998 3.99902 -73.998 3.99902c-54 0 -104 -8.83301 -150 -26.5s-82.667 -43.167 -110 -76.5
s-41 -71.666 -41 -114.999c0 -21.333 5.66699 -37.333 17 -48s27.333 -16 48 -16c35.333 0 69.166 11.833 101.499 35.5s71.166 64.5 116.499 122.5z" />
    <glyph glyph-name="Y" unicode="Y" horiz-adv-x="782" 
d="M787 469c-28.667 -79.333 -76.002 -156.003 -142.002 -230.003s-140.167 -134 -222.5 -180s-161.166 -69 -236.499 -69c-40.667 0 -76.667 6.16699 -108 18.5s-56.666 28.833 -75.999 49.5c-6 14 -9 28.333 -9 43c0 22.667 7.83301 44.334 23.5 65.001
s37.834 37.334 66.501 50.001s61.667 19 99 19c46.667 0 83.5 -10.333 110.5 -31s43.167 -49.667 48.5 -87c-54 34.667 -108.333 52 -163 52c-31.333 0 -55.833 -5.5 -73.5 -16.5s-26.5 -27.167 -26.5 -48.5c0 -7.33301 1 -14.666 3 -21.999c28.667 -16 63 -24 103 -24
c46.667 0 95.667 11.833 147 35.5s101 55.834 149 96.501c-27.333 71.333 -49 141.166 -65 209.499s-25 129.833 -27 184.5c-20.667 -30.667 -49 -55.667 -85 -75s-73.667 -29 -113 -29c-34 0 -60.5 7.5 -79.5 22.5s-28.5 35.5 -28.5 61.5c0 30.667 10.333 57.667 31 81
s45.334 35 74.001 35c17.333 0 30.666 -4.66699 39.999 -14s14 -21.333 14 -36c0 -6 -0.333008 -10.667 -1 -14c-6 13.333 -16.333 20 -31 20c-12.667 0 -23.334 -4.83301 -32.001 -14.5s-13 -21.167 -13 -34.5c0 -12 4.5 -21.167 13.5 -27.5s22.5 -9.5 40.5 -9.5
c32 0 65.5 11.667 100.5 35s73.167 61.666 114.5 114.999h32c4 -135.333 35.667 -279.666 95 -432.999c67.333 74.667 115 151 143 229c-64.667 28 -97 63.667 -97 107c0 30.667 11.5 56.167 34.5 76.5s51.833 30.5 86.5 30.5c58.667 0 88 -32.333 88 -97
c0 -42 -7.66699 -85.333 -23 -130l44 -23zM715.998 536.997c7.33301 29.333 11 56.333 11 81c0 22.667 -6.33301 34 -19 34c-8 0 -15 -4.33301 -21 -13s-9 -19.334 -9 -32.001c0 -23.333 12.667 -46.666 38 -69.999z" />
    <glyph glyph-name="Z" unicode="Z" horiz-adv-x="713" 
d="M670 412c28 -25.333 41.9971 -59.333 41.9971 -102c0 -66 -21.833 -123 -65.5 -171s-101.834 -85 -174.501 -111c12 -21.333 24.333 -45.666 37 -72.999c-15.333 26 -32.333 48.667 -51 68c-68 -22 -142 -33 -222 -33c-114 0 -200 22.667 -258 68
c-6.66699 13.333 -10 27.666 -10 42.999c0 24 8 46.333 24 67s38.667 37 68 49s63.333 18 102 18c52 0 100.333 -12 145 -36s85.334 -59.667 122.001 -107c58 19.333 104 45.666 138 78.999s51 73.333 51 120c0 27.333 -9.16699 49 -27.5 65s-44.166 24 -77.499 24
c-25.333 0 -49.666 -4.5 -72.999 -13.5s-44.666 -21.5 -63.999 -37.5l-29 37l194 192c-66 -32 -127.333 -48 -184 -48c-38 0 -67.167 6.83301 -87.5 20.5s-30.5 32.5 -30.5 56.5c0 36 15 65.5 45 88.5s66 34.5 108 34.5c66 0 111.333 -32 136 -96
c-45.333 20 -93.666 30 -144.999 30c-18 0 -33.167 -3.66699 -45.5 -11s-18.5 -16.666 -18.5 -27.999c0 -18 24.667 -27 74 -27c105.333 0 218.666 40.667 339.999 122h38l-253 -253c12 2 25 3 39 3c47.333 0 85 -12.667 113 -38zM394.997 82
c-36 26.667 -74.333 47.167 -115 61.5s-82 21.5 -124 21.5c-68 0 -102 -20.333 -102 -61c0 -6.66699 1 -14 3 -22c17.333 -8 37 -14 59 -18s49.667 -6 83 -6c68.667 0 134 8 196 24z" />
    <glyph glyph-name="bracketleft" unicode="[" horiz-adv-x="302" 
d="M206 750h190l-16 -66h-108l-194 -778h108l-16 -66h-190z" />
    <glyph glyph-name="backslash" unicode="\" horiz-adv-x="414" 
d="M148 750h80l80 -910h-80z" />
    <glyph glyph-name="bracketright" unicode="]" horiz-adv-x="302" 
d="M-48 -94h108l194 778h-108l16 66h190l-226 -910h-190z" />
    <glyph glyph-name="asciicircum" unicode="^" horiz-adv-x="498" 
d="M354 720h32l103 -362h-72l-69 274l-205 -274h-72z" />
    <glyph glyph-name="underscore" unicode="_" horiz-adv-x="381" 
d="M-78 -40h400l-18 -70h-400z" />
    <glyph glyph-name="grave" unicode="`" horiz-adv-x="246" 
d="M143 688h96l51 -158h-40z" />
    <glyph glyph-name="a" unicode="a" horiz-adv-x="562" 
d="M533 94c-27.333 -30.667 -54.668 -54.999 -82.001 -72.999s-51.666 -27 -72.999 -27c-14.667 0 -26 4 -34 12s-12 19 -12 33c0 8 0.666992 14.333 2 19l10 39c-48.667 -71.333 -101 -107 -157 -107c-28 0 -53 8.83301 -75 26.5s-42.667 43.167 -62 76.5
c-6.66699 33.333 -10 63.666 -10 90.999c0 59.333 11.333 111.333 34 156s54.667 79.167 96 103.5s89.333 36.5 144 36.5c49.333 0 93 -9.83301 131 -29.5s67 -46.5 87 -80.5c-26.667 14 -55.167 24.833 -85.5 32.5s-60.833 11.5 -91.5 11.5
c-72.667 0 -129.334 -22.333 -170.001 -67s-61 -106 -61 -184c0 -24.667 2 -50.667 6 -78c10.667 -10 20.334 -17.333 29.001 -22s19.334 -7 32.001 -7c34 0 67 16 99 48s61.667 77 89 135l19 75c6 26 22.667 39 50 39c22 0 33 -8.66699 33 -26
c0 -2 -0.666992 -6.33301 -2 -13l-57 -230c-1.33301 -4 -2 -7.66699 -2 -11c0 -10.667 7.33301 -16 22 -16c23.333 0 53.666 12.333 90.999 37z" />
    <glyph glyph-name="b" unicode="b" horiz-adv-x="553" 
d="M155 6c-26 10.667 -47.332 25.666 -63.999 44.999c-7.33301 27.333 -11 53.666 -11 78.999c0 20 2 38.333 6 55l119 481c0.666992 2 1 4.66699 1 8c0 6 -1.83301 10.667 -5.5 14s-8.5 5 -14.5 5c-23.333 0 -53.666 -12.333 -90.999 -37
c27.333 30.667 54.666 55 81.999 73s51.666 27 72.999 27c14 0 25.333 -4 34 -12s13 -19 13 -33c0 -5.33301 -1 -11.666 -3 -18.999l-127 -508c-5.33301 -21.333 -8 -41 -8 -59s2.33301 -35 7 -51c19.333 -12 43 -18 71 -18c39.333 0 73.833 11.167 103.5 33.5
s52.5 54 68.5 95s24 88.833 24 143.5c0 19.333 -1.33301 37.333 -4 54c-18.667 21.333 -43.334 32 -74.001 32c-27.333 0 -52.333 -8.16699 -75 -24.5s-39.334 -38.5 -50.001 -66.5c6.66699 48 22.834 86.167 48.501 114.5s56.5 42.5 92.5 42.5
c30.667 0 58.334 -9.66699 83.001 -29s44 -46.666 58 -81.999c3.33301 -18 5 -38 5 -60c0 -64 -11.333 -120.167 -34 -168.5s-54.5 -85.5 -95.5 -111.5s-88.167 -39 -141.5 -39c-34.667 0 -65 5.33301 -91 16z" />
    <glyph glyph-name="c" unicode="c" horiz-adv-x="495" 
d="M119 23c-32.667 22 -56.3301 49.999 -70.9971 83.999c-6.66699 22.667 -10 47.667 -10 75c0 59.333 12.333 111.5 37 156.5s59.167 79.833 103.5 104.5s95.166 37 152.499 37c53.333 0 94.166 -10.833 122.499 -32.5s42.5 -52.5 42.5 -92.5
c0 -38.667 -12.333 -70 -37 -94s-58 -36 -100 -36c-34 0 -58.333 7.16699 -73 21.5s-22 32.5 -22 54.5c0 18 4.5 33 13.5 45s20.833 18 35.5 18c8.66699 0 15.667 -2.16699 21 -6.5s8 -10.5 8 -18.5c0 -3.33301 -0.666992 -8.16602 -2 -14.499s-2 -11.5 -2 -15.5
c0 -7.33301 2.66699 -13.166 8 -17.499s12.333 -6.5 21 -6.5c14.667 0 26.5 5.66699 35.5 17s13.5 25.666 13.5 42.999c0 22 -8 39 -24 51s-38.667 18 -68 18c-40 0 -75.333 -10.5 -106 -31.5s-54.334 -50.833 -71.001 -89.5s-25 -83.667 -25 -135
c0 -22 1.66699 -43.667 5 -65c28.667 -24.667 68 -37 118 -37c40.667 0 78.834 8.16699 114.501 24.5s67.167 39.833 94.5 70.5c-66.667 -107.333 -142.334 -161 -227.001 -161c-39.333 0 -75.333 11 -108 33z" />
    <glyph glyph-name="d" unicode="d" horiz-adv-x="562" 
d="M422 84c-1.33301 -4 -2.00195 -7.66699 -2.00195 -11c0 -10.667 7.33301 -16 22 -16c23.333 0 53.666 12.333 90.999 37c-27.333 -30.667 -54.666 -55 -81.999 -73s-51.666 -27 -72.999 -27c-14.667 0 -26 4 -34 12s-12 19 -12 33c0 8 0.666992 14.333 2 19l10 39
c-48.667 -71.333 -101 -107 -157 -107c-28 0 -53 8.83301 -75 26.5s-42.667 43.167 -62 76.5c-6.66699 33.333 -10 63.666 -10 90.999c0 58 10.167 109.5 30.5 154.5s46.833 79.833 79.5 104.5s66.667 37 102 37c27.333 0 52.5 -7.5 75.5 -22.5s41.833 -35.833 56.5 -62.5
c-25.333 12.667 -51 19 -77 19c-33.333 0 -64 -10.333 -92 -31s-50.167 -50 -66.5 -88s-24.5 -82 -24.5 -132c0 -24.667 2 -50.667 6 -78c10.667 -10 20.334 -17.333 29.001 -22s19.334 -7 32.001 -7c34 0 67 16 99 48s61.667 77 89 135l107 427c1.33301 4 2 7.66699 2 11
c0 10.667 -7.33301 16 -22 16c-23.333 0 -53.666 -12.333 -90.999 -37c27.333 30.667 54.666 55 81.999 73s51.666 27 72.999 27c14 0 25.333 -4 34 -12s13 -19 13 -33c0 -5.33301 -1 -11.666 -3 -18.999z" />
    <glyph glyph-name="e" unicode="e" horiz-adv-x="524" 
d="M120 23c-32.667 22 -56.334 49.999 -71.001 83.999c-6.66699 22.667 -10 47.667 -10 75c0 60 11.667 112.5 35 157.5s56.5 79.667 99.5 104s93.167 36.5 150.5 36.5c34.667 0 66.5 -7.16699 95.5 -21.5s50.833 -33.833 65.5 -58.5c8 -25.333 12 -55.333 12 -90
c0 -46 -14.667 -82.667 -44 -110s-69 -41 -119 -41c-41.333 0 -76.833 8.5 -106.5 25.5s-49.167 39.833 -58.5 68.5c14 -10 34 -17.833 60 -23.5s54.333 -8.5 85 -8.5c31.333 0 56.333 8.83301 75 26.5s28 41.167 28 70.5c0 20.667 -2.66699 40.667 -8 60
c-10.667 10.667 -23.5 19.334 -38.5 26.001s-30.167 10 -45.5 10c-62 0 -111.167 -23 -147.5 -69s-54.5 -108.333 -54.5 -187c0 -22 1.66699 -43.667 5 -65c28.667 -24.667 68 -37 118 -37c40.667 0 79.834 7.66699 117.501 23s68.167 36 91.5 62
c-28.667 -46 -63.5 -82.667 -104.5 -110s-81.833 -41 -122.5 -41c-39.333 0 -75.333 11 -108 33z" />
    <glyph glyph-name="f" unicode="f" horiz-adv-x="413" 
d="M434.5 600c13 15.333 19.499 32.3301 19.499 50.9971c0 14.667 -4 25.834 -12 33.501s-19.333 11.5 -34 11.5c-19.333 0 -36.333 -6.66699 -51 -20s-24.667 -31.666 -30 -54.999l-37 -151h165l-16 -64h-165l-127 -508l-4 -16c41.333 -17.333 81.333 -42 120 -74
c-11.333 6.66699 -28.833 13.334 -52.5 20.001s-50.167 12.334 -79.5 17.001c-22.667 -66.667 -53.5 -117 -92.5 -151s-85.833 -51 -140.5 -51c-67.333 0 -118.333 25.333 -153 76c-7.33301 18 -11 36.333 -11 55c0 28 10.5 53 31.5 75s49.167 39.333 84.5 52
s74.333 19 117 19c34 0 67.333 -4 100 -12l125 498h-114l16 64h114l37 151c10.667 42.667 31.334 76.5 62.001 101.5s67.667 37.5 111 37.5c36 0 65.167 -8.83301 87.5 -26.5s33.5 -40.834 33.5 -69.501c0 -33.333 -15 -57.833 -45 -73.5s-67.667 -23.5 -113 -23.5
c22.667 6.66699 40.5 17.667 53.5 33zM-15.001 -254.003c28 24.667 50.332 60.333 66.999 107c-8.66699 0.666992 -21.667 1 -39 1c-64 0 -112.833 -8.66699 -146.5 -26s-50.5 -40.333 -50.5 -69c0 -6 0.5 -11.667 1.5 -17s2.16699 -9.33301 3.5 -12
c12.667 -14 34.334 -21 65.001 -21c38 0 71 12.333 99 37z" />
    <glyph glyph-name="g" unicode="g" horiz-adv-x="556" 
d="M494 -192c-8.66699 6 -24.8291 12.168 -48.4961 18.501s-51.167 11.833 -82.5 16.5c-18.667 -54.667 -48.334 -101.667 -89.001 -141s-98.667 -59 -174 -59c-36.667 0 -67.834 6 -93.501 18s-47.834 31.333 -66.501 58c-7.33301 18 -11 36.667 -11 56
c0 28 10.167 53 30.5 75s49.166 39.167 86.499 51.5s80.333 18.5 129 18.5c41.333 0 82.333 -4.66699 123 -14l49 198c-49.333 -69.333 -102 -104 -158 -104c-28 0 -53 8.83301 -75 26.5s-42.667 43.167 -62 76.5c-6.66699 33.333 -10 63.666 -10 90.999
c0 59.333 11.333 110.5 34 153.5s54.5 75.833 95.5 98.5s89.167 34 144.5 34c49.333 0 93 -9.83301 131 -29.5s67 -46.5 87 -80.5c-26.667 14 -55.167 24.833 -85.5 32.5s-60.833 11.5 -91.5 11.5c-74 0 -131 -20.833 -171 -62.5s-60 -101.167 -60 -178.5
c0 -24.667 2 -50.667 6 -78c10.667 -10 20.334 -17.333 29.001 -22s19.334 -7 32.001 -7c33.333 0 66.166 15.333 98.499 46s62.166 73 89.499 127l19 75c6 26 22.667 39 50 39c22 0 33 -8.66699 33 -26c0 -2 -0.666992 -6.33301 -2 -13l-103 -416l-4 -17
c42 -18 82 -42.333 120 -73zM216.005 -249.499c30.667 27.667 52.999 61.5 66.999 101.5c-26.667 1.33301 -46.667 2 -60 2c-68.667 0 -121.167 -8.66699 -157.5 -26s-54.5 -40.333 -54.5 -69c0 -6 0.5 -11.667 1.5 -17s2.16699 -9.33301 3.5 -12
c12.667 -14 36.334 -21 71.001 -21c55.333 0 98.333 13.833 129 41.5z" />
    <glyph glyph-name="h" unicode="h" horiz-adv-x="547" 
d="M45 19c0 2 0.667969 6.33203 2.00098 12.999l158 634c1.33301 4 2 7.66699 2 11c0 10.667 -7 16 -21 16c-23.333 0 -53.666 -12.333 -90.999 -37c27.333 30.667 54.666 55 81.999 73s51.666 27 72.999 27c14 0 25.333 -4 34 -12s13 -19 13 -33
c0 -5.33301 -1 -11.666 -3 -18.999l-88 -348c40.667 42 78.5 75.167 113.5 99.5s62.5 36.5 82.5 36.5c11.333 0 24 -3.83301 38 -11.5s25.667 -17.834 35 -30.501s14 -25.667 14 -39c0 -3.33301 -0.666992 -7.66602 -2 -12.999l-76 -302c-1.33301 -2.66699 -2 -6 -2 -10
c0 -11.333 7.33301 -17 22 -17c23.333 0 53.666 12.333 90.999 37c-27.333 -30.667 -54.666 -55 -81.999 -73s-51.666 -27 -72.999 -27c-14 0 -25.333 4 -34 12s-13 19 -13 33c0 6 1 12.333 3 19l84 336c-31.333 -4 -67.333 -19.167 -108 -45.5
s-79.334 -59.833 -116.001 -100.5l-54 -216c-6 -25.333 -23 -38 -51 -38c-22 0 -33 8.33301 -33 25z" />
    <glyph glyph-name="i" unicode="i" horiz-adv-x="288" 
d="M202.5 595.5c-8.33301 7.66699 -12.5 17.5 -12.5 29.5c0 17.333 7.33301 32.5 22 45.5s30.667 19.5 48 19.5c12.667 0 23.167 -3.83301 31.5 -11.5s12.5 -17.5 12.5 -29.5c0 -17.333 -7.33301 -32.5 -22 -45.5s-30.667 -19.5 -48 -19.5
c-12.667 0 -23.167 3.83301 -31.5 11.5zM72 6c-8.66699 8 -13 18.999 -13 32.999c0 6 1 12.333 3 19l81 328c0.666992 2 1 4.66699 1 8c0 6 -1.83301 10.667 -5.5 14s-8.5 5 -14.5 5c-23.333 0 -53.666 -12.333 -90.999 -37c27.333 30.667 54.666 55 81.999 73
s51.666 27 72.999 27c14 0 25.333 -4 34 -12s13 -19 13 -33c0 -5.33301 -1 -11.666 -3 -18.999l-82 -328c-1.33301 -4 -2 -7.66699 -2 -11c0 -10.667 7.33301 -16 22 -16c23.333 0 53.666 12.333 90.999 37c-27.333 -30.667 -54.666 -55 -81.999 -73
s-51.666 -27 -72.999 -27c-14 0 -25.333 4 -34 12z" />
    <glyph glyph-name="j" unicode="j" horiz-adv-x="288" 
d="M291.5 678.5c8.33301 -7.66699 12.5 -17.5 12.5 -29.5c0 -17.333 -7.33301 -32.5 -22 -45.5s-30.667 -19.5 -48 -19.5c-12.667 0 -23.167 3.83301 -31.5 11.5s-12.5 17.5 -12.5 29.5c0 17.333 7.33301 32.5 22 45.5s30.667 19.5 48 19.5
c12.667 0 23.167 -3.83301 31.5 -11.5zM222 464c8.66699 -8 13.002 -19.0029 13.002 -33.0029c0 -5.33301 -1 -11.666 -3 -18.999l-128 -514l-4 -16c41.333 -17.333 81.333 -42 120 -74c-11.333 6.66699 -28.833 13.334 -52.5 20.001s-50.167 12.334 -79.5 17.001
c-22.667 -66.667 -53.5 -117 -92.5 -151s-85.833 -51 -140.5 -51c-67.333 0 -118.333 25.333 -153 76c-7.33301 18 -11 36.333 -11 55c0 28 10.5 53 31.5 75s49.167 39.333 84.5 52s74.333 19 117 19c33.333 0 66.666 -4 99.999 -12l119 478c0.666992 2 1 4.66699 1 8
c0 6 -1.83301 10.667 -5.5 14s-8.5 5 -14.5 5c-23.333 0 -53.666 -12.333 -90.999 -37c27.333 30.667 54.666 55 81.999 73s51.666 27 72.999 27c14 0 25.333 -4 34 -12zM-57.998 -255.003c28 24 50.332 60 66.999 108c-8.66699 0.666992 -21.667 1 -39 1
c-64 0 -112.833 -8.66699 -146.5 -26s-50.5 -40.333 -50.5 -69c0 -6 0.5 -11.667 1.5 -17s2.16699 -9.33301 3.5 -12c12.667 -14 34.334 -21 65.001 -21c38 0 71 12 99 36z" />
    <glyph glyph-name="k" unicode="k" horiz-adv-x="511" 
d="M460.5 325c13 14.667 19.502 31.665 19.502 50.998c0 12 -2.83301 21.667 -8.5 29s-14.167 11 -25.5 11s-22.833 -4.5 -34.5 -13.5s-29.167 -25.833 -52.5 -50.5l-79 -84c18 -65.333 43.833 -138 77.5 -218s71.167 -156 112.5 -228
c-63.333 67.333 -117.833 134.166 -163.5 200.499s-77.167 123.833 -94.5 172.5l-57 -61l-26 -102c-6 -25.333 -23 -38 -51 -38c-22 0 -33 8.33301 -33 25c0 2 0.666992 6.33301 2 13l158 634c0.666992 2 1 4.66699 1 8c0 6 -1.83301 10.667 -5.5 14s-8.5 5 -14.5 5
c-23.333 0 -53.666 -12.333 -90.999 -37c27.333 30.667 54.666 55 81.999 73s51.666 27 72.999 27c14 0 25.333 -4 34 -12s13 -19 13 -33c0 -5.33301 -1 -11.666 -3 -18.999l-106 -418l122 130c20 20.667 41.167 38.5 63.5 53.5s50.166 22.5 83.499 22.5
c30.667 0 55.167 -7.66699 73.5 -23s27.5 -35.666 27.5 -60.999c0 -31.333 -13.667 -56.333 -41 -75s-64 -28 -110 -28c22.667 6.66699 40.5 17.334 53.5 32.001z" />
    <glyph glyph-name="l" unicode="l" horiz-adv-x="282" 
d="M66 6c-8.66699 8 -13 18.999 -13 32.999c0 6 1 12.333 3 19l152 608c1.33301 4 2 7.66699 2 11c0 10.667 -7.33301 16 -22 16c-23.333 0 -53.666 -12.333 -90.999 -37c27.333 30.667 54.666 55 81.999 73s51.666 27 72.999 27c14 0 25.333 -4 34 -12s13 -19 13 -33
c0 -5.33301 -1 -11.666 -3 -18.999l-152 -608c-1.33301 -4 -2 -7.66699 -2 -11c0 -10.667 7.33301 -16 22 -16c23.333 0 53.666 12.333 90.999 37c-27.333 -30.667 -54.666 -55 -81.999 -73s-51.666 -27 -72.999 -27c-14 0 -25.333 4 -34 12z" />
    <glyph glyph-name="m" unicode="m" horiz-adv-x="802" 
d="M50 19c0 2 0.668945 6.33203 2.00195 12.999l89 354c0.666992 2 1 4.66699 1 8c0 6 -1.83301 10.667 -5.5 14s-8.5 5 -14.5 5c-23.333 0 -53.666 -12.333 -90.999 -37c27.333 30.667 54.666 55 81.999 73s51.666 27 72.999 27c14 0 25.333 -4 34 -12s13 -19 13 -33
c0 -5.33301 -1 -11.666 -3 -18.999l-17 -68c35.333 41.333 69.666 74.333 102.999 99s60.666 37 81.999 37c11.333 0 23.833 -3.83301 37.5 -11.5s25.334 -17.834 35.001 -30.501s14.5 -25.667 14.5 -39c0 -3.33301 -0.666992 -7.66602 -2 -12.999l-11 -42
c35.333 41.333 69.666 74.333 102.999 99s60.666 37 81.999 37c11.333 0 24 -3.83301 38 -11.5s25.667 -17.834 35 -30.501s14 -25.667 14 -39c0 -3.33301 -0.666992 -7.66602 -2 -12.999l-76 -302c-1.33301 -2.66699 -2 -6 -2 -10c0 -11.333 7.33301 -17 22 -17
c23.333 0 53.666 12.333 90.999 37c-27.333 -30.667 -54.666 -55 -81.999 -73s-51.666 -27 -72.999 -27c-14 0 -25.333 4 -34 12s-13 19 -13 33c0 6 1 12.333 3 19l84 336c-34 -4.66699 -70.333 -20 -109 -46s-73.667 -59.333 -105 -100l-41 -164
c-1.33301 -4 -2 -7.66699 -2 -11c0 -10.667 7.33301 -16 22 -16c23.333 0 53.666 12.333 90.999 37c-27.333 -30.667 -54.666 -55 -81.999 -73s-51.666 -27 -72.999 -27c-14 0 -25.333 4 -34 12s-13 19 -13 33c0 6 1 12.333 3 19l84 336c-34 -4.66699 -70.333 -20 -109 -46
s-73.667 -59.333 -105 -100l-54 -216c-6 -25.333 -23 -38 -51 -38c-22.667 0 -34 8.33301 -34 25z" />
    <glyph glyph-name="n" unicode="n" horiz-adv-x="553" 
d="M50 19c0 2 0.667969 6.33203 2.00098 12.999l89 354c0.666992 2 1 4.66699 1 8c0 6 -1.83301 10.667 -5.5 14s-8.5 5 -14.5 5c-23.333 0 -53.666 -12.333 -90.999 -37c27.333 30.667 54.666 55 81.999 73s51.666 27 72.999 27c14 0 25.333 -4 34 -12s13 -19 13 -33
c0 -5.33301 -1 -11.666 -3 -18.999l-17 -68c40 42 77.5 75.167 112.5 99.5s62.5 36.5 82.5 36.5c11.333 0 24 -3.83301 38 -11.5s25.667 -17.834 35 -30.501s14 -25.667 14 -39c0 -3.33301 -0.666992 -7.66602 -2 -12.999l-76 -302c-1.33301 -2.66699 -2 -6 -2 -10
c0 -11.333 7.33301 -17 22 -17c23.333 0 53.666 12.333 90.999 37c-27.333 -30.667 -54.666 -55 -81.999 -73s-51.666 -27 -72.999 -27c-14 0 -25.333 4 -34 12s-13 19 -13 33c0 6 1 12.333 3 19l84 336c-31.333 -4 -67.333 -19.167 -108 -45.5
s-79.334 -59.833 -116.001 -100.5l-54 -216c-6 -25.333 -23 -38 -51 -38c-22.667 0 -34 8.33301 -34 25z" />
    <glyph glyph-name="o" unicode="o" horiz-adv-x="548" 
d="M112 22c-31.333 21.333 -54.333 49.6699 -69 85.0029c-6.66699 22.667 -10 46 -10 70c0 58 18.333 112.167 55 162.5s86 90.166 148 119.499c-37.333 -34 -66.5 -75.833 -87.5 -125.5s-31.5 -104.167 -31.5 -163.5c0 -22.667 1.66699 -46.334 5 -71.001
c22.667 -28.667 56.667 -43 102 -43c43.333 0 80.833 13.167 112.5 39.5s55.5 63.666 71.5 111.999s23.333 105.166 22 170.499c-16 24 -37.333 36 -64 36c-21.333 0 -38.666 -8 -51.999 -24s-20 -37 -20 -63c0 -22 5 -42.167 15 -60.5s24.333 -34.166 43 -47.499
c-42 5.33301 -75.5 19.333 -100.5 42s-37.5 51 -37.5 85c0 25.333 6.66699 48.166 20 68.499s31.166 36 53.499 47s46.166 16.5 71.499 16.5c33.333 0 63 -9.66699 89 -29s46 -46.666 60 -81.999c3.33301 -20 5 -41 5 -63c0 -62 -12.667 -116.833 -38 -164.5
s-59.666 -84.5 -102.999 -110.5s-91 -39 -143 -39c-46.667 0 -85.667 10.667 -117 32z" />
    <glyph glyph-name="p" unicode="p" horiz-adv-x="559" 
d="M525 309c0 -64.667 -12.999 -121.001 -38.999 -169.001s-63 -85 -111 -111s-104.333 -39 -169 -39c-26.667 0 -52.667 2.66699 -78 8l-78 -314c-6 -25.333 -23 -38 -51 -38c-22 0 -33 8.33301 -33 25c0 2 0.666992 6.33301 2 13l87 349
c-23.333 19.333 -41.333 45.333 -54 78c20.667 -12.667 42.334 -23.334 65.001 -32.001l77 307c1.33301 4 2 7.33301 2 10c0 11.333 -7.33301 17 -22 17c-22.667 0 -52.667 -12.333 -90 -37c27.333 30.667 54.666 55 81.999 73s51.666 27 72.999 27
c14 0 25 -4.16699 33 -12.5s12 -19.166 12 -32.499c0 -8 -0.666992 -14.333 -2 -19l-10 -42c46.667 73.333 99.667 110 159 110c30.667 0 58.167 -9.66699 82.5 -29s43.5 -46.666 57.5 -81.999c3.33301 -18 5 -38 5 -60zM375.501 128.499
c43.667 49 65.502 115.499 65.502 199.499c0 19.333 -1.33301 37.333 -4 54c-16.667 21.333 -38 32 -64 32c-32.667 0 -65.334 -16.167 -98.001 -48.5s-62.334 -77.166 -89.001 -134.499l-43 -172c15.333 -2.66699 32.666 -4 51.999 -4c76.667 0 136.834 24.5 180.501 73.5z
" />
    <glyph glyph-name="q" unicode="q" horiz-adv-x="531" 
d="M406 16c34 30.667 73.999 54.334 119.999 71.001c-20 -14 -42.667 -35.833 -68 -65.5s-51 -64.5 -77 -104.5l-58 -233c-6 -25.333 -23 -38 -51 -38c-22 0 -33 8.33301 -33 25c0 2 0.666992 6.33301 2 13l102 413c-46.667 -71.333 -98.667 -107 -156 -107
c-28 0 -53 8.83301 -75 26.5s-42.667 43.167 -62 76.5c-6.66699 33.333 -10 63.666 -10 90.999c0 59.333 11.333 111.333 34 156s54.667 79.167 96 103.5s89.333 36.5 144 36.5c49.333 0 93 -9.83301 131 -29.5s67 -46.5 87 -80.5c-26.667 14 -55.167 24.833 -85.5 32.5
s-60.833 11.5 -91.5 11.5c-72.667 0 -129.334 -22.333 -170.001 -67s-61 -106 -61 -184c0 -24.667 2 -50.667 6 -78c10.667 -10 20.334 -17.333 29.001 -22s19.334 -7 32.001 -7c34 0 67 16 99 48s61.667 77 89 135l19 75c6 26 22.667 39 50 39c22.667 0 34 -8.66699 34 -26
c0 -2 -0.666992 -6.33301 -2 -13z" />
    <glyph glyph-name="r" unicode="r" horiz-adv-x="423" 
d="M50 19c0 2 0.667969 6.33301 2.00098 13l89 354c0.666992 2 1 4.66699 1 8c0 6 -1.83301 10.667 -5.5 14s-8.5 5 -14.5 5c-23.333 0 -53.666 -12.333 -90.999 -37c27.333 30.667 54.666 55 81.999 73s51.666 27 72.999 27c14 0 25.333 -4 34 -12s13 -19 13 -33
c0 -5.33301 -1 -11.666 -3 -18.999l-15 -58c18.667 38.667 42.334 69.334 71.001 92.001s58 34 88 34c24 0 44.5 -7.33301 61.5 -22s25.5 -34.334 25.5 -59.001s-8 -45.334 -24 -62.001s-35 -25 -57 -25c-15.333 0 -29.333 4.16699 -42 12.5s-22.334 19.5 -29.001 33.5
c8 -2 15.333 -3 22 -3c11.333 0 20.166 2.66699 26.499 8s9.5 13 9.5 23c0 8 -2.16699 14.333 -6.5 19s-10.166 7 -17.499 7c-20 0 -43.833 -17 -71.5 -51s-57.5 -81.667 -89.5 -143l-47 -186c-6 -25.333 -23 -38 -51 -38c-22.667 0 -34 8.33301 -34 25z" />
    <glyph glyph-name="s" unicode="s" horiz-adv-x="467" 
d="M114.5 225.5c-23.667 23.667 -35.498 54.8359 -35.498 93.5029c0 32 7.83301 60.167 23.5 84.5s37 43.166 64 56.499s56.833 20 89.5 20c40.667 0 75.5 -10.167 104.5 -30.5s49.5 -47.5 61.5 -81.5c-41.333 32 -87.333 48 -138 48
c-38.667 0 -68.834 -8.33301 -90.501 -25s-32.5 -39.334 -32.5 -68.001c0 -30 11.5 -54.333 34.5 -73s54.167 -29.334 93.5 -32.001c-22 -18.667 -49 -28 -81 -28c-38.667 0 -69.834 11.833 -93.501 35.5zM48.002 17.002c-29.333 18 -44.0029 43.334 -44.0029 76.001
c0 26 8.66699 46.667 26 62s41.333 23 72 23c28 0 50.333 -7 67 -21s25 -32.667 25 -56c0 -6 -0.333008 -10.333 -1 -13c-9.33301 9.33301 -20.166 16.666 -32.499 21.999s-24.833 8 -37.5 8c-12 0 -21.5 -2.5 -28.5 -7.5s-10.5 -11.833 -10.5 -20.5
c0 -12.667 7.33301 -22.167 22 -28.5s35.334 -9.5 62.001 -9.5c49.333 0 88.5 10.667 117.5 32s43.5 50.333 43.5 87c0 65.333 -42.333 99.333 -127 102c22.667 19.333 50.667 29 84 29c37.333 0 67.5 -11.833 90.5 -35.5s34.5 -55.834 34.5 -96.501
c0 -55.333 -21.5 -99.166 -64.5 -131.499s-101.167 -48.5 -174.5 -48.5c-53.333 0 -94.666 9 -123.999 27z" />
    <glyph glyph-name="t" unicode="t" horiz-adv-x="294" 
d="M140 84c-1.33301 -4 -2.00098 -7.66797 -2.00098 -11.001c0 -10.667 7.33301 -16 22 -16c23.333 0 53.666 12.333 90.999 37c-27.333 -30.667 -54.666 -55 -81.999 -73s-51.666 -27 -72.999 -27c-14 0 -25.333 4 -34 12s-13 19 -13 33c0 6 1 12.333 3 19l86 348h-83
l16 64h83l18 71c3.33301 12.667 9.33301 22.334 18 29.001s19.667 10 33 10c22 0 33 -8.66699 33 -26c0 -2 -0.666992 -6.33301 -2 -13l-18 -71h94l-16 -64h-94z" />
    <glyph glyph-name="u" unicode="u" horiz-adv-x="549" 
d="M112 1.5c-14 7.66699 -25.667 17.833 -35 30.5s-14 25.667 -14 39c0 3.33301 0.666992 7.66602 2 12.999l76 302c0.666992 2 1 4.66699 1 8c0 6 -1.83301 10.667 -5.5 14s-8.5 5 -14.5 5c-23.333 0 -53.666 -12.333 -90.999 -37c27.333 30.667 54.666 55 81.999 73
s51.666 27 72.999 27c14 0 25.333 -4 34 -12s13 -19 13 -33c0 -5.33301 -1 -11.666 -3 -18.999l-84 -336c32 4 67.667 18.833 107 44.5s76.333 57.5 111 95.5l56 222c6.66699 25.333 23.667 38 51 38c22 0 33 -8.33301 33 -25c0 -2 -0.666992 -6.33301 -2 -13l-89 -354
c-1.33301 -4 -2 -7.66699 -2 -11c0 -10.667 7.33301 -16 22 -16c23.333 0 53.666 12.333 90.999 37c-27.333 -30.667 -54.666 -55 -81.999 -73s-51.666 -27 -72.999 -27c-14.667 0 -26 4.16699 -34 12.5s-12 19.5 -12 33.5c0 7.33301 0.666992 13.333 2 18l15 62
c-37.333 -39.333 -73.333 -70.833 -108 -94.5s-62 -35.5 -82 -35.5c-11.333 0 -24 3.83301 -38 11.5z" />
    <glyph glyph-name="v" unicode="v" horiz-adv-x="522" 
d="M503.5 448c15.667 -18.667 23.499 -45.002 23.499 -79.002c0 -32.667 -9 -66.167 -27 -100.5s-51.333 -74 -100 -119s-117 -96.833 -205 -155.5c-100.667 130.667 -151 237.667 -151 321c0 46 13.667 84.333 41 115s62.666 46 105.999 46
c30.667 0 54.5 -8.16699 71.5 -24.5s25.5 -39.166 25.5 -68.499c0 -9.33301 -0.333008 -16.333 -1 -21c-4 16.667 -12.5 29.834 -25.5 39.501s-28.5 14.5 -46.5 14.5c-26 0 -47 -9.83301 -63 -29.5s-24 -45.834 -24 -78.501c0 -30.667 7.5 -65.667 22.5 -105
s35.167 -79.333 60.5 -120c154.667 112.667 232 206.667 232 282c0 16.667 -3.83301 29.334 -11.5 38.001s-18.5 13 -32.5 13c-18 0 -34.333 -5.33301 -49 -16c2.66699 23.333 11.834 41.833 27.501 55.5s35.834 20.5 60.501 20.5c28 0 49.833 -9.33301 65.5 -28z" />
    <glyph glyph-name="w" unicode="w" horiz-adv-x="717" 
d="M600 473c36.667 0 65.3301 -10.5068 85.9971 -31.5068s31 -49.833 31 -86.5c0 -52.667 -23.167 -108.5 -69.5 -167.5s-117.166 -123.5 -212.499 -193.5c-40.667 44.667 -75 87.667 -103 129c-44 -40 -99.667 -83 -167 -129c-89.333 72.667 -134 150.334 -134 233.001
c0 56.667 18.833 107.167 56.5 151.5s88.5 76.5 152.5 96.5c-38 -28.667 -68.333 -65 -91 -109s-34 -88 -34 -132c0 -53.333 20.333 -103.666 61 -150.999c50.667 36 91.334 68.333 122.001 97c-25.333 50.667 -38 97.334 -38 140.001c0 46 12.5 83.5 37.5 112.5
s57.5 43.5 97.5 43.5c30 0 53.167 -8.66699 69.5 -26s24.5 -41.666 24.5 -72.999c0 -61.333 -35 -129.666 -105 -204.999c12.667 -24 32.334 -53.667 59.001 -89c64 52.667 111.667 100.834 143 144.501s47 84.834 47 123.501c0 28 -7.5 52.667 -22.5 74
s-35.167 35.333 -60.5 42c18 4 34.667 6 50 6zM350.996 387.993c-10 -17.333 -15 -39.333 -15 -66c0 -25.333 5.66699 -54 17 -86c41.333 49.333 62 95.333 62 138c0 26.667 -8.66699 40 -26 40c-15.333 0 -28 -8.66699 -38 -26z" />
    <glyph glyph-name="x" unicode="x" horiz-adv-x="615" 
d="M642.5 461c11.667 -10 17.499 -22.333 17.499 -37c0 -12.667 -4.33301 -24.834 -13 -36.501s-20.667 -21.5 -36 -29.5c1.33301 8 2 13.667 2 17c0 12 -3 21.167 -9 27.5s-13.667 9.5 -23 9.5c-13.333 0 -31.5 -12.167 -54.5 -36.5s-62.167 -72.5 -117.5 -144.5
c-1.33301 -1.33301 -2 -2.33301 -2 -3c16 -56 28.667 -96.333 38 -121s19.5 -42.5 30.5 -53.5s25.167 -16.5 42.5 -16.5c7.33301 0 13 0.333008 17 1c-14.667 -29.333 -39 -44 -73 -44c-18.667 0 -34.334 5.16699 -47.001 15.5s-24.167 26.333 -34.5 48
s-21.833 53.167 -34.5 94.5c-47.333 -58 -89.166 -99.167 -125.499 -123.5s-78.5 -36.5 -126.5 -36.5c-42 0 -74.5 8.66699 -97.5 26s-34.5 42.333 -34.5 75c0 31.333 10 57 30 77s46 30 78 30c27.333 0 50.5 -7.66699 69.5 -23s31.167 -36 36.5 -62
c-10.667 7.33301 -23 13 -37 17s-27.667 6 -41 6c-18.667 0 -33.667 -3.83301 -45 -11.5s-17 -18.167 -17 -31.5c0 -12 5.33301 -21.5 16 -28.5s26.334 -10.5 47.001 -10.5c24.667 0 47.5 5.66699 68.5 17s43 29.333 66 54s52.5 60 88.5 106l-6 21
c-14 48 -24.5 81.667 -31.5 101s-14.333 33.333 -22 42s-17.834 13 -30.501 13c-24 0 -45 -10.667 -63 -32c20 65.333 54 98 102 98c16 0 29.5 -4.5 40.5 -13.5s22 -25.167 33 -48.5s23.5 -57.666 37.5 -102.999c36 46.667 64.167 81 84.5 103s39.5 37.833 57.5 47.5
s38.333 14.5 61 14.5c26.667 0 45.834 -5 57.501 -15z" />
    <glyph glyph-name="y" unicode="y" horiz-adv-x="553" 
d="M367 -102c-0.666992 -5.33301 -2.3291 -11.001 -4.99609 -17.001c42.667 -18 83 -42.333 121 -73c-17.333 12.667 -61.666 24.667 -132.999 36c-24.667 -65.333 -59.167 -115.166 -103.5 -149.499s-96.833 -51.5 -157.5 -51.5c-36.667 0 -67.834 6 -93.501 18
s-47.834 31.333 -66.501 58c-7.33301 18 -11 36.667 -11 56c0 28 10.167 53 30.5 75s49.166 39.167 86.499 51.5s80.333 18.5 129 18.5c41.333 0 82.333 -4.66699 123 -14l55 220c-37.333 -38.667 -72.833 -69.334 -106.5 -92.001s-60.834 -34 -81.501 -34
c-11.333 0 -24 3.83301 -38 11.5s-25.667 17.834 -35 30.501s-14 25.667 -14 39c0 3.33301 0.666992 7.66602 2 12.999l72 292c0.666992 2 1 4.66699 1 8c0 6 -1.83301 10.667 -5.5 14s-8.5 5 -14.5 5c-23.333 0 -53.666 -12.333 -90.999 -37
c27.333 30.667 54.666 55 81.999 73s51.666 27 72.999 27c14 0 25.333 -4 34 -12s13 -19 13 -33c0 -5.33301 -1 -11.666 -3 -18.999l-81 -326c32.667 4 68.5 18.333 107.5 43s75.5 55.667 109.5 93l54 216c6.66699 25.333 23.667 38 51 38c22 0 33 -8.33301 33 -25
c0 -2 -0.666992 -6.33301 -2 -13zM193.005 -254.001c33.333 24.667 58.998 60 76.998 106c-25.333 1.33301 -44.666 2 -57.999 2c-68.667 0 -121.167 -8.66699 -157.5 -26s-54.5 -40.333 -54.5 -69c0 -6 0.5 -11.667 1.5 -17s2.16699 -9.33301 3.5 -12
c12.667 -14 36.334 -21 71.001 -21c44.667 0 83.667 12.333 117 37z" />
    <glyph glyph-name="z" unicode="z" horiz-adv-x="463" 
d="M385.5 139c22.333 -16.667 33.4971 -39.335 33.4971 -68.002c0 -23.333 -7.5 -42 -22.5 -56s-35.167 -21 -60.5 -21c-21.333 0 -37.333 6.66699 -48 20c2.66699 -0.666992 6.33398 -1 11.001 -1c10.667 0 19.334 3.33301 26.001 10s10 15.334 10 26.001
c0 16 -7.83301 28.167 -23.5 36.5s-37.5 12.5 -65.5 12.5c-40.667 0 -79.5 -8.16699 -116.5 -24.5s-73.833 -42.833 -110.5 -79.5h-87l241 245h-70l16 64h118l72 73c-25.333 -9.33301 -48.666 -14 -69.999 -14c-39.333 0 -71.833 11.833 -97.5 35.5
s-40.5 55.834 -44.5 96.501c40 -45.333 97.667 -68 173 -68c34 0 65.833 4.33301 95.5 13s54.834 21 75.501 37h54l-173 -173h75l-16 -64h-122l-112 -112c51.333 24.667 100.666 37 147.999 37c38 0 68.167 -8.33301 90.5 -25z" />
    <glyph glyph-name="braceleft" unicode="{" horiz-adv-x="330" 
d="M101.5 270.5c-11.667 9.66699 -30.834 16.4961 -57.501 20.4961l2 8c27.333 4 49 10.333 65 19s28.833 21.834 38.5 39.501s18.5 42.5 26.5 74.5c4 16.667 8 39.667 12 69c4 32 8.33301 56.667 13 74c12 48 33 85.333 63 112s64.667 40 104 40
c12.667 0 28.334 -2.33301 47.001 -7c-38.667 0 -67.667 -11.833 -87 -35.5s-35 -59.834 -47 -108.501c-5.33301 -22 -9.66602 -47.667 -12.999 -77c-6 -37.333 -10.333 -61 -13 -71c-8.66699 -34 -23.167 -62.667 -43.5 -86s-42.5 -39 -66.5 -47
c14 -6.66699 25.667 -18 35 -34s14 -35 14 -57c0 -17.333 -2.66699 -35.666 -8 -54.999s-13 -43.333 -23 -72c-11.333 -32 -19.833 -58.5 -25.5 -79.5s-8.5 -41.167 -8.5 -60.5c0 -22 5.66699 -38.667 17 -50s30.333 -17 57 -17c-20.667 -4.66699 -37.667 -7 -51 -7
c-31.333 0 -55.5 8.5 -72.5 25.5s-25.5 41.5 -25.5 73.5c0 18.667 2.66699 37.834 8 57.501s13.666 45.5 24.999 77.5c10.667 30.667 18.667 55.334 24 74.001s8 36.667 8 54c0 20.667 -5.83301 35.834 -17.5 45.501z" />
    <glyph glyph-name="bar" unicode="|" horiz-adv-x="248" 
d="M208 750h88l-226 -910h-88z" />
    <glyph glyph-name="braceright" unicode="}" horiz-adv-x="330" 
d="M32 -94.5c19.333 23.667 35.002 59.835 47.002 108.502c5.33301 22 9.66602 47.667 12.999 77c5.33301 33.333 9.66602 57 12.999 71c8 32.667 22.5 60.667 43.5 84s43.167 39.666 66.5 48.999c-15.333 6 -27.5 16.667 -36.5 32s-13.5 34 -13.5 56
c0 16.667 2.66699 34.5 8 53.5s13.333 44.167 24 75.5c10.667 30.667 19 57 25 79s9 42.667 9 62c0 22 -5.66699 38.667 -17 50s-30.333 17 -57 17c21.333 4.66699 38.333 7 51 7c31.333 0 55.5 -8.5 72.5 -25.5s25.5 -41.5 25.5 -73.5c0 -19.333 -2.66699 -38.5 -8 -57.5
s-13 -41.833 -23 -68.5c-11.333 -30.667 -19.666 -55.834 -24.999 -75.501s-8 -40.167 -8 -61.5c0 -20 5.66699 -35 17 -45s30.333 -17 57 -21l-2 -8c-27.333 -4 -48.833 -10.333 -64.5 -19s-28.5 -21.667 -38.5 -39s-19 -42.333 -27 -75c-4 -16.667 -8 -39.667 -12 -69
c-4 -32 -8.33301 -56.667 -13 -74c-12 -48 -33 -85.333 -63 -112s-64.667 -40 -104 -40c-12.667 0 -28.334 2.33301 -47.001 7c38.667 0 67.667 11.833 87 35.5z" />
    <glyph glyph-name="asciitilde" unicode="~" horiz-adv-x="521" 
d="M304 230c-13.333 4.66699 -29.334 11.668 -48.001 21.001c-20.667 9.33301 -37.167 16.166 -49.5 20.499s-26.5 6.5 -42.5 6.5c-45.333 0 -87 -15.333 -125 -46c16.667 38 38.834 67.167 66.501 87.5s58.834 30.5 93.501 30.5c15.333 0 29 -2.16699 41 -6.5
s27.333 -10.833 46 -19.5c18 -9.33301 34.167 -16.333 48.5 -21s30.166 -7 47.499 -7c45.333 0 87 15 125 45c-16.667 -38 -38.667 -67.167 -66 -87.5s-58.333 -30.5 -93 -30.5c-16 0 -30.667 2.33301 -44 7z" />
    <glyph glyph-name="uni00A0" unicode="&#xa0;" horiz-adv-x="258" 
 />
    <glyph glyph-name="exclamdown" unicode="&#xa1;" horiz-adv-x="270" 
d="M238 491c9.33301 -8.66699 14 -19.667 14 -33c0 -20.667 -8.16699 -38.834 -24.5 -54.501s-34.833 -23.5 -55.5 -23.5c-14.667 0 -26.667 4.33301 -36 13s-14 19.667 -14 33c0 20.667 8.16699 38.834 24.5 54.501s34.833 23.5 55.5 23.5c14.667 0 26.667 -4.33301 36 -13
zM93 -107c-7.33301 -35.333 -21.168 -62.999 -41.501 -82.999s-45.5 -31.333 -75.5 -34l135 471c10.667 37.333 34.334 60.666 71.001 69.999z" />
    <glyph glyph-name="cent" unicode="&#xa2;" horiz-adv-x="495" 
d="M334 357.5c5.33301 -4.33301 8 -10.5 8 -18.5c0 -3.33301 -0.666992 -8.16602 -2 -14.499s-2 -11.5 -2 -15.5c0 -7.33301 2.66699 -13.166 8 -17.499s12.333 -6.5 21 -6.5c14.667 0 26.5 5.66699 35.5 17s13.5 25.666 13.5 42.999c0 22 -8 39 -24 51s-38.667 18 -68 18
c-20 0 -37.333 -2.33301 -52 -7l-86 -344c16.667 -4.66699 36.334 -7 59.001 -7c40.667 0 78.834 8.16699 114.501 24.5s67.167 39.833 94.5 70.5c-66.667 -107.333 -142.334 -161 -227.001 -161c-20 0 -39 3 -57 9l-23 -91h-60l29 117c-31.333 22 -54 49.333 -68 82
c-6.66699 22.667 -10 47.667 -10 75c0 70 16.833 129.667 50.5 179s79.5 83.666 137.5 102.999l35 138h60l-31 -124c17.333 1.33301 31 2 41 2c53.333 0 94.166 -10.833 122.499 -32.5s42.5 -52.5 42.5 -92.5c0 -38.667 -12.333 -70 -37 -94s-58 -36 -100 -36
c-34 0 -58.333 7.16699 -73 21.5s-22 32.5 -22 54.5c0 18 4.5 33 13.5 45s20.833 18 35.5 18c8.66699 0 15.667 -2.16699 21 -6.5zM203 371c-26 -22 -46 -51.332 -60 -87.999s-21 -78.334 -21 -125.001c0 -22 1.66699 -43.667 5 -65l5 -4z" />
    <glyph glyph-name="sterling" unicode="&#xa3;" horiz-adv-x="712" 
d="M329 136c42.667 -24 78.8311 -42.001 108.498 -54.001s60.834 -18 93.501 -18c50.667 0 100.667 15.667 150 47c-18.667 -42 -44 -72.667 -76 -92s-66 -29 -102 -29c-32 0 -63.667 6.66699 -95 20s-68 32.666 -110 57.999l-56 31
c-26.667 -35.333 -56.167 -62.333 -88.5 -81s-66.166 -28 -101.499 -28c-29.333 0 -51.833 6.5 -67.5 19.5s-23.5 30.5 -23.5 52.5c0 28 7.5 52.833 22.5 74.5s35.5 38.667 61.5 51s54.333 18.5 85 18.5c25.333 0 51.666 -4.33301 78.999 -13
c18.667 36.667 34.334 78 47.001 124h-135l13 50h136l23 94c19.333 76 55.166 136.5 107.499 181.5s113.5 67.5 183.5 67.5c38.667 0 68.834 -10.167 90.501 -30.5s32.5 -50.5 32.5 -90.5c0 -32 -11.833 -60.667 -35.5 -86s-54.5 -40.666 -92.5 -45.999
c21.333 10.667 38.333 26 51 46s19 42 19 66c0 20.667 -6.5 37.334 -19.5 50.001s-30.167 19 -51.5 19c-46 0 -86.333 -16 -121 -48s-58.667 -75 -72 -129l-24 -94h199l-13 -50h-199c-17.333 -58.667 -39 -110.667 -65 -156zM171.997 128.999c-18.667 6 -37.668 9 -57.001 9
c-24.667 0 -44 -5.16699 -58 -15.5s-21 -23.5 -21 -39.5c0 -8 2.83301 -14.167 8.5 -18.5s13.834 -6.5 24.501 -6.5c34 0 68.333 23.667 103 71z" />
    <glyph glyph-name="currency" unicode="&#xa4;" horiz-adv-x="633" 
d="M37 142l87 70c-12 24 -18 51.667 -18 83c0 36.667 8.16699 73.334 24.5 110.001s38.166 68.667 65.499 96l-52 69l53 43l52 -69c48.667 30.667 100.667 46 156 46c54.667 0 99 -15.333 133 -46l86 69l33 -42l-87 -70c12 -24 18 -51.333 18 -82
c0 -36.667 -8.16699 -73.334 -24.5 -110.001s-38.166 -69 -65.499 -97l52 -69l-53 -43l-52 70c-50 -30.667 -102 -46 -156 -46c-55.333 0 -99.333 15.333 -132 46l-88 -69zM408.5 220.5c32.333 20.333 58 47 77 80s28.5 67.167 28.5 102.5c0 36.667 -11.333 66 -34 88
s-53 33 -91 33c-36.667 0 -71.167 -10.167 -103.5 -30.5s-58 -47 -77 -80s-28.5 -67.167 -28.5 -102.5c0 -36.667 11.333 -66 34 -88s53 -33 91 -33c36.667 0 71.167 10.167 103.5 30.5z" />
    <glyph glyph-name="yen" unicode="&#xa5;" horiz-adv-x="750" 
d="M708 357c-5.33301 -9.33301 -14.0039 -23.332 -26.0039 -41.999h170l-12 -50h-195c-63.333 -80 -137.666 -145.833 -222.999 -197.5s-167.333 -77.5 -246 -77.5c-39.333 0 -74.166 6 -104.499 18s-54.5 28 -72.5 48c-6 13.333 -9 27 -9 41c0 22 7.5 42.833 22.5 62.5
s36.333 35.667 64 48s59.5 18.5 95.5 18.5c44.667 0 79.834 -10.167 105.501 -30.5s41.167 -48.166 46.5 -83.499c-51.333 33.333 -103.333 50 -156 50c-30 0 -53.5 -5.33301 -70.5 -16s-25.5 -26 -25.5 -46c0 -8 1 -15 3 -21c26.667 -15.333 59.667 -23 99 -23
c44.667 0 91.5 11.333 140.5 34s96.833 53.667 143.5 93c-6 15.333 -15.667 42.666 -29 81.999h-233l12 50h205c-5.33301 18.667 -9 32.667 -11 42h-186l12 50h162c-12 54.667 -19 106 -21 154c-19.333 -29.333 -46.333 -53.333 -81 -72s-71 -28 -109 -28
c-32.667 0 -58 7.16699 -76 21.5s-27 33.833 -27 58.5c0 29.333 10 55.333 30 78s43.667 34 71 34c16.667 0 29.5 -4.5 38.5 -13.5s13.5 -20.5 13.5 -34.5c0 -2.66699 -0.666992 -7.33398 -2 -14.001c-5.33301 13.333 -15 20 -29 20c-12 0 -22.333 -4.66699 -31 -14
s-13 -20.333 -13 -33c0 -11.333 4.5 -20.166 13.5 -26.499s21.833 -9.5 38.5 -9.5c30.667 0 62.834 11.167 96.501 33.5s70.5 59.166 110.5 110.499h30c4 -130.667 34.667 -269 92 -415c64 70.667 109.667 143.667 137 219c-62 26.667 -93 61 -93 103
c0 29.333 11.167 53.833 33.5 73.5s49.833 29.5 82.5 29.5c56 0 84 -31.333 84 -94c0 -38.667 -7.33301 -80 -22 -124l43 -22l-47 9l-19 -44h138l-12 -50h-152zM683.996 515.001c7.33301 28 11 54 11 78c0 22 -6 33 -18 33c-8 0 -14.833 -4 -20.5 -12s-8.5 -18.333 -8.5 -31
c0 -22 12 -44.667 36 -68z" />
    <glyph glyph-name="brokenbar" unicode="&#xa6;" horiz-adv-x="248" 
d="M208 750h88l-98 -395h-88zM80 235h88l-98 -395h-88z" />
    <glyph glyph-name="section" unicode="&#xa7;" horiz-adv-x="390" 
d="M312 241c8 14 12.001 26.9961 12.001 38.9961c0 13.333 -6.16699 25.333 -18.5 36s-32.833 22.334 -61.5 35.001c-46.667 20.667 -80.334 41.334 -101.001 62.001s-31 44 -31 70c0 40 14 71.667 42 95s66.333 35 115 35c49.333 0 87.5 -11.167 114.5 -33.5
s38.833 -52.5 35.5 -90.5c-4 18 -18 32.5 -42 43.5s-52.667 16.5 -86 16.5c-63.333 0 -95 -15.333 -95 -46c0 -10.667 6.83301 -21.667 20.5 -33s38.834 -25.333 75.501 -42c41.333 -18.667 71 -36.667 89 -54s27 -36.666 27 -57.999c0 -27.333 -12.333 -51.166 -37 -71.499
s-55.334 -33.5 -92.001 -39.5c14 10 25 22 33 36zM25.001 -17.5039c-28 19 -42 45.166 -42 78.499c0 7.33301 0.333008 13 1 17c8.66699 -18 26.5 -32.5 53.5 -43.5s56.5 -16.5 88.5 -16.5c71.333 0 107 20.667 107 62c0 14.667 -6.16699 27.667 -18.5 39
s-33.166 23.666 -62.499 36.999c-46 20.667 -79.167 40.834 -99.5 60.501s-30.5 41.167 -30.5 64.5c0 52 42.333 85.667 127 101c-14 -13.333 -24.5 -25.166 -31.5 -35.499s-10.5 -21.5 -10.5 -33.5c0 -14 6 -26.667 18 -38s32 -23.666 60 -36.999
c46.667 -22.667 80 -44.834 100 -66.501s30 -46.5 30 -74.5c0 -43.333 -15.833 -78 -47.5 -104s-73.834 -39 -126.501 -39c-49.333 0 -88 9.5 -116 28.5z" />
    <glyph glyph-name="dieresis" unicode="&#xa8;" horiz-adv-x="332" 
d="M123.5 530c-7.66699 6.66699 -11.499 15.666 -11.499 26.999c0 18.667 6.66699 34.834 20 48.501s29.666 20.5 48.999 20.5c12.667 0 22.667 -3.33301 30 -10s11 -16 11 -28c0 -19.333 -6.5 -35.5 -19.5 -48.5s-28.833 -19.5 -47.5 -19.5
c-13.333 0 -23.833 3.33301 -31.5 10zM289.501 529.999c-7.66699 6.66699 -11.499 15.666 -11.499 26.999c0 18.667 6.66699 34.834 20 48.501s29.666 20.5 48.999 20.5c12.667 0 22.667 -3.33301 30 -10s11 -16 11 -28c0 -19.333 -6.5 -35.5 -19.5 -48.5
s-28.833 -19.5 -47.5 -19.5c-13.333 0 -23.833 3.33301 -31.5 10z" />
    <glyph glyph-name="copyright" unicode="&#xa9;" horiz-adv-x="835" 
d="M200 23.5c-44 23.667 -77.667 56.334 -101 98.001s-35 89.167 -35 142.5c0 80 22.333 156.167 67 228.5s103.834 130.333 177.501 174s151.5 65.5 233.5 65.5c60 0 112 -11.833 156 -35.5s77.667 -56.334 101 -98.001s35 -89.167 35 -142.5
c0 -80 -22.333 -156.167 -67 -228.5s-103.834 -130.333 -177.501 -174s-151.5 -65.5 -233.5 -65.5c-60 0 -112 11.833 -156 35.5zM567 100.5c62 37.667 111.667 87.167 149 148.5s56 125.666 56 192.999c0 45.333 -9.83301 85.833 -29.5 121.5s-48 63.334 -85 83.001
s-80.167 29.5 -129.5 29.5c-69.333 0 -135 -18.833 -197 -56.5s-111.667 -87.167 -149 -148.5s-56 -125.666 -56 -192.999c0 -45.333 9.83301 -85.833 29.5 -121.5s48 -63.334 85 -83.001s80.167 -29.5 129.5 -29.5c69.333 0 135 18.833 197 56.5zM309 154
c-29.333 20 -50.334 45.001 -63.001 75.001c-6 18.667 -9 41 -9 67c0 53.333 11 100.333 33 141s53 72 93 94s85.667 33 137 33c48 0 84.667 -9.66699 110 -29s38 -47 38 -83c0 -34.667 -11 -62.834 -33 -84.501s-52 -32.5 -90 -32.5c-30.667 0 -52.5 6.33301 -65.5 19
s-19.5 29 -19.5 49c0 16.667 4 30.334 12 41.001s18.667 16 32 16c8 0 14.333 -2 19 -6s7 -9.66699 7 -17c0 -3.33301 -0.666992 -7.66602 -2 -12.999s-2 -10 -2 -14c0 -6.66699 2.5 -11.834 7.5 -15.501s11.167 -5.5 18.5 -5.5c12.667 0 23.167 5.16699 31.5 15.5
s12.5 23.166 12.5 38.499c0 20 -7.33301 35.333 -22 46s-35 16 -61 16c-36 0 -67.667 -9.5 -95 -28.5s-48.5 -45.833 -63.5 -80.5s-22.5 -75 -22.5 -121c0 -19.333 1.66699 -39 5 -59c26 -22 61 -33 105 -33c36.667 0 71.167 7.33301 103.5 22s60.5 36 84.5 64
c-59.333 -96.667 -127.333 -145 -204 -145c-35.333 0 -67.666 10 -96.999 30z" />
    <glyph glyph-name="ordfeminine" unicode="&#xaa;" horiz-adv-x="414" 
d="M469 432c-20 -22 -39.8291 -39.501 -59.4961 -52.501s-37.167 -19.5 -52.5 -19.5c-10.667 0 -19 3 -25 9s-9 14 -9 24c0 2 0.666992 6.33301 2 13l7 28c-34 -51.333 -71.333 -77 -112 -77c-20.667 0 -38.834 6.33301 -54.501 19s-30.5 31 -44.5 55
c-4.66699 26 -7 47.667 -7 65c0 65.333 17.833 117.333 53.5 156s83.5 58 143.5 58c36 0 67.667 -7.16699 95 -21.5s48 -33.833 62 -58.5c-18.667 10 -39 17.833 -61 23.5s-44 8.5 -66 8.5c-52.667 0 -93.667 -16 -123 -48s-44 -76.333 -44 -133
c0 -15.333 1.66699 -34 5 -56c7.33301 -7.33301 14.166 -12.666 20.499 -15.999s14.166 -5 23.499 -5c24 0 47.667 11.667 71 35s44.666 55.666 63.999 96.999l14 54c4 18.667 16 28 36 28c15.333 0 23 -6.33301 23 -19c0 -4 -0.333008 -7 -1 -9l-41 -166
c-0.666992 -1.33301 -1 -3.66602 -1 -6.99902c0 -8 5 -12 15 -12c17.333 0 39.333 9 66 27z" />
    <glyph glyph-name="guillemotleft" unicode="&#xab;" horiz-adv-x="459" 
d="M66 298l162 132h80l-158 -132l92 -132h-80zM226 298l162 132h80l-158 -132l92 -132h-80z" />
    <glyph glyph-name="logicalnot" unicode="&#xac;" horiz-adv-x="521" 
d="M511 358l-46 -186h-68l38 152h-373l17 68h440z" />
    <glyph glyph-name="uni00AD" unicode="&#xad;" horiz-adv-x="341" 
d="M75 333h240l-18 -70h-240z" />
    <glyph glyph-name="registered" unicode="&#xae;" horiz-adv-x="458" 
d="M464 686.5c26 -25 39 -58.5 39 -100.5c0 -38.667 -11 -75.834 -33 -111.501s-51.5 -64.334 -88.5 -86.001s-76.167 -32.5 -117.5 -32.5c-44.667 0 -80 12.5 -106 37.5s-39 58.5 -39 100.5c0 38.667 11 75.834 33 111.501s51.5 64.334 88.5 86.001s76.167 32.5 117.5 32.5
c44.667 0 80 -12.5 106 -37.5zM447 496c14.667 28 21.9971 56.3281 21.9971 84.9951c0 34.667 -10.833 62.5 -32.5 83.5s-50.5 31.5 -86.5 31.5c-34.667 0 -67.167 -9.5 -97.5 -28.5s-54.5 -43.833 -72.5 -74.5s-27 -62 -27 -94c0 -34.667 10.833 -62.5 32.5 -83.5
s50.5 -31.5 86.5 -31.5c40.667 0 78.334 13 113.001 39c-38 38.667 -65 69.667 -81 93l3 11c53.333 11.333 81 40.333 83 87c-4.66699 6.66699 -11 10 -19 10c-11.333 0 -23 -7.66699 -35 -23s-28.333 -43.666 -49 -84.999l-11 -44c-3.33301 -12 -4.33301 -20.333 -3 -25
h-31c3.33301 4 6.66602 12.333 9.99902 25l25 103c2.66699 10 5.33398 18 8.00098 24h-1c-12.667 -15.333 -27.667 -23 -45 -23c-8.66699 0 -15.5 2 -20.5 6s-7.5 9.33301 -7.5 16c0 8 3 15.5 9 22.5s13 10.5 21 10.5c5.33301 0 9.33301 -1.66699 12 -5
s3.33398 -7.66602 2.00098 -12.999c-2 4 -4.66699 6 -8 6c-4 0 -7.16699 -1.33301 -9.5 -4s-3.5 -6 -3.5 -10c0 -6.66699 4.66699 -10 14 -10c16.667 0 37 15 61 45h9l-14 -54c11.333 20.667 22.333 35.334 33 44.001s22.667 13 36 13c16.667 0 28.667 -8 36 -24
c2 -6 3 -11.667 3 -17c0 -19.333 -6.66699 -36.166 -20 -50.499s-30.333 -24.166 -51 -29.499c9.33301 -24.667 25 -57 47 -97c24.667 19.333 44.334 43 59.001 71z" />
    <glyph glyph-name="macron" unicode="&#xaf;" horiz-adv-x="404" 
d="M116 580h344l-12 -50h-344z" />
    <glyph glyph-name="degree" unicode="&#xb0;" horiz-adv-x="422" 
d="M172 459c-21.333 20.667 -32 47.334 -32 80.001c0 31.333 9.16699 61.333 27.5 90s42.333 51.667 72 69s60.834 26 93.501 26c36.667 0 65.667 -10.333 87 -31s32 -47.334 32 -80.001c0 -31.333 -9.16699 -61.333 -27.5 -90s-42.333 -51.667 -72 -69
s-60.834 -26 -93.501 -26c-36.667 0 -65.667 10.333 -87 31zM334 498.5c18.667 11.667 33.5 27 44.5 46s16.5 38.5 16.5 58.5c0 20.667 -6.66699 37.167 -20 49.5s-31.666 18.5 -54.999 18.5c-22.667 0 -43.334 -5.83301 -62.001 -17.5s-33.5 -27 -44.5 -46
s-16.5 -38.5 -16.5 -58.5c0 -20.667 6.66699 -37.167 20 -49.5s31.666 -18.5 54.999 -18.5c22.667 0 43.334 5.83301 62.001 17.5z" />
    <glyph glyph-name="plusminus" unicode="&#xb1;" horiz-adv-x="521" 
d="M509 350l-17 -68h-185l-41 -164h-68l41 164h-187l17 68h187l46 186h68l-46 -186h185zM-1 68h440l-17 -68h-440z" />
    <glyph glyph-name="uni00B2" unicode="&#xb2;" horiz-adv-x="346" 
d="M217 345c26.667 -6.66699 46.3311 -10.0029 58.998 -10.0029c30.667 0 59.667 11.333 87 34c-12 -21.333 -26.667 -39.5 -44 -54.5s-37.333 -22.5 -60 -22.5c-8.66699 0 -19 1.33301 -31 4s-20 4.33398 -24 5.00098c-26.667 7.33301 -49 11 -67 11
c-24 0 -43.333 -6.66699 -58 -20l-23 12c16 26.667 35.167 51.334 57.5 74.001s55.833 50 100.5 82c30 22 53.333 40.833 70 56.5s29.334 33 38.001 52s13 41.167 13 66.5l-1 14c-10.667 12 -28 18 -52 18c-28.667 0 -51.5 -9 -68.5 -27s-25.5 -42 -25.5 -72
c0 -16.667 2 -32 6 -46c-34 24 -51 50.333 -51 79c0 20 6.16699 38.333 18.5 55s28.333 29.834 48 39.501s40.5 14.5 62.5 14.5c24.667 0 46.334 -5.83301 65.001 -17.5s32 -26.167 40 -43.5c5.33301 -10 8 -21 8 -33c0 -32 -10.333 -61.167 -31 -87.5s-51 -54.5 -91 -84.5
c-50 -37.333 -86 -67 -108 -89c13.333 0 34 -3.33301 62 -10z" />
    <glyph glyph-name="uni00B3" unicode="&#xb3;" horiz-adv-x="328" 
d="M368 580c-14.667 -18.667 -35.0049 -34.333 -61.0049 -47c16.667 -12 30.334 -29.667 41.001 -53c3.33301 -11.333 5 -20.666 5 -27.999c0 -42 -14 -77 -42 -105c8.66699 -13.333 13.334 -21 14.001 -23c-4.66699 6 -10.667 12.333 -18 19c-36 -34 -87.333 -51 -154 -51
c-52.667 0 -86.667 13.333 -102 40c-0.666992 2 -1 5.66699 -1 11c0 27.333 11.167 49.333 33.5 66s52.166 25 89.499 25s72 -15 104 -45c17.333 24.667 26 56 26 94c-6 13.333 -18.333 20 -37 20c-15.333 0 -31 -4.66699 -47 -14l-6 33
c40.667 20 71.834 39.833 93.501 59.5s32.5 42.5 32.5 68.5v10c-8 10 -20 15 -36 15c-46 0 -82.667 -28.333 -110 -85c2.66699 31.333 15.334 59.166 38.001 83.499s51.334 36.5 86.001 36.5c17.333 0 30.833 -4 40.5 -12s18.834 -20 27.501 -36
c3.33301 -6.66699 5 -15 5 -25c0 -19.333 -7.33301 -38.333 -22 -57zM262.995 372.001c-28 14 -60.667 21 -98 21c-19.333 0 -35 -4.16699 -47 -12.5s-18 -19.833 -18 -34.5c11.333 -9.33301 31 -14 59 -14c44 0 78.667 13.333 104 40z" />
    <glyph glyph-name="acute" unicode="&#xb4;" horiz-adv-x="168" 
d="M155 688h96l-107 -158h-40z" />
    <glyph glyph-name="uni00B5" unicode="&#xb5;" horiz-adv-x="549" 
d="M-60 -423c0 2 0.666992 6.33203 2 12.999l199 796c0.666992 2 1 4.66699 1 8c0 6 -1.83301 10.667 -5.5 14s-8.5 5 -14.5 5c-23.333 0 -53.666 -12.333 -90.999 -37c27.333 30.667 54.666 55 81.999 73s51.666 27 72.999 27c14 0 25.333 -4 34 -12s13 -19 13 -33
c0 -5.33301 -1 -11.666 -3 -18.999l-84 -336c32 4 67.667 18.833 107 44.5s76.333 57.5 111 95.5l56 222c6.66699 25.333 23.667 38 51 38c22 0 33 -8.33301 33 -25c0 -2 -0.666992 -6.33301 -2 -13l-89 -354c-1.33301 -4 -2 -7.66699 -2 -11c0 -10.667 7.33301 -16 22 -16
c23.333 0 53.666 12.333 90.999 37c-27.333 -30.667 -54.666 -55 -81.999 -73s-51.666 -27 -72.999 -27c-14.667 0 -26 4.16699 -34 12.5s-12 19.5 -12 33.5c0 7.33301 0.666992 13.333 2 18l15 62c-37.333 -39.333 -73.333 -70.833 -108 -94.5s-62 -35.5 -82 -35.5
c-6.66699 0 -15 1.66699 -25 5l-101 -405c-6 -25.333 -23 -38 -51 -38c-22 0 -33 8.33301 -33 25z" />
    <glyph glyph-name="paragraph" unicode="&#xb6;" horiz-adv-x="669" 
d="M391 315h-101c-56 0 -101 13.333 -135 40s-51 62.667 -51 108c0 46 12.833 87 38.5 123s60 64 103 84s89.833 30 140.5 30h189l-210 -844h-88zM631 700h88l-210 -844h-88z" />
    <glyph glyph-name="periodcentered" unicode="&#xb7;" horiz-adv-x="246" 
d="M88 249c-9.33301 8.66699 -14 19.667 -14 33c0 20.667 8.16699 38.834 24.5 54.501s34.833 23.5 55.5 23.5c14.667 0 26.667 -4.33301 36 -13s14 -19.667 14 -33c0 -20.667 -8.16699 -38.834 -24.5 -54.501s-34.833 -23.5 -55.5 -23.5c-14.667 0 -26.667 4.33301 -36 13z
" />
    <glyph glyph-name="cedilla" unicode="&#xb8;" horiz-adv-x="245" 
d="M-27 -180.5c-16.667 9.66699 -28.665 23.833 -35.998 42.5c17.333 -8.66699 40 -13 68 -13c36 0 54 13.333 54 40c0 7.33301 -3.33301 13.333 -10 18s-15.334 7 -26.001 7c-9.33301 0 -21.333 -1.66699 -36 -5l-10 17l101 96l23 -22l-54 -51
c25.333 0 45 -4.83301 59 -14.5s21 -22.834 21 -39.501c0 -27.333 -9.33301 -49.166 -28 -65.499s-40.334 -24.5 -65.001 -24.5c-24 0 -44.333 4.83301 -61 14.5z" />
    <glyph glyph-name="uni00B9" unicode="&#xb9;" horiz-adv-x="223" 
d="M122 315c3.33301 7.33301 6.99902 18.6699 10.999 34.0029l55 222c7.33301 27.333 14 49.666 20 66.999l-2 1c-12 -14 -29 -26.667 -51 -38s-42.333 -19.333 -61 -24c18.667 10 40.334 27.5 65.001 52.5s47 50.167 67 75.5l44 -12l-86 -344
c-4 -14.667 -6 -27.334 -6 -38.001c0 -4.66699 0.666992 -9.66699 2 -15h-70c4.66699 5.33301 8.66699 11.666 12 18.999z" />
    <glyph glyph-name="ordmasculine" unicode="&#xba;" horiz-adv-x="417" 
d="M167 382c-22.667 15.333 -39.335 35.665 -50.002 60.998c-4.66699 16 -7 32.667 -7 50c0 42 13.167 81.167 39.5 117.5s61.833 64.833 106.5 85.5c-27.333 -24 -48.5 -53.833 -63.5 -89.5s-22.5 -75.167 -22.5 -118.5c0 -12.667 1.33301 -29.667 4 -51
c16 -20.667 40.333 -31 73 -31c47.333 0 84.333 21 111 63s39.334 98.333 38.001 169c-12 17.333 -27.333 26 -46 26c-15.333 0 -27.833 -5.66699 -37.5 -17s-14.5 -26.666 -14.5 -45.999c0 -15.333 3.5 -29.666 10.5 -42.999s17.167 -24.666 30.5 -33.999
c-30 3.33301 -54 13.166 -72 29.499s-27 36.833 -27 61.5c0 27.333 10.333 50 31 68s45 27 73 27c24.667 0 46.334 -7 65.001 -21s33 -33.667 43 -59c2 -12.667 3 -27.667 3 -45c0 -44.667 -9.16699 -84.167 -27.5 -118.5s-43 -60.833 -74 -79.5s-65.167 -28 -102.5 -28
c-33.333 0 -61.333 7.66699 -84 23z" />
    <glyph glyph-name="guillemotright" unicode="&#xbb;" horiz-adv-x="459" 
d="M181 298l-92 132h80l96 -132l-162 -132h-80zM341 298l-92 132h80l96 -132l-162 -132h-80z" />
    <glyph glyph-name="onequarter" unicode="&#xbc;" horiz-adv-x="789" 
d="M122 315c3.33301 7.33301 6.99902 18.6699 10.999 34.0029l55 222c7.33301 27.333 14 49.666 20 66.999l-2 1c-12 -14 -29 -26.667 -51 -38s-42.333 -19.333 -61 -24c18.667 10 40.334 27.5 65.001 52.5s47 50.167 67 75.5l44 -12l-86 -344
c-4 -14.667 -6 -27.334 -6 -38.001c0 -4.66699 0.666992 -9.66699 2 -15h-70c4.66699 5.33301 8.66699 11.666 12 18.999zM428.999 620.004c9.33301 19.333 23 36.832 41 52.499s39.667 28.167 65 37.5l-288 -631c-11.333 -25.333 -26 -45.666 -44 -60.999
s-38.333 -25 -61 -29zM709.999 115.003c-16 -9.33301 -34.666 -14.0049 -55.999 -14.0049l-17 -48c-8 -22 -12 -36.333 -12 -43c0 -3.33301 1 -6.66602 3 -9.99902h-72c5.33301 4.66699 9.66602 10.334 12.999 17.001s8 18.667 14 36l19 54l-56 13
c-33.333 -39.333 -69.666 -59 -108.999 -59c-18.667 0 -33.167 3.83301 -43.5 11.5s-15.5 18.834 -15.5 33.501c0 20.667 10.667 37.334 32 50.001s46.666 19 75.999 19c13.333 0 29 -1.66699 47 -5c29.333 47.333 64.666 126 105.999 236h53
c-43.333 -110.667 -82 -192 -116 -244l43 -9l42 120h54l-45 -127c4.66699 -0.666992 11.334 -1 20.001 -1c20 0 41.333 4.33301 64 13c-13.333 -19.333 -28 -33.666 -44 -42.999zM503 128.998c-10.667 2 -20.667 3 -30 3c-13.333 0 -23.833 -1.66699 -31.5 -5
s-11.5 -8.33301 -11.5 -15c0 -7.33301 6.33301 -11 19 -11c17.333 0 35.333 9.33301 54 28z" />
    <glyph glyph-name="onehalf" unicode="&#xbd;" horiz-adv-x="742" 
d="M122 315c3.33301 7.33301 6.99902 18.6699 10.999 34.0029l55 222c7.33301 27.333 14 49.666 20 66.999l-2 1c-12 -14 -29 -26.667 -51 -38s-42.333 -19.333 -61 -24c18.667 10 40.334 27.5 65.001 52.5s47 50.167 67 75.5l44 -12l-86 -344
c-4 -14.667 -6 -27.334 -6 -38.001c0 -4.66699 0.666992 -9.66699 2 -15h-70c4.66699 5.33301 8.66699 11.666 12 18.999zM428.999 620.004c9.33301 19.333 23 36.832 41 52.499s39.667 28.167 65 37.5l-288 -631c-11.333 -25.333 -26 -45.666 -44 -60.999
s-38.333 -25 -61 -29zM538.999 47.0029c26.667 -6.66699 46.3311 -10.0029 58.998 -10.0029c30.667 0 59.667 11.333 87 34c-12 -21.333 -26.667 -39.5 -44 -54.5s-37.333 -22.5 -60 -22.5c-8.66699 0 -19 1.33301 -31 4s-20 4.33398 -24 5.00098
c-26.667 7.33301 -49 11 -67 11c-24 0 -43.333 -6.66699 -58 -20l-23 12c16 26.667 35.167 51.334 57.5 74.001s55.833 50 100.5 82c30 22 53.333 40.833 70 56.5s29.334 33 38.001 52s13 41.167 13 66.5l-1 14c-10.667 12 -28 18 -52 18c-28.667 0 -51.5 -9 -68.5 -27
s-25.5 -42 -25.5 -72c0 -16.667 2 -32 6 -46c-34 24 -51 50.333 -51 79c0 20 6.16699 38.333 18.5 55s28.333 29.834 48 39.501s40.5 14.5 62.5 14.5c24.667 0 46.334 -5.83301 65.001 -17.5s32 -26.167 40 -43.5c5.33301 -10 8 -21 8 -33c0 -32 -10.333 -61.167 -31 -87.5
s-51 -54.5 -91 -84.5c-50 -37.333 -86 -67 -108 -89c13.333 0 34 -3.33301 62 -10z" />
    <glyph glyph-name="threequarters" unicode="&#xbe;" horiz-adv-x="894" 
d="M368 580c-14.667 -18.667 -35.0049 -34.333 -61.0049 -47c16.667 -12 30.334 -29.667 41.001 -53c3.33301 -11.333 5 -20.666 5 -27.999c0 -42 -14 -77 -42 -105c8.66699 -13.333 13.334 -21 14.001 -23c-4.66699 6 -10.667 12.333 -18 19c-36 -34 -87.333 -51 -154 -51
c-52.667 0 -86.667 13.333 -102 40c-0.666992 2 -1 5.66699 -1 11c0 27.333 11.167 49.333 33.5 66s52.166 25 89.499 25s72 -15 104 -45c17.333 24.667 26 56 26 94c-6 13.333 -18.333 20 -37 20c-15.333 0 -31 -4.66699 -47 -14l-6 33
c40.667 20 71.834 39.833 93.501 59.5s32.5 42.5 32.5 68.5v10c-8 10 -20 15 -36 15c-46 0 -82.667 -28.333 -110 -85c2.66699 31.333 15.334 59.166 38.001 83.499s51.334 36.5 86.001 36.5c17.333 0 30.833 -4 40.5 -12s18.834 -20 27.501 -36
c3.33301 -6.66699 5 -15 5 -25c0 -19.333 -7.33301 -38.333 -22 -57zM262.995 372.001c-28 14 -60.667 21 -98 21c-19.333 0 -35 -4.16699 -47 -12.5s-18 -19.833 -18 -34.5c11.333 -9.33301 31 -14 59 -14c44 0 78.667 13.333 104 40zM533.995 620.001
c9.33301 19.333 23 36.832 41 52.499s39.667 28.167 65 37.5l-288 -631c-11.333 -25.333 -26 -45.666 -44 -60.999s-38.333 -25 -61 -29zM814.995 115c-16 -9.33301 -34.666 -14.0049 -55.999 -14.0049l-17 -48c-8 -22 -12 -36.333 -12 -43
c0 -3.33301 1 -6.66602 3 -9.99902h-72c5.33301 4.66699 9.66602 10.334 12.999 17.001s8 18.667 14 36l19 54l-56 13c-33.333 -39.333 -69.666 -59 -108.999 -59c-18.667 0 -33.167 3.83301 -43.5 11.5s-15.5 18.834 -15.5 33.501c0 20.667 10.667 37.334 32 50.001
s46.666 19 75.999 19c13.333 0 29 -1.66699 47 -5c29.333 47.333 64.666 126 105.999 236h53c-43.333 -110.667 -82 -192 -116 -244l43 -9l42 120h54l-45 -127c4.66699 -0.666992 11.334 -1 20.001 -1c20 0 41.333 4.33301 64 13c-13.333 -19.333 -28 -33.666 -44 -42.999z
M607.996 128.995c-10.667 2 -20.667 3 -30 3c-13.333 0 -23.833 -1.66699 -31.5 -5s-11.5 -8.33301 -11.5 -15c0 -7.33301 6.33301 -11 19 -11c17.333 0 35.333 9.33301 54 28z" />
    <glyph glyph-name="questiondown" unicode="&#xbf;" horiz-adv-x="509" 
d="M382 467c9.33301 -8.66699 14 -19.667 14 -33c0 -20.667 -8.16699 -38.834 -24.5 -54.501s-34.833 -23.5 -55.5 -23.5c-14.667 0 -26.667 4.33301 -36 13s-14 19.667 -14 33c0 20.667 8.16699 38.834 24.5 54.501s34.833 23.5 55.5 23.5c14.667 0 26.667 -4.33301 36 -13
zM280.5 207c-25 -43.333 -63.1699 -84.002 -114.503 -122.002c-36.667 -27.333 -64.334 -53.833 -83.001 -79.5s-28 -54.167 -28 -85.5c0 -27.333 9.66699 -48.833 29 -64.5s46.333 -23.5 81 -23.5c26.667 0 51.834 5 75.501 15s42.5 23.833 56.5 41.5s21 37.167 21 58.5
c0 13.333 -4.33301 23.5 -13 30.5s-20.667 10.5 -36 10.5c-19.333 0 -34.833 -5.83301 -46.5 -17.5s-17.5 -28.5 -17.5 -50.5c0 -13.333 2.33301 -25.666 7 -36.999c-27.333 4.66699 -48.166 13 -62.499 25s-21.5 27 -21.5 45c0 30 14.5 54.667 43.5 74s65.833 29 110.5 29
c40 0 71 -8.16699 93 -24.5s33 -39.5 33 -69.5c0 -38.667 -12.167 -73.167 -36.5 -103.5s-56.666 -54 -96.999 -71s-83.166 -25.5 -128.499 -25.5c-57.333 0 -101.833 12.333 -133.5 37s-47.5 59.667 -47.5 105c0 49.333 13.5 92 40.5 128s66.167 71 117.5 105
c62 40.667 107.167 75.834 135.5 105.501s46.5 60.5 54.5 92.5c3.33301 -42 -7.5 -84.667 -32.5 -128z" />
    <glyph glyph-name="Agrave" unicode="&#xc0;" horiz-adv-x="760" 
d="M752 671.5c46.667 -25.667 69.998 -61.1641 69.998 -106.497c0 -26.667 -7.66699 -52.167 -23 -76.5s-35.666 -44.666 -60.999 -60.999s-52 -26.5 -80 -30.5c20.667 19.333 37.167 39.666 49.5 60.999s18.5 42.333 18.5 63c0 36 -17.333 64.5 -52 85.5
s-80.667 31.5 -138 31.5c-128 0 -224 -45.333 -288 -136s-98.333 -213.334 -103 -368.001c31.333 -46.667 74.333 -70 129 -70c70.667 0 142.667 36 216 108l39 156c8.66699 34.667 17.334 62.667 26.001 84l-3 2c-20 -23.333 -46.667 -43.333 -80 -60s-67 -25 -101 -25
c-31.333 0 -55.833 7.33301 -73.5 22s-26.5 34.334 -26.5 59.001c0 20 4.66699 39.167 14 57.5s22.333 33.166 39 44.499s34.667 17 54 17c17.333 0 30.666 -4.66699 39.999 -14s14 -21.333 14 -36c0 -6 -0.333008 -10.667 -1 -14c-7.33301 13.333 -17.666 20 -30.999 20
s-24.333 -4.66699 -33 -14s-13 -21 -13 -35c0 -11.333 4.5 -20.333 13.5 -27s21.833 -10 38.5 -10c65.333 0 144.333 54.667 237 164h32l-117 -471c-8.66699 -36 -13 -62 -13 -78c0 -5.33301 0.666992 -10 2 -14h-112c7.33301 9.33301 13.333 20 18 32s10.334 32 17.001 60
l1 4h-3c-72 -70.667 -144 -106 -216 -106c-40 0 -76.833 10.167 -110.5 30.5s-58.5 49.166 -74.5 86.499c-4 23.333 -6 48.666 -6 75.999c0 102 20.667 192.833 62 272.5s100.166 142 176.499 187s164.833 67.5 265.5 67.5c78 0 140.333 -12.833 187 -38.5zM388.998 918.003
h96l51 -158h-40z" />
    <glyph glyph-name="Aacute" unicode="&#xc1;" horiz-adv-x="760" 
d="M752 671.5c46.667 -25.667 69.998 -61.1641 69.998 -106.497c0 -26.667 -7.66699 -52.167 -23 -76.5s-35.666 -44.666 -60.999 -60.999s-52 -26.5 -80 -30.5c20.667 19.333 37.167 39.666 49.5 60.999s18.5 42.333 18.5 63c0 36 -17.333 64.5 -52 85.5
s-80.667 31.5 -138 31.5c-128 0 -224 -45.333 -288 -136s-98.333 -213.334 -103 -368.001c31.333 -46.667 74.333 -70 129 -70c70.667 0 142.667 36 216 108l39 156c8.66699 34.667 17.334 62.667 26.001 84l-3 2c-20 -23.333 -46.667 -43.333 -80 -60s-67 -25 -101 -25
c-31.333 0 -55.833 7.33301 -73.5 22s-26.5 34.334 -26.5 59.001c0 20 4.66699 39.167 14 57.5s22.333 33.166 39 44.499s34.667 17 54 17c17.333 0 30.666 -4.66699 39.999 -14s14 -21.333 14 -36c0 -6 -0.333008 -10.667 -1 -14c-7.33301 13.333 -17.666 20 -30.999 20
s-24.333 -4.66699 -33 -14s-13 -21 -13 -35c0 -11.333 4.5 -20.333 13.5 -27s21.833 -10 38.5 -10c65.333 0 144.333 54.667 237 164h32l-117 -471c-8.66699 -36 -13 -62 -13 -78c0 -5.33301 0.666992 -10 2 -14h-112c7.33301 9.33301 13.333 20 18 32s10.334 32 17.001 60
l1 4h-3c-72 -70.667 -144 -106 -216 -106c-40 0 -76.833 10.167 -110.5 30.5s-58.5 49.166 -74.5 86.499c-4 23.333 -6 48.666 -6 75.999c0 102 20.667 192.833 62 272.5s100.166 142 176.499 187s164.833 67.5 265.5 67.5c78 0 140.333 -12.833 187 -38.5zM506.998 918.003
h96l-107 -158h-40z" />
    <glyph glyph-name="Acircumflex" unicode="&#xc2;" horiz-adv-x="760" 
d="M752 671.5c46.667 -25.667 69.998 -61.1641 69.998 -106.497c0 -26.667 -7.66699 -52.167 -23 -76.5s-35.666 -44.666 -60.999 -60.999s-52 -26.5 -80 -30.5c20.667 19.333 37.167 39.666 49.5 60.999s18.5 42.333 18.5 63c0 36 -17.333 64.5 -52 85.5
s-80.667 31.5 -138 31.5c-128 0 -224 -45.333 -288 -136s-98.333 -213.334 -103 -368.001c31.333 -46.667 74.333 -70 129 -70c70.667 0 142.667 36 216 108l39 156c8.66699 34.667 17.334 62.667 26.001 84l-3 2c-20 -23.333 -46.667 -43.333 -80 -60s-67 -25 -101 -25
c-31.333 0 -55.833 7.33301 -73.5 22s-26.5 34.334 -26.5 59.001c0 20 4.66699 39.167 14 57.5s22.333 33.166 39 44.499s34.667 17 54 17c17.333 0 30.666 -4.66699 39.999 -14s14 -21.333 14 -36c0 -6 -0.333008 -10.667 -1 -14c-7.33301 13.333 -17.666 20 -30.999 20
s-24.333 -4.66699 -33 -14s-13 -21 -13 -35c0 -11.333 4.5 -20.333 13.5 -27s21.833 -10 38.5 -10c65.333 0 144.333 54.667 237 164h32l-117 -471c-8.66699 -36 -13 -62 -13 -78c0 -5.33301 0.666992 -10 2 -14h-112c7.33301 9.33301 13.333 20 18 32s10.334 32 17.001 60
l1 4h-3c-72 -70.667 -144 -106 -216 -106c-40 0 -76.833 10.167 -110.5 30.5s-58.5 49.166 -74.5 86.499c-4 23.333 -6 48.666 -6 75.999c0 102 20.667 192.833 62 272.5s100.166 142 176.499 187s164.833 67.5 265.5 67.5c78 0 140.333 -12.833 187 -38.5zM506.998 898.003
h80l64 -148l-119 88l-161 -88z" />
    <glyph glyph-name="Atilde" unicode="&#xc3;" horiz-adv-x="760" 
d="M752 671.5c46.667 -25.667 69.998 -61.1641 69.998 -106.497c0 -26.667 -7.66699 -52.167 -23 -76.5s-35.666 -44.666 -60.999 -60.999s-52 -26.5 -80 -30.5c20.667 19.333 37.167 39.666 49.5 60.999s18.5 42.333 18.5 63c0 36 -17.333 64.5 -52 85.5
s-80.667 31.5 -138 31.5c-128 0 -224 -45.333 -288 -136s-98.333 -213.334 -103 -368.001c31.333 -46.667 74.333 -70 129 -70c70.667 0 142.667 36 216 108l39 156c8.66699 34.667 17.334 62.667 26.001 84l-3 2c-20 -23.333 -46.667 -43.333 -80 -60s-67 -25 -101 -25
c-31.333 0 -55.833 7.33301 -73.5 22s-26.5 34.334 -26.5 59.001c0 20 4.66699 39.167 14 57.5s22.333 33.166 39 44.499s34.667 17 54 17c17.333 0 30.666 -4.66699 39.999 -14s14 -21.333 14 -36c0 -6 -0.333008 -10.667 -1 -14c-7.33301 13.333 -17.666 20 -30.999 20
s-24.333 -4.66699 -33 -14s-13 -21 -13 -35c0 -11.333 4.5 -20.333 13.5 -27s21.833 -10 38.5 -10c65.333 0 144.333 54.667 237 164h32l-117 -471c-8.66699 -36 -13 -62 -13 -78c0 -5.33301 0.666992 -10 2 -14h-112c7.33301 9.33301 13.333 20 18 32s10.334 32 17.001 60
l1 4h-3c-72 -70.667 -144 -106 -216 -106c-40 0 -76.833 10.167 -110.5 30.5s-58.5 49.166 -74.5 86.499c-4 23.333 -6 48.666 -6 75.999c0 102 20.667 192.833 62 272.5s100.166 142 176.499 187s164.833 67.5 265.5 67.5c78 0 140.333 -12.833 187 -38.5zM687.998 866.003
c-12 -38 -29.334 -66.833 -52.001 -86.5s-46.334 -29.5 -71.001 -29.5c-12 0 -22.5 2.16699 -31.5 6.5s-19.167 10.833 -30.5 19.5c-10.667 8 -20.167 14 -28.5 18s-18.166 6 -29.499 6c-31.333 0 -62.666 -16.667 -93.999 -50c12 38 29.333 66.833 52 86.5
s46.334 29.5 71.001 29.5c12 0 22.167 -2 30.5 -6s18.5 -10.333 30.5 -19c10 -8 19.333 -14.167 28 -18.5s19 -6.5 31 -6.5c31.333 0 62.666 16.667 93.999 50z" />
    <glyph glyph-name="Adieresis" unicode="&#xc4;" horiz-adv-x="760" 
d="M752 671.5c46.667 -25.667 69.998 -61.1641 69.998 -106.497c0 -26.667 -7.66699 -52.167 -23 -76.5s-35.666 -44.666 -60.999 -60.999s-52 -26.5 -80 -30.5c20.667 19.333 37.167 39.666 49.5 60.999s18.5 42.333 18.5 63c0 36 -17.333 64.5 -52 85.5
s-80.667 31.5 -138 31.5c-128 0 -224 -45.333 -288 -136s-98.333 -213.334 -103 -368.001c31.333 -46.667 74.333 -70 129 -70c70.667 0 142.667 36 216 108l39 156c8.66699 34.667 17.334 62.667 26.001 84l-3 2c-20 -23.333 -46.667 -43.333 -80 -60s-67 -25 -101 -25
c-31.333 0 -55.833 7.33301 -73.5 22s-26.5 34.334 -26.5 59.001c0 20 4.66699 39.167 14 57.5s22.333 33.166 39 44.499s34.667 17 54 17c17.333 0 30.666 -4.66699 39.999 -14s14 -21.333 14 -36c0 -6 -0.333008 -10.667 -1 -14c-7.33301 13.333 -17.666 20 -30.999 20
s-24.333 -4.66699 -33 -14s-13 -21 -13 -35c0 -11.333 4.5 -20.333 13.5 -27s21.833 -10 38.5 -10c65.333 0 144.333 54.667 237 164h32l-117 -471c-8.66699 -36 -13 -62 -13 -78c0 -5.33301 0.666992 -10 2 -14h-112c7.33301 9.33301 13.333 20 18 32s10.334 32 17.001 60
l1 4h-3c-72 -70.667 -144 -106 -216 -106c-40 0 -76.833 10.167 -110.5 30.5s-58.5 49.166 -74.5 86.499c-4 23.333 -6 48.666 -6 75.999c0 102 20.667 192.833 62 272.5s100.166 142 176.499 187s164.833 67.5 265.5 67.5c78 0 140.333 -12.833 187 -38.5zM395.498 760.003
c-7.66699 6.66699 -11.499 15.666 -11.499 26.999c0 18.667 6.66699 34.834 20 48.501s29.666 20.5 48.999 20.5c12.667 0 22.667 -3.33301 30 -10s11 -16 11 -28c0 -19.333 -6.5 -35.5 -19.5 -48.5s-28.833 -19.5 -47.5 -19.5c-13.333 0 -23.833 3.33301 -31.5 10z
M561.499 760.002c-7.66699 6.66699 -11.499 15.666 -11.499 26.999c0 18.667 6.66699 34.834 20 48.501s29.666 20.5 48.999 20.5c12.667 0 22.667 -3.33301 30 -10s11 -16 11 -28c0 -19.333 -6.5 -35.5 -19.5 -48.5s-28.833 -19.5 -47.5 -19.5
c-13.333 0 -23.833 3.33301 -31.5 10z" />
    <glyph glyph-name="Aring" unicode="&#xc5;" horiz-adv-x="760" 
d="M752 671.5c46.667 -25.667 69.998 -61.1641 69.998 -106.497c0 -26.667 -7.66699 -52.167 -23 -76.5s-35.666 -44.666 -60.999 -60.999s-52 -26.5 -80 -30.5c20.667 19.333 37.167 39.666 49.5 60.999s18.5 42.333 18.5 63c0 36 -17.333 64.5 -52 85.5
s-80.667 31.5 -138 31.5c-128 0 -224 -45.333 -288 -136s-98.333 -213.334 -103 -368.001c31.333 -46.667 74.333 -70 129 -70c70.667 0 142.667 36 216 108l39 156c8.66699 34.667 17.334 62.667 26.001 84l-3 2c-20 -23.333 -46.667 -43.333 -80 -60s-67 -25 -101 -25
c-31.333 0 -55.833 7.33301 -73.5 22s-26.5 34.334 -26.5 59.001c0 20 4.66699 39.167 14 57.5s22.333 33.166 39 44.499s34.667 17 54 17c17.333 0 30.666 -4.66699 39.999 -14s14 -21.333 14 -36c0 -6 -0.333008 -10.667 -1 -14c-7.33301 13.333 -17.666 20 -30.999 20
s-24.333 -4.66699 -33 -14s-13 -21 -13 -35c0 -11.333 4.5 -20.333 13.5 -27s21.833 -10 38.5 -10c65.333 0 144.333 54.667 237 164h32l-117 -471c-8.66699 -36 -13 -62 -13 -78c0 -5.33301 0.666992 -10 2 -14h-112c7.33301 9.33301 13.333 20 18 32s10.334 32 17.001 60
l1 4h-3c-72 -70.667 -144 -106 -216 -106c-40 0 -76.833 10.167 -110.5 30.5s-58.5 49.166 -74.5 86.499c-4 23.333 -6 48.666 -6 75.999c0 102 20.667 192.833 62 272.5s100.166 142 176.499 187s164.833 67.5 265.5 67.5c78 0 140.333 -12.833 187 -38.5zM457.498 766.503
c-13 11 -19.5 25.833 -19.5 44.5c0 27.333 11.167 51.333 33.5 72s48.166 31 77.499 31c20.667 0 37.334 -5.5 50.001 -16.5s19 -25.833 19 -44.5c0 -27.333 -10.833 -51.333 -32.5 -72s-47.167 -31 -76.5 -31c-21.333 0 -38.5 5.5 -51.5 16.5zM556.998 805.003
c10.667 12.667 16 26 16 40c0 10 -3 18 -9 24s-14 9 -24 9c-16 0 -29.5 -6.16699 -40.5 -18.5s-16.5 -25.833 -16.5 -40.5c0 -10 3.16699 -18 9.5 -24s14.833 -9 25.5 -9c15.333 0 28.333 6.33301 39 19z" />
    <glyph glyph-name="AE" unicode="&#xc6;" horiz-adv-x="1114" 
d="M1028.5 613.5c-17.667 3 -34.501 6.50098 -50.501 10.501c-14.667 3.33301 -29.834 6.5 -45.501 9.5s-29.834 4.5 -42.501 4.5c-27.333 0 -54.666 -6 -81.999 -18c9.33301 -17.333 14 -35.666 14 -54.999c0 -14.667 -2.66699 -30 -8 -46l50 41h32l-49 -198h4
c17.333 26.667 38.333 48.5 63 65.5s49 25.5 73 25.5c22.667 0 40.334 -7.66699 53.001 -23s19 -35.666 19 -60.999c0 -9.33301 -0.333008 -16.333 -1 -21c-16.667 24.667 -40 37 -70 37c-31.333 0 -60.333 -11.667 -87 -35s-53.667 -56 -81 -98l-5 -20
c-8.66699 -36 -13 -62 -13 -78c0 -5.33301 0.666992 -10 2 -14h-110c7.33301 9.33301 13.333 20 18 32s10.334 32 17.001 60l25 103c7.33301 30.667 16.333 58.667 27 84l-3 2c-66.667 -50 -122.334 -89 -167.001 -117c-7.33301 -42 -11 -82.333 -11 -121
c0 -10 0.666992 -23.667 2 -41c17.333 -24 44.5 -43.333 81.5 -58s79.5 -22 127.5 -22s93.167 8.33301 135.5 25s88.5 43 138.5 79c-49.333 -54 -98.5 -96.833 -147.5 -128.5s-102.833 -47.5 -161.5 -47.5c-44 0 -85 9.16699 -123 27.5s-69.333 44.166 -94 77.499l-1 -3
c-8.66699 -36 -13 -62 -13 -78c0 -5.33301 0.666992 -10 2 -14h-112c7.33301 9.33301 13.333 20 18 32s10.334 32 17.001 60l1 4h-3c-72 -70.667 -144 -106 -216 -106c-40 0 -76.833 10.167 -110.5 30.5s-58.5 49.166 -74.5 86.499c-4 23.333 -6 48.666 -6 75.999
c0 102 20.667 192.833 62 272.5s100.166 142 176.499 187s164.833 67.5 265.5 67.5c78.667 0 141.334 -13 188.001 -39c46.667 26 95 39 145 39c28 0 62.667 -5 104 -15c21.333 -4.66699 39.5 -8.16699 54.5 -10.5s30.833 -3.5 47.5 -3.5c40 0 82.333 8.33301 127 25
c-18 -32 -39 -56.167 -63 -72.5s-54 -24.5 -90 -24.5c-15.333 0 -31.833 1.5 -49.5 4.5zM508.999 247.001c-66.667 -32 -129.335 -47.998 -188.002 -47.998c-36.667 0 -64.167 6.83301 -82.5 20.5s-27.5 32.834 -27.5 57.501c0 22.667 5.83301 44.167 17.5 64.5
s26.834 35.5 45.501 45.5c-2 7.33301 -3 15 -3 23c0 20 4.66699 39.167 14 57.5s22.333 33.166 39 44.499s34.667 17 54 17c17.333 0 30.666 -4.66699 39.999 -14s14 -21.333 14 -36c0 -6 -0.333008 -10.667 -1 -14c-7.33301 13.333 -17.666 20 -30.999 20
s-24.333 -4.66699 -33 -14s-13 -21 -13 -35c0 -11.333 4.5 -20.333 13.5 -27s21.833 -10 38.5 -10c55.333 0 121.333 40 198 120c18.667 31.333 41.334 60.666 68.001 87.999c-34 20.667 -79.333 31 -136 31c-128 0 -224 -45.333 -288 -136s-98.333 -213.334 -103 -368.001
c31.333 -46.667 74.333 -70 129 -70c70.667 0 142.667 36 216 108zM663.998 403.003c19.333 18.667 34.5 38.1689 45.5 58.502s16.5 40.166 16.5 59.499c0 9.33301 -1.66699 19.666 -5 30.999c-38 -43.333 -68.333 -101 -91 -173zM293.998 306.005
c0 -12 5.33301 -21.167 16 -27.5s26.334 -9.5 47.001 -9.5c51.333 0 107.666 15.333 168.999 46l3 13l9 35l15 50l-1 1c-20 -23.333 -46.667 -43.333 -80 -60s-67 -25 -101 -25c-24 0 -44.333 4.66699 -61 14c-10.667 -10.667 -16 -23 -16 -37z" />
    <glyph glyph-name="Ccedilla" unicode="&#xc7;" horiz-adv-x="766" 
d="M400 578c-41.333 -40 -74.6641 -92.6689 -99.9971 -158.002c35.333 14.667 71.666 33.834 108.999 57.501s73 51.167 107 82.5h32l-81 -328c-8.66699 -36 -13 -62 -13 -78c0 -5.33301 0.666992 -10 2 -14h-110c7.33301 9.33301 13.333 20 18 32s10.334 32 17.001 60
l25 103c7.33301 30.667 16.333 58.667 27 84l-3 2c-46.667 -30.667 -97.667 -55.334 -153 -74.001c-13.333 -55.333 -20 -110 -20 -164c0 -10 0.666992 -23.667 2 -41c18 -24 44.667 -43.333 80 -58s76.666 -22 123.999 -22c48 0 93.167 8.33301 135.5 25s88.5 43 138.5 79
c-49.333 -54 -98.5 -96.833 -147.5 -128.5s-102.833 -47.5 -161.5 -47.5h-2l-43 -41c25.333 0 45 -4.83301 59 -14.5s21 -22.834 21 -39.501c0 -27.333 -9.33301 -49.166 -28 -65.499s-40.334 -24.5 -65.001 -24.5c-24 0 -44.333 4.83301 -61 14.5
s-28.667 23.834 -36 42.501c17.333 -8.66699 40 -13 68 -13c36 0 54 13.333 54 40c0 7.33301 -3.33301 13.333 -10 18s-15.334 7 -26.001 7c-9.33301 0 -21.333 -1.66699 -36 -5l-10 17l71 67c-46 7.33301 -87.167 24.833 -123.5 52.5s-63.5 62.5 -81.5 104.5
c-4.66699 28 -7 52.667 -7 74c0 36 3.33301 69.667 10 101c-18.667 -1.33301 -31.667 -2 -39 -2c-36.667 0 -64.167 6.83301 -82.5 20.5s-27.5 32.834 -27.5 57.501c0 20 4.83301 39.5 14.5 58.5s22.667 34.333 39 46s34.166 17.5 53.499 17.5
c17.333 0 30.666 -4.66699 39.999 -14s14 -21.333 14 -36c0 -6 -0.333008 -10.667 -1 -14c-7.33301 13.333 -17.666 20 -30.999 20s-24.333 -5.16699 -33 -15.5s-13 -21.5 -13 -33.5s5.33301 -21.167 16 -27.5s26.334 -9.5 47.001 -9.5c8.66699 0 15.334 0.333008 20.001 1
c18.667 58 45.167 111 79.5 159s74.833 86.167 121.5 114.5s96.667 42.5 150 42.5c28 0 62.667 -5 104 -15c21.333 -4.66699 39.5 -8.16699 54.5 -10.5s30.833 -3.5 47.5 -3.5c40 0 82.333 8.33301 127 25c-18 -32 -39 -56.167 -63 -72.5s-54 -24.5 -90 -24.5
c-15.333 0 -31.833 1.5 -49.5 4.5s-34.5 6.5 -50.5 10.5c-14.667 3.33301 -29.834 6.5 -45.501 9.5s-29.834 4.5 -42.501 4.5c-53.333 0 -100.666 -20 -141.999 -60z" />
    <glyph glyph-name="Egrave" unicode="&#xc8;" horiz-adv-x="766" 
d="M400 578c-41.333 -40 -74.667 -92.6689 -100 -158.002c35.333 14.667 71.666 33.834 108.999 57.501s73 51.167 107 82.5h32l-49 -198h4c17.333 26.667 38.333 48.5 63 65.5s49 25.5 73 25.5c22.667 0 40.334 -7.66699 53.001 -23s19 -35.666 19 -60.999
c0 -9.33301 -0.333008 -16.333 -1 -21c-16.667 24.667 -40 37 -70 37c-31.333 0 -60.333 -11.667 -87 -35s-53.667 -56 -81 -98l-5 -20c-8.66699 -36 -13 -62 -13 -78c0 -5.33301 0.666992 -10 2 -14h-110c7.33301 9.33301 13.333 20 18 32s10.334 32 17.001 60l25 103
c7.33301 30.667 16.333 58.667 27 84l-3 2c-46.667 -30.667 -97.667 -55.334 -153 -74.001c-13.333 -55.333 -20 -110 -20 -164c0 -10 0.666992 -23.667 2 -41c18 -24 44.667 -43.333 80 -58s76.666 -22 123.999 -22c48 0 93.167 8.33301 135.5 25s88.5 43 138.5 79
c-49.333 -54 -98.5 -96.833 -147.5 -128.5s-102.833 -47.5 -161.5 -47.5c-55.333 0 -105.333 14.333 -150 43s-77.667 67.667 -99 117c-4.66699 28 -7 52.667 -7 74c0 36 3.33301 69.667 10 101c-18.667 -1.33301 -31.667 -2 -39 -2c-36.667 0 -64.167 6.83301 -82.5 20.5
s-27.5 32.834 -27.5 57.501c0 20 4.83301 39.5 14.5 58.5s22.667 34.333 39 46s34.166 17.5 53.499 17.5c17.333 0 30.666 -4.66699 39.999 -14s14 -21.333 14 -36c0 -6 -0.333008 -10.667 -1 -14c-7.33301 13.333 -17.666 20 -30.999 20s-24.333 -5.16699 -33 -15.5
s-13 -21.5 -13 -33.5s5.33301 -21.167 16 -27.5s26.334 -9.5 47.001 -9.5c8.66699 0 15.334 0.333008 20.001 1c18.667 58 45.167 111 79.5 159s74.833 86.167 121.5 114.5s96.667 42.5 150 42.5c28 0 62.667 -5 104 -15c21.333 -4.66699 39.5 -8.16699 54.5 -10.5
s30.833 -3.5 47.5 -3.5c40 0 82.333 8.33301 127 25c-18 -32 -39 -56.167 -63 -72.5s-54 -24.5 -90 -24.5c-15.333 0 -31.833 1.5 -49.5 4.5s-34.5 6.5 -50.5 10.5c-14.667 3.33301 -29.834 6.5 -45.501 9.5s-29.834 4.5 -42.501 4.5c-53.333 0 -100.666 -20 -141.999 -60z
M451.999 917.998h96l51 -158h-40z" />
    <glyph glyph-name="Eacute" unicode="&#xc9;" horiz-adv-x="766" 
d="M400 578c-41.333 -40 -74.667 -92.6689 -100 -158.002c35.333 14.667 71.666 33.834 108.999 57.501s73 51.167 107 82.5h32l-49 -198h4c17.333 26.667 38.333 48.5 63 65.5s49 25.5 73 25.5c22.667 0 40.334 -7.66699 53.001 -23s19 -35.666 19 -60.999
c0 -9.33301 -0.333008 -16.333 -1 -21c-16.667 24.667 -40 37 -70 37c-31.333 0 -60.333 -11.667 -87 -35s-53.667 -56 -81 -98l-5 -20c-8.66699 -36 -13 -62 -13 -78c0 -5.33301 0.666992 -10 2 -14h-110c7.33301 9.33301 13.333 20 18 32s10.334 32 17.001 60l25 103
c7.33301 30.667 16.333 58.667 27 84l-3 2c-46.667 -30.667 -97.667 -55.334 -153 -74.001c-13.333 -55.333 -20 -110 -20 -164c0 -10 0.666992 -23.667 2 -41c18 -24 44.667 -43.333 80 -58s76.666 -22 123.999 -22c48 0 93.167 8.33301 135.5 25s88.5 43 138.5 79
c-49.333 -54 -98.5 -96.833 -147.5 -128.5s-102.833 -47.5 -161.5 -47.5c-55.333 0 -105.333 14.333 -150 43s-77.667 67.667 -99 117c-4.66699 28 -7 52.667 -7 74c0 36 3.33301 69.667 10 101c-18.667 -1.33301 -31.667 -2 -39 -2c-36.667 0 -64.167 6.83301 -82.5 20.5
s-27.5 32.834 -27.5 57.501c0 20 4.83301 39.5 14.5 58.5s22.667 34.333 39 46s34.166 17.5 53.499 17.5c17.333 0 30.666 -4.66699 39.999 -14s14 -21.333 14 -36c0 -6 -0.333008 -10.667 -1 -14c-7.33301 13.333 -17.666 20 -30.999 20s-24.333 -5.16699 -33 -15.5
s-13 -21.5 -13 -33.5s5.33301 -21.167 16 -27.5s26.334 -9.5 47.001 -9.5c8.66699 0 15.334 0.333008 20.001 1c18.667 58 45.167 111 79.5 159s74.833 86.167 121.5 114.5s96.667 42.5 150 42.5c28 0 62.667 -5 104 -15c21.333 -4.66699 39.5 -8.16699 54.5 -10.5
s30.833 -3.5 47.5 -3.5c40 0 82.333 8.33301 127 25c-18 -32 -39 -56.167 -63 -72.5s-54 -24.5 -90 -24.5c-15.333 0 -31.833 1.5 -49.5 4.5s-34.5 6.5 -50.5 10.5c-14.667 3.33301 -29.834 6.5 -45.501 9.5s-29.834 4.5 -42.501 4.5c-53.333 0 -100.666 -20 -141.999 -60z
M569.999 917.998h96l-107 -158h-40z" />
    <glyph glyph-name="Ecircumflex" unicode="&#xca;" horiz-adv-x="766" 
d="M400 578c-41.333 -40 -74.667 -92.6689 -100 -158.002c35.333 14.667 71.666 33.834 108.999 57.501s73 51.167 107 82.5h32l-49 -198h4c17.333 26.667 38.333 48.5 63 65.5s49 25.5 73 25.5c22.667 0 40.334 -7.66699 53.001 -23s19 -35.666 19 -60.999
c0 -9.33301 -0.333008 -16.333 -1 -21c-16.667 24.667 -40 37 -70 37c-31.333 0 -60.333 -11.667 -87 -35s-53.667 -56 -81 -98l-5 -20c-8.66699 -36 -13 -62 -13 -78c0 -5.33301 0.666992 -10 2 -14h-110c7.33301 9.33301 13.333 20 18 32s10.334 32 17.001 60l25 103
c7.33301 30.667 16.333 58.667 27 84l-3 2c-46.667 -30.667 -97.667 -55.334 -153 -74.001c-13.333 -55.333 -20 -110 -20 -164c0 -10 0.666992 -23.667 2 -41c18 -24 44.667 -43.333 80 -58s76.666 -22 123.999 -22c48 0 93.167 8.33301 135.5 25s88.5 43 138.5 79
c-49.333 -54 -98.5 -96.833 -147.5 -128.5s-102.833 -47.5 -161.5 -47.5c-55.333 0 -105.333 14.333 -150 43s-77.667 67.667 -99 117c-4.66699 28 -7 52.667 -7 74c0 36 3.33301 69.667 10 101c-18.667 -1.33301 -31.667 -2 -39 -2c-36.667 0 -64.167 6.83301 -82.5 20.5
s-27.5 32.834 -27.5 57.501c0 20 4.83301 39.5 14.5 58.5s22.667 34.333 39 46s34.166 17.5 53.499 17.5c17.333 0 30.666 -4.66699 39.999 -14s14 -21.333 14 -36c0 -6 -0.333008 -10.667 -1 -14c-7.33301 13.333 -17.666 20 -30.999 20s-24.333 -5.16699 -33 -15.5
s-13 -21.5 -13 -33.5s5.33301 -21.167 16 -27.5s26.334 -9.5 47.001 -9.5c8.66699 0 15.334 0.333008 20.001 1c18.667 58 45.167 111 79.5 159s74.833 86.167 121.5 114.5s96.667 42.5 150 42.5c28 0 62.667 -5 104 -15c21.333 -4.66699 39.5 -8.16699 54.5 -10.5
s30.833 -3.5 47.5 -3.5c40 0 82.333 8.33301 127 25c-18 -32 -39 -56.167 -63 -72.5s-54 -24.5 -90 -24.5c-15.333 0 -31.833 1.5 -49.5 4.5s-34.5 6.5 -50.5 10.5c-14.667 3.33301 -29.834 6.5 -45.501 9.5s-29.834 4.5 -42.501 4.5c-53.333 0 -100.666 -20 -141.999 -60z
M569.999 897.998h80l64 -148l-119 88l-161 -88z" />
    <glyph glyph-name="Edieresis" unicode="&#xcb;" horiz-adv-x="766" 
d="M400 578c-41.333 -40 -74.667 -92.6689 -100 -158.002c35.333 14.667 71.666 33.834 108.999 57.501s73 51.167 107 82.5h32l-49 -198h4c17.333 26.667 38.333 48.5 63 65.5s49 25.5 73 25.5c22.667 0 40.334 -7.66699 53.001 -23s19 -35.666 19 -60.999
c0 -9.33301 -0.333008 -16.333 -1 -21c-16.667 24.667 -40 37 -70 37c-31.333 0 -60.333 -11.667 -87 -35s-53.667 -56 -81 -98l-5 -20c-8.66699 -36 -13 -62 -13 -78c0 -5.33301 0.666992 -10 2 -14h-110c7.33301 9.33301 13.333 20 18 32s10.334 32 17.001 60l25 103
c7.33301 30.667 16.333 58.667 27 84l-3 2c-46.667 -30.667 -97.667 -55.334 -153 -74.001c-13.333 -55.333 -20 -110 -20 -164c0 -10 0.666992 -23.667 2 -41c18 -24 44.667 -43.333 80 -58s76.666 -22 123.999 -22c48 0 93.167 8.33301 135.5 25s88.5 43 138.5 79
c-49.333 -54 -98.5 -96.833 -147.5 -128.5s-102.833 -47.5 -161.5 -47.5c-55.333 0 -105.333 14.333 -150 43s-77.667 67.667 -99 117c-4.66699 28 -7 52.667 -7 74c0 36 3.33301 69.667 10 101c-18.667 -1.33301 -31.667 -2 -39 -2c-36.667 0 -64.167 6.83301 -82.5 20.5
s-27.5 32.834 -27.5 57.501c0 20 4.83301 39.5 14.5 58.5s22.667 34.333 39 46s34.166 17.5 53.499 17.5c17.333 0 30.666 -4.66699 39.999 -14s14 -21.333 14 -36c0 -6 -0.333008 -10.667 -1 -14c-7.33301 13.333 -17.666 20 -30.999 20s-24.333 -5.16699 -33 -15.5
s-13 -21.5 -13 -33.5s5.33301 -21.167 16 -27.5s26.334 -9.5 47.001 -9.5c8.66699 0 15.334 0.333008 20.001 1c18.667 58 45.167 111 79.5 159s74.833 86.167 121.5 114.5s96.667 42.5 150 42.5c28 0 62.667 -5 104 -15c21.333 -4.66699 39.5 -8.16699 54.5 -10.5
s30.833 -3.5 47.5 -3.5c40 0 82.333 8.33301 127 25c-18 -32 -39 -56.167 -63 -72.5s-54 -24.5 -90 -24.5c-15.333 0 -31.833 1.5 -49.5 4.5s-34.5 6.5 -50.5 10.5c-14.667 3.33301 -29.834 6.5 -45.501 9.5s-29.834 4.5 -42.501 4.5c-53.333 0 -100.666 -20 -141.999 -60z
M458.499 759.998c-7.66699 6.66699 -11.499 15.666 -11.499 26.999c0 18.667 6.66699 34.834 20 48.501s29.666 20.5 48.999 20.5c12.667 0 22.667 -3.33301 30 -10s11 -16 11 -28c0 -19.333 -6.5 -35.5 -19.5 -48.5s-28.833 -19.5 -47.5 -19.5
c-13.333 0 -23.833 3.33301 -31.5 10zM624.5 759.997c-7.66699 6.66699 -11.499 15.666 -11.499 26.999c0 18.667 6.66699 34.834 20 48.501s29.666 20.5 48.999 20.5c12.667 0 22.667 -3.33301 30 -10s11 -16 11 -28c0 -19.333 -6.5 -35.5 -19.5 -48.5
s-28.833 -19.5 -47.5 -19.5c-13.333 0 -23.833 3.33301 -31.5 10z" />
    <glyph glyph-name="Igrave" unicode="&#xcc;" horiz-adv-x="541" 
d="M561 116c-21.333 30.667 -52.001 56.667 -92.001 78c-25.333 -63.333 -65.166 -113.166 -119.499 -149.499s-117.166 -54.5 -188.499 -54.5c-42.667 0 -79.667 6.83301 -111 20.5s-52.666 32.167 -63.999 55.5c-2 7.33301 -3 15.333 -3 24
c0 45.333 11.333 85.166 34 119.499s54 60.666 94 78.999s85 27.5 135 27.5c59.333 0 113 -12.333 161 -37l50 202c7.33301 30.667 16.333 58.667 27 84l-3 2c-51.333 -33.333 -95.333 -57.5 -132 -72.5s-73.334 -22.5 -110.001 -22.5s-64.167 6.83301 -82.5 20.5
s-27.5 32.834 -27.5 57.501c0 20 4.83301 39.5 14.5 58.5s22.667 34.333 39 46s34.166 17.5 53.499 17.5c17.333 0 30.666 -4.66699 39.999 -14s14 -21.333 14 -36c0 -6 -0.333008 -10.667 -1 -14c-7.33301 13.333 -17.666 20 -30.999 20c-12.667 0 -23.5 -4.5 -32.5 -13.5
s-13.5 -20.833 -13.5 -35.5c0 -12 5.16699 -21.167 15.5 -27.5s25.833 -9.5 46.5 -9.5c41.333 0 85.5 13.5 132.5 40.5s100.5 68.167 160.5 123.5h32l-116 -467l-3 -11c34 -32 61 -69.333 81 -112zM311.499 105.5c39 29 66.168 68.833 81.501 119.5
c-43.333 12.667 -87 19 -131 19c-60.667 0 -107.334 -12.5 -140.001 -37.5s-49 -63.5 -49 -115.5c6 -8.66699 18.333 -15.667 37 -21s39.667 -8 63 -8c53.333 0 99.5 14.5 138.5 43.5zM280 918h96l51 -158h-40z" />
    <glyph glyph-name="Iacute" unicode="&#xcd;" horiz-adv-x="541" 
d="M561 116c-21.333 30.667 -52.001 56.667 -92.001 78c-25.333 -63.333 -65.166 -113.166 -119.499 -149.499s-117.166 -54.5 -188.499 -54.5c-42.667 0 -79.667 6.83301 -111 20.5s-52.666 32.167 -63.999 55.5c-2 7.33301 -3 15.333 -3 24
c0 45.333 11.333 85.166 34 119.499s54 60.666 94 78.999s85 27.5 135 27.5c59.333 0 113 -12.333 161 -37l50 202c7.33301 30.667 16.333 58.667 27 84l-3 2c-51.333 -33.333 -95.333 -57.5 -132 -72.5s-73.334 -22.5 -110.001 -22.5s-64.167 6.83301 -82.5 20.5
s-27.5 32.834 -27.5 57.501c0 20 4.83301 39.5 14.5 58.5s22.667 34.333 39 46s34.166 17.5 53.499 17.5c17.333 0 30.666 -4.66699 39.999 -14s14 -21.333 14 -36c0 -6 -0.333008 -10.667 -1 -14c-7.33301 13.333 -17.666 20 -30.999 20c-12.667 0 -23.5 -4.5 -32.5 -13.5
s-13.5 -20.833 -13.5 -35.5c0 -12 5.16699 -21.167 15.5 -27.5s25.833 -9.5 46.5 -9.5c41.333 0 85.5 13.5 132.5 40.5s100.5 68.167 160.5 123.5h32l-116 -467l-3 -11c34 -32 61 -69.333 81 -112zM311.499 105.5c39 29 66.168 68.833 81.501 119.5
c-43.333 12.667 -87 19 -131 19c-60.667 0 -107.334 -12.5 -140.001 -37.5s-49 -63.5 -49 -115.5c6 -8.66699 18.333 -15.667 37 -21s39.667 -8 63 -8c53.333 0 99.5 14.5 138.5 43.5zM398 918h96l-107 -158h-40z" />
    <glyph glyph-name="Icircumflex" unicode="&#xce;" horiz-adv-x="541" 
d="M561 116c-21.333 30.667 -52.001 56.667 -92.001 78c-25.333 -63.333 -65.166 -113.166 -119.499 -149.499s-117.166 -54.5 -188.499 -54.5c-42.667 0 -79.667 6.83301 -111 20.5s-52.666 32.167 -63.999 55.5c-2 7.33301 -3 15.333 -3 24
c0 45.333 11.333 85.166 34 119.499s54 60.666 94 78.999s85 27.5 135 27.5c59.333 0 113 -12.333 161 -37l50 202c7.33301 30.667 16.333 58.667 27 84l-3 2c-51.333 -33.333 -95.333 -57.5 -132 -72.5s-73.334 -22.5 -110.001 -22.5s-64.167 6.83301 -82.5 20.5
s-27.5 32.834 -27.5 57.501c0 20 4.83301 39.5 14.5 58.5s22.667 34.333 39 46s34.166 17.5 53.499 17.5c17.333 0 30.666 -4.66699 39.999 -14s14 -21.333 14 -36c0 -6 -0.333008 -10.667 -1 -14c-7.33301 13.333 -17.666 20 -30.999 20c-12.667 0 -23.5 -4.5 -32.5 -13.5
s-13.5 -20.833 -13.5 -35.5c0 -12 5.16699 -21.167 15.5 -27.5s25.833 -9.5 46.5 -9.5c41.333 0 85.5 13.5 132.5 40.5s100.5 68.167 160.5 123.5h32l-116 -467l-3 -11c34 -32 61 -69.333 81 -112zM311.499 105.5c39 29 66.168 68.833 81.501 119.5
c-43.333 12.667 -87 19 -131 19c-60.667 0 -107.334 -12.5 -140.001 -37.5s-49 -63.5 -49 -115.5c6 -8.66699 18.333 -15.667 37 -21s39.667 -8 63 -8c53.333 0 99.5 14.5 138.5 43.5zM398 898h80l64 -148l-119 88l-161 -88z" />
    <glyph glyph-name="Idieresis" unicode="&#xcf;" horiz-adv-x="541" 
d="M561 116c-21.333 30.667 -52.001 56.667 -92.001 78c-25.333 -63.333 -65.166 -113.166 -119.499 -149.499s-117.166 -54.5 -188.499 -54.5c-42.667 0 -79.667 6.83301 -111 20.5s-52.666 32.167 -63.999 55.5c-2 7.33301 -3 15.333 -3 24
c0 45.333 11.333 85.166 34 119.499s54 60.666 94 78.999s85 27.5 135 27.5c59.333 0 113 -12.333 161 -37l50 202c7.33301 30.667 16.333 58.667 27 84l-3 2c-51.333 -33.333 -95.333 -57.5 -132 -72.5s-73.334 -22.5 -110.001 -22.5s-64.167 6.83301 -82.5 20.5
s-27.5 32.834 -27.5 57.501c0 20 4.83301 39.5 14.5 58.5s22.667 34.333 39 46s34.166 17.5 53.499 17.5c17.333 0 30.666 -4.66699 39.999 -14s14 -21.333 14 -36c0 -6 -0.333008 -10.667 -1 -14c-7.33301 13.333 -17.666 20 -30.999 20c-12.667 0 -23.5 -4.5 -32.5 -13.5
s-13.5 -20.833 -13.5 -35.5c0 -12 5.16699 -21.167 15.5 -27.5s25.833 -9.5 46.5 -9.5c41.333 0 85.5 13.5 132.5 40.5s100.5 68.167 160.5 123.5h32l-116 -467l-3 -11c34 -32 61 -69.333 81 -112zM311.499 105.5c39 29 66.168 68.833 81.501 119.5
c-43.333 12.667 -87 19 -131 19c-60.667 0 -107.334 -12.5 -140.001 -37.5s-49 -63.5 -49 -115.5c6 -8.66699 18.333 -15.667 37 -21s39.667 -8 63 -8c53.333 0 99.5 14.5 138.5 43.5zM286.5 760c-7.66699 6.66699 -11.499 15.666 -11.499 26.999
c0 18.667 6.66699 34.834 20 48.501s29.666 20.5 48.999 20.5c12.667 0 22.667 -3.33301 30 -10s11 -16 11 -28c0 -19.333 -6.5 -35.5 -19.5 -48.5s-28.833 -19.5 -47.5 -19.5c-13.333 0 -23.833 3.33301 -31.5 10zM452.501 759.999
c-7.66699 6.66699 -11.499 15.666 -11.499 26.999c0 18.667 6.66699 34.834 20 48.501s29.666 20.5 48.999 20.5c12.667 0 22.667 -3.33301 30 -10s11 -16 11 -28c0 -19.333 -6.5 -35.5 -19.5 -48.5s-28.833 -19.5 -47.5 -19.5c-13.333 0 -23.833 3.33301 -31.5 10z" />
    <glyph glyph-name="Eth" unicode="&#xd0;" horiz-adv-x="837" 
d="M849 486c0 -82.667 -20.834 -162.337 -62.501 -239.004s-97.334 -138.667 -167.001 -186s-144.834 -71 -225.501 -71c-62 0 -111 13.333 -147 40s-62.667 65.334 -80 116.001c22.667 -24.667 55.334 -44.834 98.001 -60.501s85.334 -23.5 128.001 -23.5
c66.667 0 127.667 20.333 183 61s99 93.334 131 158.001s48 131.667 48 201c0 28 -3.33301 58.667 -10 92c-50.667 42.667 -115 64 -193 64c-50 0 -96.167 -9.16699 -138.5 -27.5s-76.5 -44.166 -102.5 -77.499s-40.333 -71.666 -43 -114.999
c58.667 24.667 125.334 72 200.001 142h32l-69 -278h142l-15 -60h-142c-6.66699 -30 -10 -51.667 -10 -65c0 -4.66699 0.666992 -9.66699 2 -15h-110c6.66699 8.66699 12.167 18.167 16.5 28.5s9.5 27.5 15.5 51.5h-181l14 60h169c-43.333 10 -76.333 30.333 -99 61
c-34 -11.333 -67 -17 -99 -17c-36.667 0 -64.167 6.83301 -82.5 20.5s-27.5 32.834 -27.5 57.501c0 20 4.83301 39.5 14.5 58.5s22.667 34.333 39 46s34.166 17.5 53.499 17.5c17.333 0 30.666 -4.66699 39.999 -14s14 -21.333 14 -36c0 -6 -0.333008 -10.667 -1 -14
c-7.33301 13.333 -17.666 20 -30.999 20c-12.667 0 -23.5 -4.5 -32.5 -13.5s-13.5 -20.833 -13.5 -35.5c0 -12 5.16699 -21.167 15.5 -27.5s25.833 -9.5 46.5 -9.5c14.667 0 28.334 1.33301 41.001 4c-2 10 -3 20.333 -3 31c0 53.333 16 101.333 48 144
s74.333 75.834 127 99.501s109 35.5 169 35.5c66 0 124.333 -12.833 175 -38.5s88 -60.834 112 -105.501c7.33301 -27.333 11 -54 11 -80zM381.999 420.997c-38 -25.333 -73.333 -45.667 -106 -61c10.667 -30 33.667 -55.667 69 -77l13 52
c7.33301 30.667 16.333 58.667 27 84z" />
    <glyph glyph-name="Ntilde" unicode="&#xd1;" horiz-adv-x="850" 
d="M685 347c-14 -58 -20.998 -107.337 -20.998 -148.004c0 -44.667 8.16699 -78.667 24.5 -102s39.833 -35 70.5 -35c34 0 66.333 13.333 97 40c-20.667 -36 -44.667 -63.667 -72 -83s-56.333 -29 -87 -29c-40 0 -71.333 16.667 -94 50s-34 80 -34 140
c0 47.333 7.33301 100.333 22 159c21.333 84.667 51 156.334 89 215.001l-35 21c-32.667 20.667 -61.667 36.334 -87 47.001s-55 16 -89 16c-57.333 0 -102.333 -19.667 -135 -59s-50 -89.666 -52 -150.999c44.667 24.667 101.334 68.667 170.001 132h32l-59 -240
c42 8 81 25.333 117 52c-20.667 -32 -41.834 -57.667 -63.501 -77s-45.167 -33 -70.5 -41l-40 -162c-8.66699 -36 -13 -62 -13 -78c0 -5.33301 0.666992 -10 2 -14h-112c7.33301 9.33301 13.333 20 18 32s10.334 32 17.001 60l39 157c-54.667 9.33301 -90.667 39 -108 89
c-25.333 -8 -51 -12 -77 -12c-36.667 0 -64.167 6.83301 -82.5 20.5s-27.5 32.834 -27.5 57.501c0 20 4.83301 39.5 14.5 58.5s22.667 34.333 39 46s34.166 17.5 53.499 17.5c17.333 0 30.666 -4.66699 39.999 -14s14 -21.333 14 -36c0 -6 -0.333008 -10.667 -1 -14
c-7.33301 13.333 -17.666 20 -30.999 20c-12.667 0 -23.5 -4.5 -32.5 -13.5s-13.5 -20.833 -13.5 -35.5c0 -12 5.16699 -21.167 15.5 -27.5s25.833 -9.5 46.5 -9.5c11.333 0 22.333 1 33 3v2c0 55.333 12.167 106.666 36.5 153.999s58.166 85 101.499 113s92.333 42 147 42
c40.667 0 75 -6.5 103 -19.5s58.667 -31.833 92 -56.5c16 -12 28.333 -20.667 37 -26c28 32.667 58.167 57.834 90.5 75.501s65.5 26.5 99.5 26.5c27.333 0 48.166 -5.66699 62.499 -17s21.5 -27 21.5 -47c0 -40 -16.5 -72 -49.5 -96s-73.5 -36 -121.5 -36
c-24 0 -47.667 3.33301 -71 10c-27.333 -52.667 -49.333 -111.667 -66 -177zM784.002 577.996c14 -4 29.333 -6 46 -6c28 0 49.667 5.66699 65 17s23 25 23 41c0 14.667 -9.66699 22 -29 22c-33.333 0 -68.333 -24.667 -105 -74zM364.002 420.996
c-24 -16 -49.333 -31.667 -76 -47c8 -25.333 24.333 -42.333 49 -51l3 12c7.33301 30.667 16.333 58.667 27 84zM783.002 865.996c-12 -38 -29.334 -66.833 -52.001 -86.5s-46.334 -29.5 -71.001 -29.5c-12 0 -22.5 2.16699 -31.5 6.5s-19.167 10.833 -30.5 19.5
c-10.667 8 -20.167 14 -28.5 18s-18.166 6 -29.499 6c-31.333 0 -62.666 -16.667 -93.999 -50c12 38 29.333 66.833 52 86.5s46.334 29.5 71.001 29.5c12 0 22.167 -2 30.5 -6s18.5 -10.333 30.5 -19c10 -8 19.333 -14.167 28 -18.5s19 -6.5 31 -6.5
c31.333 0 62.666 16.667 93.999 50z" />
    <glyph glyph-name="Ograve" unicode="&#xd2;" horiz-adv-x="774" 
d="M173 23c-38.667 22 -71.3311 51.332 -97.998 87.999c-11.333 37.333 -17 78.666 -17 123.999c0 101.333 29.167 189.5 87.5 264.5s138.833 135.833 241.5 182.5c-72.667 -54 -130.334 -121 -173.001 -201s-64 -163.333 -64 -250c0 -26 2.33301 -56.667 7 -92
c50 -50 112.333 -75 187 -75c68.667 0 128.334 18.833 179.001 56.5s89.5 88.334 116.5 152.001s40.5 134.167 40.5 211.5c0 29.333 -1.66699 59 -5 89c-18 20.667 -38 37 -60 49s-45 18 -69 18c-27.333 0 -51 -8.5 -71 -25.5s-35.333 -39 -46 -66s-16 -54.833 -16 -83.5
c0 -29.333 7 -55.666 21 -78.999s35.333 -42.666 64 -57.999c-48.667 6 -88.334 24.333 -119.001 55s-46 68.667 -46 114c0 39.333 10 75.166 30 107.499s47 58 81 77s71.333 28.5 112 28.5c82 0 150 -40.333 204 -121c8.66699 -36.667 13 -74 13 -112
c0 -88.667 -19 -170.167 -57 -244.5s-91.167 -133.333 -159.5 -177s-145.5 -65.5 -231.5 -65.5c-62.667 0 -113.334 11 -152.001 33zM396.003 917.999h96l51 -158h-40z" />
    <glyph glyph-name="Oacute" unicode="&#xd3;" horiz-adv-x="774" 
d="M173 23c-38.667 22 -71.3311 51.332 -97.998 87.999c-11.333 37.333 -17 78.666 -17 123.999c0 101.333 29.167 189.5 87.5 264.5s138.833 135.833 241.5 182.5c-72.667 -54 -130.334 -121 -173.001 -201s-64 -163.333 -64 -250c0 -26 2.33301 -56.667 7 -92
c50 -50 112.333 -75 187 -75c68.667 0 128.334 18.833 179.001 56.5s89.5 88.334 116.5 152.001s40.5 134.167 40.5 211.5c0 29.333 -1.66699 59 -5 89c-18 20.667 -38 37 -60 49s-45 18 -69 18c-27.333 0 -51 -8.5 -71 -25.5s-35.333 -39 -46 -66s-16 -54.833 -16 -83.5
c0 -29.333 7 -55.666 21 -78.999s35.333 -42.666 64 -57.999c-48.667 6 -88.334 24.333 -119.001 55s-46 68.667 -46 114c0 39.333 10 75.166 30 107.499s47 58 81 77s71.333 28.5 112 28.5c82 0 150 -40.333 204 -121c8.66699 -36.667 13 -74 13 -112
c0 -88.667 -19 -170.167 -57 -244.5s-91.167 -133.333 -159.5 -177s-145.5 -65.5 -231.5 -65.5c-62.667 0 -113.334 11 -152.001 33zM514.003 917.999h96l-107 -158h-40z" />
    <glyph glyph-name="Ocircumflex" unicode="&#xd4;" horiz-adv-x="774" 
d="M173 23c-38.667 22 -71.3311 51.332 -97.998 87.999c-11.333 37.333 -17 78.666 -17 123.999c0 101.333 29.167 189.5 87.5 264.5s138.833 135.833 241.5 182.5c-72.667 -54 -130.334 -121 -173.001 -201s-64 -163.333 -64 -250c0 -26 2.33301 -56.667 7 -92
c50 -50 112.333 -75 187 -75c68.667 0 128.334 18.833 179.001 56.5s89.5 88.334 116.5 152.001s40.5 134.167 40.5 211.5c0 29.333 -1.66699 59 -5 89c-18 20.667 -38 37 -60 49s-45 18 -69 18c-27.333 0 -51 -8.5 -71 -25.5s-35.333 -39 -46 -66s-16 -54.833 -16 -83.5
c0 -29.333 7 -55.666 21 -78.999s35.333 -42.666 64 -57.999c-48.667 6 -88.334 24.333 -119.001 55s-46 68.667 -46 114c0 39.333 10 75.166 30 107.499s47 58 81 77s71.333 28.5 112 28.5c82 0 150 -40.333 204 -121c8.66699 -36.667 13 -74 13 -112
c0 -88.667 -19 -170.167 -57 -244.5s-91.167 -133.333 -159.5 -177s-145.5 -65.5 -231.5 -65.5c-62.667 0 -113.334 11 -152.001 33zM514.003 897.999h80l64 -148l-119 88l-161 -88z" />
    <glyph glyph-name="Otilde" unicode="&#xd5;" horiz-adv-x="774" 
d="M173 23c-38.667 22 -71.3311 51.332 -97.998 87.999c-11.333 37.333 -17 78.666 -17 123.999c0 101.333 29.167 189.5 87.5 264.5s138.833 135.833 241.5 182.5c-72.667 -54 -130.334 -121 -173.001 -201s-64 -163.333 -64 -250c0 -26 2.33301 -56.667 7 -92
c50 -50 112.333 -75 187 -75c68.667 0 128.334 18.833 179.001 56.5s89.5 88.334 116.5 152.001s40.5 134.167 40.5 211.5c0 29.333 -1.66699 59 -5 89c-18 20.667 -38 37 -60 49s-45 18 -69 18c-27.333 0 -51 -8.5 -71 -25.5s-35.333 -39 -46 -66s-16 -54.833 -16 -83.5
c0 -29.333 7 -55.666 21 -78.999s35.333 -42.666 64 -57.999c-48.667 6 -88.334 24.333 -119.001 55s-46 68.667 -46 114c0 39.333 10 75.166 30 107.499s47 58 81 77s71.333 28.5 112 28.5c82 0 150 -40.333 204 -121c8.66699 -36.667 13 -74 13 -112
c0 -88.667 -19 -170.167 -57 -244.5s-91.167 -133.333 -159.5 -177s-145.5 -65.5 -231.5 -65.5c-62.667 0 -113.334 11 -152.001 33zM695.003 865.999c-12 -38 -29.334 -66.833 -52.001 -86.5s-46.334 -29.5 -71.001 -29.5c-12 0 -22.5 2.16699 -31.5 6.5
s-19.167 10.833 -30.5 19.5c-10.667 8 -20.167 14 -28.5 18s-18.166 6 -29.499 6c-31.333 0 -62.666 -16.667 -93.999 -50c12 38 29.333 66.833 52 86.5s46.334 29.5 71.001 29.5c12 0 22.167 -2 30.5 -6s18.5 -10.333 30.5 -19c10 -8 19.333 -14.167 28 -18.5
s19 -6.5 31 -6.5c31.333 0 62.666 16.667 93.999 50z" />
    <glyph glyph-name="Odieresis" unicode="&#xd6;" horiz-adv-x="774" 
d="M173 23c-38.667 22 -71.3311 51.332 -97.998 87.999c-11.333 37.333 -17 78.666 -17 123.999c0 101.333 29.167 189.5 87.5 264.5s138.833 135.833 241.5 182.5c-72.667 -54 -130.334 -121 -173.001 -201s-64 -163.333 -64 -250c0 -26 2.33301 -56.667 7 -92
c50 -50 112.333 -75 187 -75c68.667 0 128.334 18.833 179.001 56.5s89.5 88.334 116.5 152.001s40.5 134.167 40.5 211.5c0 29.333 -1.66699 59 -5 89c-18 20.667 -38 37 -60 49s-45 18 -69 18c-27.333 0 -51 -8.5 -71 -25.5s-35.333 -39 -46 -66s-16 -54.833 -16 -83.5
c0 -29.333 7 -55.666 21 -78.999s35.333 -42.666 64 -57.999c-48.667 6 -88.334 24.333 -119.001 55s-46 68.667 -46 114c0 39.333 10 75.166 30 107.499s47 58 81 77s71.333 28.5 112 28.5c82 0 150 -40.333 204 -121c8.66699 -36.667 13 -74 13 -112
c0 -88.667 -19 -170.167 -57 -244.5s-91.167 -133.333 -159.5 -177s-145.5 -65.5 -231.5 -65.5c-62.667 0 -113.334 11 -152.001 33zM402.503 759.999c-7.66699 6.66699 -11.499 15.666 -11.499 26.999c0 18.667 6.66699 34.834 20 48.501s29.666 20.5 48.999 20.5
c12.667 0 22.667 -3.33301 30 -10s11 -16 11 -28c0 -19.333 -6.5 -35.5 -19.5 -48.5s-28.833 -19.5 -47.5 -19.5c-13.333 0 -23.833 3.33301 -31.5 10zM568.504 759.998c-7.66699 6.66699 -11.499 15.666 -11.499 26.999c0 18.667 6.66699 34.834 20 48.501
s29.666 20.5 48.999 20.5c12.667 0 22.667 -3.33301 30 -10s11 -16 11 -28c0 -19.333 -6.5 -35.5 -19.5 -48.5s-28.833 -19.5 -47.5 -19.5c-13.333 0 -23.833 3.33301 -31.5 10z" />
    <glyph glyph-name="multiply" unicode="&#xd7;" horiz-adv-x="469" 
d="M21 156l182 146l-110 146l60 48l110 -146l182 146l36 -48l-182 -146l110 -146l-60 -48l-110 146l-182 -146z" />
    <glyph glyph-name="Oslash" unicode="&#xd8;" horiz-adv-x="774" 
d="M773 477c0 -88.667 -18.9971 -170.164 -56.9971 -244.497s-91.167 -133.333 -159.5 -177s-145.5 -65.5 -231.5 -65.5c-48.667 0 -91.334 7.33301 -128.001 22l-14 -19c-23.333 -30.667 -60 -48.334 -110 -53.001l73 99c-25.333 17.333 -49 41.333 -71 72
c-11.333 37.333 -17 78.666 -17 123.999c0 101.333 29.167 189.5 87.5 264.5s138.833 135.833 241.5 182.5c-72.667 -54 -130.334 -121 -173.001 -201s-64 -163.333 -64 -250c0 -26 2.33301 -56.667 7 -92c13.333 -13.333 26.666 -24 39.999 -32l195 264
c-18.667 15.333 -33.167 33.833 -43.5 55.5s-15.5 45.167 -15.5 70.5c0 39.333 10 75.166 30 107.499s47 58 81 77s71.333 28.5 112 28.5c26 0 52 -4.33301 78 -13c28 37.333 67.667 58.333 119 63l-68 -91c27.333 -20 52.333 -46.667 75 -80
c8.66699 -36.667 13 -74 13 -112zM422.003 411.003l165 222c-12 4.66699 -25.667 7 -41 7c-27.333 0 -51 -8.5 -71 -25.5s-35.333 -39 -46 -66s-16 -54.833 -16 -83.5c0 -18.667 3 -36.667 9 -54zM523.003 120.503c50.667 37.667 89.499 88.333 116.499 152
s40.5 134.167 40.5 211.5c0 29.333 -1.66699 59 -5 89c-13.333 14.667 -25.333 25.667 -36 33l-184 -247c14 -12.667 28.333 -23 43 -31c-18 2 -36.667 6.66699 -56 14l-194 -262c30 -10.667 62 -16 96 -16c68.667 0 128.334 18.833 179.001 56.5z" />
    <glyph glyph-name="Ugrave" unicode="&#xd9;" horiz-adv-x="719" 
d="M625 92c-8.66699 -36 -13.001 -61.9971 -13.001 -77.9971c0 -5.33301 0.666992 -10 2 -14h-112c7.33301 9.33301 13.333 20 18 32s10.334 32 17.001 60l1 4h-3c-70.667 -70.667 -142.667 -106 -216 -106c-40 0 -76.833 10.167 -110.5 30.5s-58.167 49.166 -73.5 86.499
c-5.33301 34 -8 64.333 -8 91c0 39.333 5.33301 80.333 16 123c-24.667 10 -44 25.167 -58 45.5s-21 43.833 -21 70.5c0 61.333 27.833 112.5 83.5 153.5s124.167 68.833 205.5 83.5c18.667 3.33301 34.5 6.66602 47.5 9.99902s28.5 8.66602 46.5 15.999h32
c-60.667 -64.667 -109 -122 -145 -172s-63.667 -101 -83 -153h16c57.333 0 107.333 18 150 54c-21.333 -37.333 -47.833 -66.5 -79.5 -87.5s-67.5 -32.5 -107.5 -34.5c-12 -52 -18 -109.667 -18 -173c31.333 -46.667 74.333 -70 129 -70c70.667 0 142.667 36 216 108l65 263
c10 36.667 19 64.667 27 84l-3 2c-16.667 -17.333 -36.5 -30.833 -59.5 -40.5s-46.833 -14.5 -71.5 -14.5c-30.667 0 -54.667 7.33301 -72 22s-26 34 -26 58c0 20 4.83301 39.333 14.5 58s22.5 33.667 38.5 45s33.667 17 53 17c17.333 0 30.666 -4.66699 39.999 -14
s14 -21.333 14 -36c0 -6 -0.333008 -10.667 -1 -14c-7.33301 13.333 -17.666 20 -30.999 20s-24.333 -5.16699 -33 -15.5s-13 -21.5 -13 -33.5c0 -11.333 4.5 -20.333 13.5 -27s20.5 -10 34.5 -10c27.333 0 57 13.333 89 40s68.333 68 109 124h32zM170.999 400.003
c29.333 65.333 73.667 133.333 133 204c-46.667 -11.333 -85.5 -30 -116.5 -56s-46.5 -56.333 -46.5 -91c0 -23.333 10 -42.333 30 -57zM469 918.003h96l51 -158h-40z" />
    <glyph glyph-name="Uacute" unicode="&#xda;" horiz-adv-x="719" 
d="M625 92c-8.66699 -36 -13.001 -61.9971 -13.001 -77.9971c0 -5.33301 0.666992 -10 2 -14h-112c7.33301 9.33301 13.333 20 18 32s10.334 32 17.001 60l1 4h-3c-70.667 -70.667 -142.667 -106 -216 -106c-40 0 -76.833 10.167 -110.5 30.5s-58.167 49.166 -73.5 86.499
c-5.33301 34 -8 64.333 -8 91c0 39.333 5.33301 80.333 16 123c-24.667 10 -44 25.167 -58 45.5s-21 43.833 -21 70.5c0 61.333 27.833 112.5 83.5 153.5s124.167 68.833 205.5 83.5c18.667 3.33301 34.5 6.66602 47.5 9.99902s28.5 8.66602 46.5 15.999h32
c-60.667 -64.667 -109 -122 -145 -172s-63.667 -101 -83 -153h16c57.333 0 107.333 18 150 54c-21.333 -37.333 -47.833 -66.5 -79.5 -87.5s-67.5 -32.5 -107.5 -34.5c-12 -52 -18 -109.667 -18 -173c31.333 -46.667 74.333 -70 129 -70c70.667 0 142.667 36 216 108l65 263
c10 36.667 19 64.667 27 84l-3 2c-16.667 -17.333 -36.5 -30.833 -59.5 -40.5s-46.833 -14.5 -71.5 -14.5c-30.667 0 -54.667 7.33301 -72 22s-26 34 -26 58c0 20 4.83301 39.333 14.5 58s22.5 33.667 38.5 45s33.667 17 53 17c17.333 0 30.666 -4.66699 39.999 -14
s14 -21.333 14 -36c0 -6 -0.333008 -10.667 -1 -14c-7.33301 13.333 -17.666 20 -30.999 20s-24.333 -5.16699 -33 -15.5s-13 -21.5 -13 -33.5c0 -11.333 4.5 -20.333 13.5 -27s20.5 -10 34.5 -10c27.333 0 57 13.333 89 40s68.333 68 109 124h32zM170.999 400.003
c29.333 65.333 73.667 133.333 133 204c-46.667 -11.333 -85.5 -30 -116.5 -56s-46.5 -56.333 -46.5 -91c0 -23.333 10 -42.333 30 -57zM587 918.003h96l-107 -158h-40z" />
    <glyph glyph-name="Ucircumflex" unicode="&#xdb;" horiz-adv-x="719" 
d="M625 92c-8.66699 -36 -13.001 -61.9971 -13.001 -77.9971c0 -5.33301 0.666992 -10 2 -14h-112c7.33301 9.33301 13.333 20 18 32s10.334 32 17.001 60l1 4h-3c-70.667 -70.667 -142.667 -106 -216 -106c-40 0 -76.833 10.167 -110.5 30.5s-58.167 49.166 -73.5 86.499
c-5.33301 34 -8 64.333 -8 91c0 39.333 5.33301 80.333 16 123c-24.667 10 -44 25.167 -58 45.5s-21 43.833 -21 70.5c0 61.333 27.833 112.5 83.5 153.5s124.167 68.833 205.5 83.5c18.667 3.33301 34.5 6.66602 47.5 9.99902s28.5 8.66602 46.5 15.999h32
c-60.667 -64.667 -109 -122 -145 -172s-63.667 -101 -83 -153h16c57.333 0 107.333 18 150 54c-21.333 -37.333 -47.833 -66.5 -79.5 -87.5s-67.5 -32.5 -107.5 -34.5c-12 -52 -18 -109.667 -18 -173c31.333 -46.667 74.333 -70 129 -70c70.667 0 142.667 36 216 108l65 263
c10 36.667 19 64.667 27 84l-3 2c-16.667 -17.333 -36.5 -30.833 -59.5 -40.5s-46.833 -14.5 -71.5 -14.5c-30.667 0 -54.667 7.33301 -72 22s-26 34 -26 58c0 20 4.83301 39.333 14.5 58s22.5 33.667 38.5 45s33.667 17 53 17c17.333 0 30.666 -4.66699 39.999 -14
s14 -21.333 14 -36c0 -6 -0.333008 -10.667 -1 -14c-7.33301 13.333 -17.666 20 -30.999 20s-24.333 -5.16699 -33 -15.5s-13 -21.5 -13 -33.5c0 -11.333 4.5 -20.333 13.5 -27s20.5 -10 34.5 -10c27.333 0 57 13.333 89 40s68.333 68 109 124h32zM170.999 400.003
c29.333 65.333 73.667 133.333 133 204c-46.667 -11.333 -85.5 -30 -116.5 -56s-46.5 -56.333 -46.5 -91c0 -23.333 10 -42.333 30 -57zM587 898.003h80l64 -148l-119 88l-161 -88z" />
    <glyph glyph-name="Udieresis" unicode="&#xdc;" horiz-adv-x="719" 
d="M625 92c-8.66699 -36 -13.001 -61.9971 -13.001 -77.9971c0 -5.33301 0.666992 -10 2 -14h-112c7.33301 9.33301 13.333 20 18 32s10.334 32 17.001 60l1 4h-3c-70.667 -70.667 -142.667 -106 -216 -106c-40 0 -76.833 10.167 -110.5 30.5s-58.167 49.166 -73.5 86.499
c-5.33301 34 -8 64.333 -8 91c0 39.333 5.33301 80.333 16 123c-24.667 10 -44 25.167 -58 45.5s-21 43.833 -21 70.5c0 61.333 27.833 112.5 83.5 153.5s124.167 68.833 205.5 83.5c18.667 3.33301 34.5 6.66602 47.5 9.99902s28.5 8.66602 46.5 15.999h32
c-60.667 -64.667 -109 -122 -145 -172s-63.667 -101 -83 -153h16c57.333 0 107.333 18 150 54c-21.333 -37.333 -47.833 -66.5 -79.5 -87.5s-67.5 -32.5 -107.5 -34.5c-12 -52 -18 -109.667 -18 -173c31.333 -46.667 74.333 -70 129 -70c70.667 0 142.667 36 216 108l65 263
c10 36.667 19 64.667 27 84l-3 2c-16.667 -17.333 -36.5 -30.833 -59.5 -40.5s-46.833 -14.5 -71.5 -14.5c-30.667 0 -54.667 7.33301 -72 22s-26 34 -26 58c0 20 4.83301 39.333 14.5 58s22.5 33.667 38.5 45s33.667 17 53 17c17.333 0 30.666 -4.66699 39.999 -14
s14 -21.333 14 -36c0 -6 -0.333008 -10.667 -1 -14c-7.33301 13.333 -17.666 20 -30.999 20s-24.333 -5.16699 -33 -15.5s-13 -21.5 -13 -33.5c0 -11.333 4.5 -20.333 13.5 -27s20.5 -10 34.5 -10c27.333 0 57 13.333 89 40s68.333 68 109 124h32zM170.999 400.003
c29.333 65.333 73.667 133.333 133 204c-46.667 -11.333 -85.5 -30 -116.5 -56s-46.5 -56.333 -46.5 -91c0 -23.333 10 -42.333 30 -57zM475.5 760.003c-7.66699 6.66699 -11.499 15.666 -11.499 26.999c0 18.667 6.66699 34.834 20 48.501s29.666 20.5 48.999 20.5
c12.667 0 22.667 -3.33301 30 -10s11 -16 11 -28c0 -19.333 -6.5 -35.5 -19.5 -48.5s-28.833 -19.5 -47.5 -19.5c-13.333 0 -23.833 3.33301 -31.5 10zM641.501 760.002c-7.66699 6.66699 -11.499 15.666 -11.499 26.999c0 18.667 6.66699 34.834 20 48.501
s29.666 20.5 48.999 20.5c12.667 0 22.667 -3.33301 30 -10s11 -16 11 -28c0 -19.333 -6.5 -35.5 -19.5 -48.5s-28.833 -19.5 -47.5 -19.5c-13.333 0 -23.833 3.33301 -31.5 10z" />
    <glyph glyph-name="Yacute" unicode="&#xdd;" horiz-adv-x="782" 
d="M787 469c-28.667 -79.333 -76.002 -156.003 -142.002 -230.003s-140.167 -134 -222.5 -180s-161.166 -69 -236.499 -69c-40.667 0 -76.667 6.16699 -108 18.5s-56.666 28.833 -75.999 49.5c-6 14 -9 28.333 -9 43c0 22.667 7.83301 44.334 23.5 65.001
s37.834 37.334 66.501 50.001s61.667 19 99 19c46.667 0 83.5 -10.333 110.5 -31s43.167 -49.667 48.5 -87c-54 34.667 -108.333 52 -163 52c-31.333 0 -55.833 -5.5 -73.5 -16.5s-26.5 -27.167 -26.5 -48.5c0 -7.33301 1 -14.666 3 -21.999c28.667 -16 63 -24 103 -24
c46.667 0 95.667 11.833 147 35.5s101 55.834 149 96.501c-27.333 71.333 -49 141.166 -65 209.499s-25 129.833 -27 184.5c-20.667 -30.667 -49 -55.667 -85 -75s-73.667 -29 -113 -29c-34 0 -60.5 7.5 -79.5 22.5s-28.5 35.5 -28.5 61.5c0 30.667 10.333 57.667 31 81
s45.334 35 74.001 35c17.333 0 30.666 -4.66699 39.999 -14s14 -21.333 14 -36c0 -6 -0.333008 -10.667 -1 -14c-6 13.333 -16.333 20 -31 20c-12.667 0 -23.334 -4.83301 -32.001 -14.5s-13 -21.167 -13 -34.5c0 -12 4.5 -21.167 13.5 -27.5s22.5 -9.5 40.5 -9.5
c32 0 65.5 11.667 100.5 35s73.167 61.666 114.5 114.999h32c4 -135.333 35.667 -279.666 95 -432.999c67.333 74.667 115 151 143 229c-64.667 28 -97 63.667 -97 107c0 30.667 11.5 56.167 34.5 76.5s51.833 30.5 86.5 30.5c58.667 0 88 -32.333 88 -97
c0 -42 -7.66699 -85.333 -23 -130l44 -23zM715.998 536.997c7.33301 29.333 11 56.333 11 81c0 22.667 -6.33301 34 -19 34c-8 0 -15 -4.33301 -21 -13s-9 -19.334 -9 -32.001c0 -23.333 12.667 -46.666 38 -69.999zM559.998 917.997h96l-107 -158h-40z" />
    <glyph glyph-name="Thorn" unicode="&#xde;" horiz-adv-x="722" 
d="M721 358c0 -62 -18.3301 -112.833 -54.9971 -152.5s-82.334 -68.334 -137.001 -86.001s-110 -26.5 -166 -26.5c-16.667 0 -32.667 1 -48 3l-1 -4c-8.66699 -34.667 -13 -60.667 -13 -78c0 -5.33301 0.666992 -10 2 -14h-112c7.33301 8.66699 13.166 19 17.499 31
s10.166 32.333 17.499 61l7 29c-33.333 17.333 -54.666 43.333 -63.999 78c22.667 -15.333 48 -25.333 76 -30l61 240c-28.667 -16.667 -51 -37 -67 -61s-24 -50.667 -24 -80c0 -17.333 2 -38 6 -62c-16.667 24 -29 45.5 -37 64.5s-12 38.5 -12 58.5
c0 36.667 14 69.5 42 98.5s66 51.833 114 68.5c6.66699 22.667 12.667 40.334 18 53.001l-3 2c-18.667 -22 -44.667 -40 -78 -54s-68.333 -21 -105 -21c-31.333 0 -55.833 7.33301 -73.5 22s-26.5 34.334 -26.5 59.001c0 20 4.66699 39.167 14 57.5s22.333 33.166 39 44.499
s34.667 17 54 17c17.333 0 30.666 -4.66699 39.999 -14s14 -21.333 14 -36c0 -6 -0.333008 -10.667 -1 -14c-7.33301 13.333 -17.666 20 -30.999 20s-24.333 -4.66699 -33 -14s-13 -21 -13 -35c0 -11.333 4.5 -20.333 13.5 -27s21.833 -10 38.5 -10
c72 0 151.667 51.333 239 154h32l-46 -184c19.333 2.66699 41.666 4 66.999 4c56.667 0 102.667 -8 138 -24s63 -40.667 83 -74c8.66699 -20.667 13 -42 13 -64zM483.003 178.5c43.333 9.66699 79.501 29.167 108.501 58.5s43.5 71.333 43.5 126c0 13.333 -2 27 -6 41
c-18 17.333 -36.667 29.666 -56 36.999s-46.666 11 -81.999 11c-30.667 0 -60.334 -2.66699 -89.001 -8l-70 -281c57.333 0.666992 107.666 5.83398 150.999 15.501z" />
    <glyph glyph-name="germandbls" unicode="&#xdf;" horiz-adv-x="576" 
d="M143 534c18 72.667 48.333 128.5 91 167.5s94.334 58.5 155.001 58.5c40.667 0 76.167 -10.333 106.5 -31s57.833 -44.667 82.5 -72c8 -14 12 -29.333 12 -46c0 -25.333 -6.16699 -47.166 -18.5 -65.499s-26.833 -32.833 -43.5 -43.5s-38.334 -22.667 -65.001 -36
c-24 -12 -41.833 -22.5 -53.5 -31.5s-17.5 -19.167 -17.5 -30.5c0 -9.33301 3.33301 -18.333 10 -27s18 -21 34 -37c26 -26 46.333 -50.5 61 -73.5s22 -51.167 22 -84.5c0 -35.333 -9.5 -67.666 -28.5 -96.999s-44.333 -52.5 -76 -69.5s-65.5 -25.5 -101.5 -25.5
c-72.667 0 -131 34 -175 102c28.667 -12 53.667 -21 75 -27s44 -9 68 -9c46 0 83.167 11.833 111.5 35.5s42.5 53.5 42.5 89.5c0 24.667 -6 45.667 -18 63s-29.333 36.333 -52 57c-18.667 17.333 -32.667 32.5 -42 45.5s-14 27.5 -14 43.5c0 13.333 3.5 24.666 10.5 33.999
s15.333 16.833 25 22.5s24.5 13.167 44.5 22.5c26 11.333 46.833 22.166 62.5 32.499s29.167 24.833 40.5 43.5s17 42.667 17 72c0 16 -2.33301 30.333 -7 43c-24 22.667 -54 34 -90 34c-47.333 0 -87 -13.833 -119 -41.5s-54.667 -67.167 -68 -118.5l-162 -646
c-8.66699 -36.667 -23.667 -68.167 -45 -94.5s-45.333 -43.5 -72 -51.5z" />
    <glyph glyph-name="agrave" unicode="&#xe0;" horiz-adv-x="562" 
d="M533 94c-27.333 -30.667 -54.668 -54.999 -82.001 -72.999s-51.666 -27 -72.999 -27c-14.667 0 -26 4 -34 12s-12 19 -12 33c0 8 0.666992 14.333 2 19l10 39c-48.667 -71.333 -101 -107 -157 -107c-28 0 -53 8.83301 -75 26.5s-42.667 43.167 -62 76.5
c-6.66699 33.333 -10 63.666 -10 90.999c0 59.333 11.333 111.333 34 156s54.667 79.167 96 103.5s89.333 36.5 144 36.5c49.333 0 93 -9.83301 131 -29.5s67 -46.5 87 -80.5c-26.667 14 -55.167 24.833 -85.5 32.5s-60.833 11.5 -91.5 11.5
c-72.667 0 -129.334 -22.333 -170.001 -67s-61 -106 -61 -184c0 -24.667 2 -50.667 6 -78c10.667 -10 20.334 -17.333 29.001 -22s19.334 -7 32.001 -7c34 0 67 16 99 48s61.667 77 89 135l19 75c6 26 22.667 39 50 39c22 0 33 -8.66699 33 -26
c0 -2 -0.666992 -6.33301 -2 -13l-57 -230c-1.33301 -4 -2 -7.66699 -2 -11c0 -10.667 7.33301 -16 22 -16c23.333 0 53.666 12.333 90.999 37zM232.998 688.001h96l51 -158h-40z" />
    <glyph glyph-name="aacute" unicode="&#xe1;" horiz-adv-x="562" 
d="M533 94c-27.333 -30.667 -54.668 -54.999 -82.001 -72.999s-51.666 -27 -72.999 -27c-14.667 0 -26 4 -34 12s-12 19 -12 33c0 8 0.666992 14.333 2 19l10 39c-48.667 -71.333 -101 -107 -157 -107c-28 0 -53 8.83301 -75 26.5s-42.667 43.167 -62 76.5
c-6.66699 33.333 -10 63.666 -10 90.999c0 59.333 11.333 111.333 34 156s54.667 79.167 96 103.5s89.333 36.5 144 36.5c49.333 0 93 -9.83301 131 -29.5s67 -46.5 87 -80.5c-26.667 14 -55.167 24.833 -85.5 32.5s-60.833 11.5 -91.5 11.5
c-72.667 0 -129.334 -22.333 -170.001 -67s-61 -106 -61 -184c0 -24.667 2 -50.667 6 -78c10.667 -10 20.334 -17.333 29.001 -22s19.334 -7 32.001 -7c34 0 67 16 99 48s61.667 77 89 135l19 75c6 26 22.667 39 50 39c22 0 33 -8.66699 33 -26
c0 -2 -0.666992 -6.33301 -2 -13l-57 -230c-1.33301 -4 -2 -7.66699 -2 -11c0 -10.667 7.33301 -16 22 -16c23.333 0 53.666 12.333 90.999 37zM350.998 688.001h96l-107 -158h-40z" />
    <glyph glyph-name="acircumflex" unicode="&#xe2;" horiz-adv-x="562" 
d="M533 94c-27.333 -30.667 -54.668 -54.999 -82.001 -72.999s-51.666 -27 -72.999 -27c-14.667 0 -26 4 -34 12s-12 19 -12 33c0 8 0.666992 14.333 2 19l10 39c-48.667 -71.333 -101 -107 -157 -107c-28 0 -53 8.83301 -75 26.5s-42.667 43.167 -62 76.5
c-6.66699 33.333 -10 63.666 -10 90.999c0 59.333 11.333 111.333 34 156s54.667 79.167 96 103.5s89.333 36.5 144 36.5c49.333 0 93 -9.83301 131 -29.5s67 -46.5 87 -80.5c-26.667 14 -55.167 24.833 -85.5 32.5s-60.833 11.5 -91.5 11.5
c-72.667 0 -129.334 -22.333 -170.001 -67s-61 -106 -61 -184c0 -24.667 2 -50.667 6 -78c10.667 -10 20.334 -17.333 29.001 -22s19.334 -7 32.001 -7c34 0 67 16 99 48s61.667 77 89 135l19 75c6 26 22.667 39 50 39c22 0 33 -8.66699 33 -26
c0 -2 -0.666992 -6.33301 -2 -13l-57 -230c-1.33301 -4 -2 -7.66699 -2 -11c0 -10.667 7.33301 -16 22 -16c23.333 0 53.666 12.333 90.999 37zM350.998 668.001h80l64 -148l-119 88l-161 -88z" />
    <glyph glyph-name="atilde" unicode="&#xe3;" horiz-adv-x="562" 
d="M533 94c-27.333 -30.667 -54.668 -54.999 -82.001 -72.999s-51.666 -27 -72.999 -27c-14.667 0 -26 4 -34 12s-12 19 -12 33c0 8 0.666992 14.333 2 19l10 39c-48.667 -71.333 -101 -107 -157 -107c-28 0 -53 8.83301 -75 26.5s-42.667 43.167 -62 76.5
c-6.66699 33.333 -10 63.666 -10 90.999c0 59.333 11.333 111.333 34 156s54.667 79.167 96 103.5s89.333 36.5 144 36.5c49.333 0 93 -9.83301 131 -29.5s67 -46.5 87 -80.5c-26.667 14 -55.167 24.833 -85.5 32.5s-60.833 11.5 -91.5 11.5
c-72.667 0 -129.334 -22.333 -170.001 -67s-61 -106 -61 -184c0 -24.667 2 -50.667 6 -78c10.667 -10 20.334 -17.333 29.001 -22s19.334 -7 32.001 -7c34 0 67 16 99 48s61.667 77 89 135l19 75c6 26 22.667 39 50 39c22 0 33 -8.66699 33 -26
c0 -2 -0.666992 -6.33301 -2 -13l-57 -230c-1.33301 -4 -2 -7.66699 -2 -11c0 -10.667 7.33301 -16 22 -16c23.333 0 53.666 12.333 90.999 37zM531.998 636.001c-12 -38 -29.334 -66.833 -52.001 -86.5s-46.334 -29.5 -71.001 -29.5c-12 0 -22.5 2.16699 -31.5 6.5
s-19.167 10.833 -30.5 19.5c-10.667 8 -20.167 14 -28.5 18s-18.166 6 -29.499 6c-31.333 0 -62.666 -16.667 -93.999 -50c12 38 29.333 66.833 52 86.5s46.334 29.5 71.001 29.5c12 0 22.167 -2 30.5 -6s18.5 -10.333 30.5 -19c10 -8 19.333 -14.167 28 -18.5
s19 -6.5 31 -6.5c31.333 0 62.666 16.667 93.999 50z" />
    <glyph glyph-name="adieresis" unicode="&#xe4;" horiz-adv-x="562" 
d="M533 94c-27.333 -30.667 -54.668 -54.999 -82.001 -72.999s-51.666 -27 -72.999 -27c-14.667 0 -26 4 -34 12s-12 19 -12 33c0 8 0.666992 14.333 2 19l10 39c-48.667 -71.333 -101 -107 -157 -107c-28 0 -53 8.83301 -75 26.5s-42.667 43.167 -62 76.5
c-6.66699 33.333 -10 63.666 -10 90.999c0 59.333 11.333 111.333 34 156s54.667 79.167 96 103.5s89.333 36.5 144 36.5c49.333 0 93 -9.83301 131 -29.5s67 -46.5 87 -80.5c-26.667 14 -55.167 24.833 -85.5 32.5s-60.833 11.5 -91.5 11.5
c-72.667 0 -129.334 -22.333 -170.001 -67s-61 -106 -61 -184c0 -24.667 2 -50.667 6 -78c10.667 -10 20.334 -17.333 29.001 -22s19.334 -7 32.001 -7c34 0 67 16 99 48s61.667 77 89 135l19 75c6 26 22.667 39 50 39c22 0 33 -8.66699 33 -26
c0 -2 -0.666992 -6.33301 -2 -13l-57 -230c-1.33301 -4 -2 -7.66699 -2 -11c0 -10.667 7.33301 -16 22 -16c23.333 0 53.666 12.333 90.999 37zM239.498 530.001c-7.66699 6.66699 -11.499 15.666 -11.499 26.999c0 18.667 6.66699 34.834 20 48.501
s29.666 20.5 48.999 20.5c12.667 0 22.667 -3.33301 30 -10s11 -16 11 -28c0 -19.333 -6.5 -35.5 -19.5 -48.5s-28.833 -19.5 -47.5 -19.5c-13.333 0 -23.833 3.33301 -31.5 10zM405.499 530c-7.66699 6.66699 -11.499 15.666 -11.499 26.999
c0 18.667 6.66699 34.834 20 48.501s29.666 20.5 48.999 20.5c12.667 0 22.667 -3.33301 30 -10s11 -16 11 -28c0 -19.333 -6.5 -35.5 -19.5 -48.5s-28.833 -19.5 -47.5 -19.5c-13.333 0 -23.833 3.33301 -31.5 10z" />
    <glyph glyph-name="aring" unicode="&#xe5;" horiz-adv-x="562" 
d="M533 94c-27.333 -30.667 -54.668 -54.999 -82.001 -72.999s-51.666 -27 -72.999 -27c-14.667 0 -26 4 -34 12s-12 19 -12 33c0 8 0.666992 14.333 2 19l10 39c-48.667 -71.333 -101 -107 -157 -107c-28 0 -53 8.83301 -75 26.5s-42.667 43.167 -62 76.5
c-6.66699 33.333 -10 63.666 -10 90.999c0 59.333 11.333 111.333 34 156s54.667 79.167 96 103.5s89.333 36.5 144 36.5c49.333 0 93 -9.83301 131 -29.5s67 -46.5 87 -80.5c-26.667 14 -55.167 24.833 -85.5 32.5s-60.833 11.5 -91.5 11.5
c-72.667 0 -129.334 -22.333 -170.001 -67s-61 -106 -61 -184c0 -24.667 2 -50.667 6 -78c10.667 -10 20.334 -17.333 29.001 -22s19.334 -7 32.001 -7c34 0 67 16 99 48s61.667 77 89 135l19 75c6 26 22.667 39 50 39c22 0 33 -8.66699 33 -26
c0 -2 -0.666992 -6.33301 -2 -13l-57 -230c-1.33301 -4 -2 -7.66699 -2 -11c0 -10.667 7.33301 -16 22 -16c23.333 0 53.666 12.333 90.999 37zM301.498 536.501c-13 11 -19.5 25.833 -19.5 44.5c0 27.333 11.167 51.333 33.5 72s48.166 31 77.499 31
c20.667 0 37.334 -5.5 50.001 -16.5s19 -25.833 19 -44.5c0 -27.333 -10.833 -51.333 -32.5 -72s-47.167 -31 -76.5 -31c-21.333 0 -38.5 5.5 -51.5 16.5zM400.998 575.001c10.667 12.667 16 26 16 40c0 10 -3 18 -9 24s-14 9 -24 9c-16 0 -29.5 -6.16699 -40.5 -18.5
s-16.5 -25.833 -16.5 -40.5c0 -10 3.16699 -18 9.5 -24s14.833 -9 25.5 -9c15.333 0 28.333 6.33301 39 19z" />
    <glyph glyph-name="ae" unicode="&#xe6;" horiz-adv-x="862" 
d="M727 247.5c18.667 17.667 27.9961 41.167 27.9961 70.5c0 20.667 -2.66699 40.667 -8 60c-10.667 10.667 -23.5 19.334 -38.5 26.001s-30.167 10 -45.5 10c-62 0 -111.167 -23 -147.5 -69s-54.5 -108.333 -54.5 -187c0 -22 1.66699 -43.667 5 -65
c28.667 -24.667 68 -37 118 -37c40.667 0 79.834 7.66699 117.501 23s68.167 36 91.5 62c-28.667 -46 -63.5 -82.667 -104.5 -110s-81.833 -41 -122.5 -41c-39.333 0 -75.333 11 -108 33s-56.334 50 -71.001 84c-1.33301 4 -2.66602 10 -3.99902 18
c-28 -48 -57.333 -82.5 -88 -103.5s-66.667 -31.5 -108 -31.5c-28 0 -53 8.83301 -75 26.5s-42.667 43.167 -62 76.5c-6.66699 33.333 -10 63.666 -10 90.999c0 58.667 10.667 110.5 32 155.5s49.666 79.667 84.999 104s73.666 36.5 114.999 36.5
c28.667 0 55.834 -7.66699 81.501 -23s45.834 -36 60.501 -62c-11.333 6 -24 10.667 -38 14s-27 5 -39 5c-42.667 0 -80 -10.167 -112 -30.5s-56.833 -49.333 -74.5 -87s-26.5 -82.167 -26.5 -133.5c0 -24.667 2 -50.667 6 -78c10.667 -10 20.334 -17.333 29.001 -22
s19.334 -7 32.001 -7c34 0 67.333 16.5 100 49.5s62.667 78.167 90 135.5c11.333 74 41.833 132.333 91.5 175s112.834 64 189.501 64c34.667 0 66.5 -7.16699 95.5 -21.5s50.833 -33.833 65.5 -58.5c8 -25.333 12 -55.333 12 -90c0 -46 -14.667 -82.667 -44 -110
s-69 -41 -119 -41c-41.333 0 -76.833 8.5 -106.5 25.5s-49.167 39.833 -58.5 68.5c14 -10 34 -17.833 60 -23.5s54.333 -8.5 85 -8.5c31.333 0 56.333 8.83301 75 26.5z" />
    <glyph glyph-name="ccedilla" unicode="&#xe7;" horiz-adv-x="495" 
d="M334 357.5c5.33301 -4.33301 8.00684 -10.502 8.00684 -18.502c0 -3.33301 -0.666992 -8.16602 -2 -14.499s-2 -11.5 -2 -15.5c0 -7.33301 2.66699 -13.166 8 -17.499s12.333 -6.5 21 -6.5c14.667 0 26.5 5.66699 35.5 17s13.5 25.666 13.5 42.999c0 22 -8 39 -24 51
s-38.667 18 -68 18c-40 0 -75.333 -10.5 -106 -31.5s-54.334 -50.833 -71.001 -89.5s-25 -83.667 -25 -135c0 -22 1.66699 -43.667 5 -65c28.667 -24.667 68 -37 118 -37c40.667 0 78.834 8.16699 114.501 24.5s67.167 39.833 94.5 70.5
c-66.667 -107.333 -142.334 -161 -227.001 -161c-10.667 0 -18.334 0.333008 -23.001 1l-45 -42c25.333 0 45 -4.83301 59 -14.5s21 -22.834 21 -39.501c0 -27.333 -9.33301 -49.166 -28 -65.499s-40.334 -24.5 -65.001 -24.5c-24 0 -44.333 4.83301 -61 14.5
s-28.667 23.834 -36 42.501c17.333 -8.66699 40 -13 68 -13c36 0 54 13.333 54 40c0 7.33301 -3.33301 13.333 -10 18s-15.334 7 -26.001 7c-9.33301 0 -21.333 -1.66699 -36 -5l-10 17l78 74c-27.333 8.66699 -51.333 22.5 -72 41.5s-36.334 40.833 -47.001 65.5
c-6.66699 22.667 -10 47.667 -10 75c0 59.333 12.333 111.5 37 156.5s59.167 79.833 103.5 104.5s95.166 37 152.499 37c53.333 0 94.166 -10.833 122.499 -32.5s42.5 -52.5 42.5 -92.5c0 -38.667 -12.333 -70 -37 -94s-58 -36 -100 -36c-34 0 -58.333 7.16699 -73 21.5
s-22 32.5 -22 54.5c0 18 4.5 33 13.5 45s20.833 18 35.5 18c8.66699 0 15.667 -2.16699 21 -6.5z" />
    <glyph glyph-name="egrave" unicode="&#xe8;" horiz-adv-x="524" 
d="M120 23c-32.667 22 -56.334 49.999 -71.001 83.999c-6.66699 22.667 -10 47.667 -10 75c0 60 11.667 112.5 35 157.5s56.5 79.667 99.5 104s93.167 36.5 150.5 36.5c34.667 0 66.5 -7.16699 95.5 -21.5s50.833 -33.833 65.5 -58.5c8 -25.333 12 -55.333 12 -90
c0 -46 -14.667 -82.667 -44 -110s-69 -41 -119 -41c-41.333 0 -76.833 8.5 -106.5 25.5s-49.167 39.833 -58.5 68.5c14 -10 34 -17.833 60 -23.5s54.333 -8.5 85 -8.5c31.333 0 56.333 8.83301 75 26.5s28 41.167 28 70.5c0 20.667 -2.66699 40.667 -8 60
c-10.667 10.667 -23.5 19.334 -38.5 26.001s-30.167 10 -45.5 10c-62 0 -111.167 -23 -147.5 -69s-54.5 -108.333 -54.5 -187c0 -22 1.66699 -43.667 5 -65c28.667 -24.667 68 -37 118 -37c40.667 0 79.834 7.66699 117.501 23s68.167 36 91.5 62
c-28.667 -46 -63.5 -82.667 -104.5 -110s-81.833 -41 -122.5 -41c-39.333 0 -75.333 11 -108 33zM214 687.999h96l51 -158h-40z" />
    <glyph glyph-name="eacute" unicode="&#xe9;" horiz-adv-x="524" 
d="M120 23c-32.667 22 -56.334 49.999 -71.001 83.999c-6.66699 22.667 -10 47.667 -10 75c0 60 11.667 112.5 35 157.5s56.5 79.667 99.5 104s93.167 36.5 150.5 36.5c34.667 0 66.5 -7.16699 95.5 -21.5s50.833 -33.833 65.5 -58.5c8 -25.333 12 -55.333 12 -90
c0 -46 -14.667 -82.667 -44 -110s-69 -41 -119 -41c-41.333 0 -76.833 8.5 -106.5 25.5s-49.167 39.833 -58.5 68.5c14 -10 34 -17.833 60 -23.5s54.333 -8.5 85 -8.5c31.333 0 56.333 8.83301 75 26.5s28 41.167 28 70.5c0 20.667 -2.66699 40.667 -8 60
c-10.667 10.667 -23.5 19.334 -38.5 26.001s-30.167 10 -45.5 10c-62 0 -111.167 -23 -147.5 -69s-54.5 -108.333 -54.5 -187c0 -22 1.66699 -43.667 5 -65c28.667 -24.667 68 -37 118 -37c40.667 0 79.834 7.66699 117.501 23s68.167 36 91.5 62
c-28.667 -46 -63.5 -82.667 -104.5 -110s-81.833 -41 -122.5 -41c-39.333 0 -75.333 11 -108 33zM332 687.999h96l-107 -158h-40z" />
    <glyph glyph-name="ecircumflex" unicode="&#xea;" horiz-adv-x="524" 
d="M120 23c-32.667 22 -56.334 49.999 -71.001 83.999c-6.66699 22.667 -10 47.667 -10 75c0 60 11.667 112.5 35 157.5s56.5 79.667 99.5 104s93.167 36.5 150.5 36.5c34.667 0 66.5 -7.16699 95.5 -21.5s50.833 -33.833 65.5 -58.5c8 -25.333 12 -55.333 12 -90
c0 -46 -14.667 -82.667 -44 -110s-69 -41 -119 -41c-41.333 0 -76.833 8.5 -106.5 25.5s-49.167 39.833 -58.5 68.5c14 -10 34 -17.833 60 -23.5s54.333 -8.5 85 -8.5c31.333 0 56.333 8.83301 75 26.5s28 41.167 28 70.5c0 20.667 -2.66699 40.667 -8 60
c-10.667 10.667 -23.5 19.334 -38.5 26.001s-30.167 10 -45.5 10c-62 0 -111.167 -23 -147.5 -69s-54.5 -108.333 -54.5 -187c0 -22 1.66699 -43.667 5 -65c28.667 -24.667 68 -37 118 -37c40.667 0 79.834 7.66699 117.501 23s68.167 36 91.5 62
c-28.667 -46 -63.5 -82.667 -104.5 -110s-81.833 -41 -122.5 -41c-39.333 0 -75.333 11 -108 33zM332 667.999h80l64 -148l-119 88l-161 -88z" />
    <glyph glyph-name="edieresis" unicode="&#xeb;" horiz-adv-x="524" 
d="M120 23c-32.667 22 -56.334 49.999 -71.001 83.999c-6.66699 22.667 -10 47.667 -10 75c0 60 11.667 112.5 35 157.5s56.5 79.667 99.5 104s93.167 36.5 150.5 36.5c34.667 0 66.5 -7.16699 95.5 -21.5s50.833 -33.833 65.5 -58.5c8 -25.333 12 -55.333 12 -90
c0 -46 -14.667 -82.667 -44 -110s-69 -41 -119 -41c-41.333 0 -76.833 8.5 -106.5 25.5s-49.167 39.833 -58.5 68.5c14 -10 34 -17.833 60 -23.5s54.333 -8.5 85 -8.5c31.333 0 56.333 8.83301 75 26.5s28 41.167 28 70.5c0 20.667 -2.66699 40.667 -8 60
c-10.667 10.667 -23.5 19.334 -38.5 26.001s-30.167 10 -45.5 10c-62 0 -111.167 -23 -147.5 -69s-54.5 -108.333 -54.5 -187c0 -22 1.66699 -43.667 5 -65c28.667 -24.667 68 -37 118 -37c40.667 0 79.834 7.66699 117.501 23s68.167 36 91.5 62
c-28.667 -46 -63.5 -82.667 -104.5 -110s-81.833 -41 -122.5 -41c-39.333 0 -75.333 11 -108 33zM220.5 529.999c-7.66699 6.66699 -11.499 15.666 -11.499 26.999c0 18.667 6.66699 34.834 20 48.501s29.666 20.5 48.999 20.5c12.667 0 22.667 -3.33301 30 -10
s11 -16 11 -28c0 -19.333 -6.5 -35.5 -19.5 -48.5s-28.833 -19.5 -47.5 -19.5c-13.333 0 -23.833 3.33301 -31.5 10zM386.501 529.998c-7.66699 6.66699 -11.499 15.666 -11.499 26.999c0 18.667 6.66699 34.834 20 48.501s29.666 20.5 48.999 20.5
c12.667 0 22.667 -3.33301 30 -10s11 -16 11 -28c0 -19.333 -6.5 -35.5 -19.5 -48.5s-28.833 -19.5 -47.5 -19.5c-13.333 0 -23.833 3.33301 -31.5 10z" />
    <glyph glyph-name="igrave" unicode="&#xec;" horiz-adv-x="288" 
d="M72 6c-8.66699 8 -13 18.999 -13 32.999c0 6 1 12.333 3 19l81 328c0.666992 2 1 4.66699 1 8c0 6 -1.83301 10.667 -5.5 14s-8.5 5 -14.5 5c-23.333 0 -53.666 -12.333 -90.999 -37c27.333 30.667 54.666 55 81.999 73s51.666 27 72.999 27c14 0 25.333 -4 34 -12
s13 -19 13 -33c0 -5.33301 -1 -11.666 -3 -18.999l-82 -328c-1.33301 -4 -2 -7.66699 -2 -11c0 -10.667 7.33301 -16 22 -16c23.333 0 53.666 12.333 90.999 37c-27.333 -30.667 -54.666 -55 -81.999 -73s-51.666 -27 -72.999 -27c-14 0 -25.333 4 -34 12zM96 687.999h96
l51 -158h-40z" />
    <glyph glyph-name="iacute" unicode="&#xed;" horiz-adv-x="288" 
d="M72 6c-8.66699 8 -13 18.999 -13 32.999c0 6 1 12.333 3 19l81 328c0.666992 2 1 4.66699 1 8c0 6 -1.83301 10.667 -5.5 14s-8.5 5 -14.5 5c-23.333 0 -53.666 -12.333 -90.999 -37c27.333 30.667 54.666 55 81.999 73s51.666 27 72.999 27c14 0 25.333 -4 34 -12
s13 -19 13 -33c0 -5.33301 -1 -11.666 -3 -18.999l-82 -328c-1.33301 -4 -2 -7.66699 -2 -11c0 -10.667 7.33301 -16 22 -16c23.333 0 53.666 12.333 90.999 37c-27.333 -30.667 -54.666 -55 -81.999 -73s-51.666 -27 -72.999 -27c-14 0 -25.333 4 -34 12zM214 687.999h96
l-107 -158h-40z" />
    <glyph glyph-name="icircumflex" unicode="&#xee;" horiz-adv-x="288" 
d="M72 6c-8.66699 8 -13 18.999 -13 32.999c0 6 1 12.333 3 19l81 328c0.666992 2 1 4.66699 1 8c0 6 -1.83301 10.667 -5.5 14s-8.5 5 -14.5 5c-23.333 0 -53.666 -12.333 -90.999 -37c27.333 30.667 54.666 55 81.999 73s51.666 27 72.999 27c14 0 25.333 -4 34 -12
s13 -19 13 -33c0 -5.33301 -1 -11.666 -3 -18.999l-82 -328c-1.33301 -4 -2 -7.66699 -2 -11c0 -10.667 7.33301 -16 22 -16c23.333 0 53.666 12.333 90.999 37c-27.333 -30.667 -54.666 -55 -81.999 -73s-51.666 -27 -72.999 -27c-14 0 -25.333 4 -34 12zM214 667.999h80
l64 -148l-119 88l-161 -88z" />
    <glyph glyph-name="idieresis" unicode="&#xef;" horiz-adv-x="288" 
d="M72 6c-8.66699 8 -13 18.999 -13 32.999c0 6 1 12.333 3 19l81 328c0.666992 2 1 4.66699 1 8c0 6 -1.83301 10.667 -5.5 14s-8.5 5 -14.5 5c-23.333 0 -53.666 -12.333 -90.999 -37c27.333 30.667 54.666 55 81.999 73s51.666 27 72.999 27c14 0 25.333 -4 34 -12
s13 -19 13 -33c0 -5.33301 -1 -11.666 -3 -18.999l-82 -328c-1.33301 -4 -2 -7.66699 -2 -11c0 -10.667 7.33301 -16 22 -16c23.333 0 53.666 12.333 90.999 37c-27.333 -30.667 -54.666 -55 -81.999 -73s-51.666 -27 -72.999 -27c-14 0 -25.333 4 -34 12zM102.5 529.999
c-7.66699 6.66699 -11.499 15.666 -11.499 26.999c0 18.667 6.66699 34.834 20 48.501s29.666 20.5 48.999 20.5c12.667 0 22.667 -3.33301 30 -10s11 -16 11 -28c0 -19.333 -6.5 -35.5 -19.5 -48.5s-28.833 -19.5 -47.5 -19.5c-13.333 0 -23.833 3.33301 -31.5 10z
M268.501 529.998c-7.66699 6.66699 -11.499 15.666 -11.499 26.999c0 18.667 6.66699 34.834 20 48.501s29.666 20.5 48.999 20.5c12.667 0 22.667 -3.33301 30 -10s11 -16 11 -28c0 -19.333 -6.5 -35.5 -19.5 -48.5s-28.833 -19.5 -47.5 -19.5
c-13.333 0 -23.833 3.33301 -31.5 10z" />
    <glyph glyph-name="eth" unicode="&#xf0;" horiz-adv-x="562" 
d="M422 84c-1.33301 -4 -2.00195 -7.66699 -2.00195 -11c0 -10.667 7.33301 -16 22 -16c23.333 0 53.666 12.333 90.999 37c-27.333 -30.667 -54.666 -55 -81.999 -73s-51.666 -27 -72.999 -27c-14.667 0 -26 4 -34 12s-12 19 -12 33c0 8 0.666992 14.333 2 19l10 39
c-48.667 -71.333 -101 -107 -157 -107c-28 0 -53 8.83301 -75 26.5s-42.667 43.167 -62 76.5c-6.66699 33.333 -10 63.666 -10 90.999c0 58 10.167 109.5 30.5 154.5s46.833 79.833 79.5 104.5s66.667 37 102 37c27.333 0 52.5 -7.5 75.5 -22.5s41.833 -35.833 56.5 -62.5
c-25.333 12.667 -51 19 -77 19c-33.333 0 -64 -10.333 -92 -31s-50.167 -50 -66.5 -88s-24.5 -82 -24.5 -132c0 -24.667 2 -50.667 6 -78c10.667 -10 20.334 -17.333 29.001 -22s19.334 -7 32.001 -7c34 0 67 16 99 48s61.667 77 89 135l78 311h-156l12 50h156l17 66
c1.33301 4 2 7.66699 2 11c0 10.667 -7.33301 16 -22 16c-23.333 0 -53.666 -12.333 -90.999 -37c27.333 30.667 54.666 55 81.999 73s51.666 27 72.999 27c14 0 25.333 -4 34 -12s13 -19 13 -33c0 -5.33301 -1 -11.666 -3 -18.999l-23 -92h84l-12 -50h-84z" />
    <glyph glyph-name="ntilde" unicode="&#xf1;" horiz-adv-x="553" 
d="M50 19c0 2 0.667969 6.33203 2.00098 12.999l89 354c0.666992 2 1 4.66699 1 8c0 6 -1.83301 10.667 -5.5 14s-8.5 5 -14.5 5c-23.333 0 -53.666 -12.333 -90.999 -37c27.333 30.667 54.666 55 81.999 73s51.666 27 72.999 27c14 0 25.333 -4 34 -12s13 -19 13 -33
c0 -5.33301 -1 -11.666 -3 -18.999l-17 -68c40 42 77.5 75.167 112.5 99.5s62.5 36.5 82.5 36.5c11.333 0 24 -3.83301 38 -11.5s25.667 -17.834 35 -30.501s14 -25.667 14 -39c0 -3.33301 -0.666992 -7.66602 -2 -12.999l-76 -302c-1.33301 -2.66699 -2 -6 -2 -10
c0 -11.333 7.33301 -17 22 -17c23.333 0 53.666 12.333 90.999 37c-27.333 -30.667 -54.666 -55 -81.999 -73s-51.666 -27 -72.999 -27c-14 0 -25.333 4 -34 12s-13 19 -13 33c0 6 1 12.333 3 19l84 336c-31.333 -4 -67.333 -19.167 -108 -45.5
s-79.334 -59.833 -116.001 -100.5l-54 -216c-6 -25.333 -23 -38 -51 -38c-22.667 0 -34 8.33301 -34 25zM498.001 635.999c-12 -38 -29.334 -66.833 -52.001 -86.5s-46.334 -29.5 -71.001 -29.5c-12 0 -22.5 2.16699 -31.5 6.5s-19.167 10.833 -30.5 19.5
c-10.667 8 -20.167 14 -28.5 18s-18.166 6 -29.499 6c-31.333 0 -62.666 -16.667 -93.999 -50c12 38 29.333 66.833 52 86.5s46.334 29.5 71.001 29.5c12 0 22.167 -2 30.5 -6s18.5 -10.333 30.5 -19c10 -8 19.333 -14.167 28 -18.5s19 -6.5 31 -6.5
c31.333 0 62.666 16.667 93.999 50z" />
    <glyph glyph-name="ograve" unicode="&#xf2;" horiz-adv-x="548" 
d="M112 22c-31.333 21.333 -54.333 49.6699 -69 85.0029c-6.66699 22.667 -10 46 -10 70c0 58 18.333 112.167 55 162.5s86 90.166 148 119.499c-37.333 -34 -66.5 -75.833 -87.5 -125.5s-31.5 -104.167 -31.5 -163.5c0 -22.667 1.66699 -46.334 5 -71.001
c22.667 -28.667 56.667 -43 102 -43c43.333 0 80.833 13.167 112.5 39.5s55.5 63.666 71.5 111.999s23.333 105.166 22 170.499c-16 24 -37.333 36 -64 36c-21.333 0 -38.666 -8 -51.999 -24s-20 -37 -20 -63c0 -22 5 -42.167 15 -60.5s24.333 -34.166 43 -47.499
c-42 5.33301 -75.5 19.333 -100.5 42s-37.5 51 -37.5 85c0 25.333 6.66699 48.166 20 68.499s31.166 36 53.499 47s46.166 16.5 71.499 16.5c33.333 0 63 -9.66699 89 -29s46 -46.666 60 -81.999c3.33301 -20 5 -41 5 -63c0 -62 -12.667 -116.833 -38 -164.5
s-59.666 -84.5 -102.999 -110.5s-91 -39 -143 -39c-46.667 0 -85.667 10.667 -117 32zM226 688.004h96l51 -158h-40z" />
    <glyph glyph-name="oacute" unicode="&#xf3;" horiz-adv-x="548" 
d="M112 22c-31.333 21.333 -54.333 49.6699 -69 85.0029c-6.66699 22.667 -10 46 -10 70c0 58 18.333 112.167 55 162.5s86 90.166 148 119.499c-37.333 -34 -66.5 -75.833 -87.5 -125.5s-31.5 -104.167 -31.5 -163.5c0 -22.667 1.66699 -46.334 5 -71.001
c22.667 -28.667 56.667 -43 102 -43c43.333 0 80.833 13.167 112.5 39.5s55.5 63.666 71.5 111.999s23.333 105.166 22 170.499c-16 24 -37.333 36 -64 36c-21.333 0 -38.666 -8 -51.999 -24s-20 -37 -20 -63c0 -22 5 -42.167 15 -60.5s24.333 -34.166 43 -47.499
c-42 5.33301 -75.5 19.333 -100.5 42s-37.5 51 -37.5 85c0 25.333 6.66699 48.166 20 68.499s31.166 36 53.499 47s46.166 16.5 71.499 16.5c33.333 0 63 -9.66699 89 -29s46 -46.666 60 -81.999c3.33301 -20 5 -41 5 -63c0 -62 -12.667 -116.833 -38 -164.5
s-59.666 -84.5 -102.999 -110.5s-91 -39 -143 -39c-46.667 0 -85.667 10.667 -117 32zM344 688.004h96l-107 -158h-40z" />
    <glyph glyph-name="ocircumflex" unicode="&#xf4;" horiz-adv-x="548" 
d="M112 22c-31.333 21.333 -54.333 49.6699 -69 85.0029c-6.66699 22.667 -10 46 -10 70c0 58 18.333 112.167 55 162.5s86 90.166 148 119.499c-37.333 -34 -66.5 -75.833 -87.5 -125.5s-31.5 -104.167 -31.5 -163.5c0 -22.667 1.66699 -46.334 5 -71.001
c22.667 -28.667 56.667 -43 102 -43c43.333 0 80.833 13.167 112.5 39.5s55.5 63.666 71.5 111.999s23.333 105.166 22 170.499c-16 24 -37.333 36 -64 36c-21.333 0 -38.666 -8 -51.999 -24s-20 -37 -20 -63c0 -22 5 -42.167 15 -60.5s24.333 -34.166 43 -47.499
c-42 5.33301 -75.5 19.333 -100.5 42s-37.5 51 -37.5 85c0 25.333 6.66699 48.166 20 68.499s31.166 36 53.499 47s46.166 16.5 71.499 16.5c33.333 0 63 -9.66699 89 -29s46 -46.666 60 -81.999c3.33301 -20 5 -41 5 -63c0 -62 -12.667 -116.833 -38 -164.5
s-59.666 -84.5 -102.999 -110.5s-91 -39 -143 -39c-46.667 0 -85.667 10.667 -117 32zM344 668.004h80l64 -148l-119 88l-161 -88z" />
    <glyph glyph-name="otilde" unicode="&#xf5;" horiz-adv-x="548" 
d="M112 22c-31.333 21.333 -54.333 49.6699 -69 85.0029c-6.66699 22.667 -10 46 -10 70c0 58 18.333 112.167 55 162.5s86 90.166 148 119.499c-37.333 -34 -66.5 -75.833 -87.5 -125.5s-31.5 -104.167 -31.5 -163.5c0 -22.667 1.66699 -46.334 5 -71.001
c22.667 -28.667 56.667 -43 102 -43c43.333 0 80.833 13.167 112.5 39.5s55.5 63.666 71.5 111.999s23.333 105.166 22 170.499c-16 24 -37.333 36 -64 36c-21.333 0 -38.666 -8 -51.999 -24s-20 -37 -20 -63c0 -22 5 -42.167 15 -60.5s24.333 -34.166 43 -47.499
c-42 5.33301 -75.5 19.333 -100.5 42s-37.5 51 -37.5 85c0 25.333 6.66699 48.166 20 68.499s31.166 36 53.499 47s46.166 16.5 71.499 16.5c33.333 0 63 -9.66699 89 -29s46 -46.666 60 -81.999c3.33301 -20 5 -41 5 -63c0 -62 -12.667 -116.833 -38 -164.5
s-59.666 -84.5 -102.999 -110.5s-91 -39 -143 -39c-46.667 0 -85.667 10.667 -117 32zM525 636.004c-12 -38 -29.334 -66.833 -52.001 -86.5s-46.334 -29.5 -71.001 -29.5c-12 0 -22.5 2.16699 -31.5 6.5s-19.167 10.833 -30.5 19.5c-10.667 8 -20.167 14 -28.5 18
s-18.166 6 -29.499 6c-31.333 0 -62.666 -16.667 -93.999 -50c12 38 29.333 66.833 52 86.5s46.334 29.5 71.001 29.5c12 0 22.167 -2 30.5 -6s18.5 -10.333 30.5 -19c10 -8 19.333 -14.167 28 -18.5s19 -6.5 31 -6.5c31.333 0 62.666 16.667 93.999 50z" />
    <glyph glyph-name="odieresis" unicode="&#xf6;" horiz-adv-x="548" 
d="M112 22c-31.333 21.333 -54.333 49.6699 -69 85.0029c-6.66699 22.667 -10 46 -10 70c0 58 18.333 112.167 55 162.5s86 90.166 148 119.499c-37.333 -34 -66.5 -75.833 -87.5 -125.5s-31.5 -104.167 -31.5 -163.5c0 -22.667 1.66699 -46.334 5 -71.001
c22.667 -28.667 56.667 -43 102 -43c43.333 0 80.833 13.167 112.5 39.5s55.5 63.666 71.5 111.999s23.333 105.166 22 170.499c-16 24 -37.333 36 -64 36c-21.333 0 -38.666 -8 -51.999 -24s-20 -37 -20 -63c0 -22 5 -42.167 15 -60.5s24.333 -34.166 43 -47.499
c-42 5.33301 -75.5 19.333 -100.5 42s-37.5 51 -37.5 85c0 25.333 6.66699 48.166 20 68.499s31.166 36 53.499 47s46.166 16.5 71.499 16.5c33.333 0 63 -9.66699 89 -29s46 -46.666 60 -81.999c3.33301 -20 5 -41 5 -63c0 -62 -12.667 -116.833 -38 -164.5
s-59.666 -84.5 -102.999 -110.5s-91 -39 -143 -39c-46.667 0 -85.667 10.667 -117 32zM232.5 530.004c-7.66699 6.66699 -11.499 15.666 -11.499 26.999c0 18.667 6.66699 34.834 20 48.501s29.666 20.5 48.999 20.5c12.667 0 22.667 -3.33301 30 -10s11 -16 11 -28
c0 -19.333 -6.5 -35.5 -19.5 -48.5s-28.833 -19.5 -47.5 -19.5c-13.333 0 -23.833 3.33301 -31.5 10zM398.501 530.003c-7.66699 6.66699 -11.499 15.666 -11.499 26.999c0 18.667 6.66699 34.834 20 48.501s29.666 20.5 48.999 20.5c12.667 0 22.667 -3.33301 30 -10
s11 -16 11 -28c0 -19.333 -6.5 -35.5 -19.5 -48.5s-28.833 -19.5 -47.5 -19.5c-13.333 0 -23.833 3.33301 -31.5 10z" />
    <glyph glyph-name="divide" unicode="&#xf7;" horiz-adv-x="521" 
d="M262.5 414c-9.66699 9.33301 -14.5 21.667 -14.5 37c0 23.333 8.83301 43.333 26.5 60s37.834 25 60.501 25c16.667 0 29.667 -4.5 39 -13.5s14 -21.167 14 -36.5c0 -23.333 -8.83301 -43.5 -26.5 -60.5s-37.834 -25.5 -60.501 -25.5c-16 0 -28.833 4.66699 -38.5 14z
M65 336.001h440l-16 -68h-440zM180 81.501c-9.33301 9 -14 21.166 -14 36.499c0 23.333 8.83301 43.5 26.5 60.5s37.834 25.5 60.501 25.5c16 0 28.833 -4.66699 38.5 -14s14.5 -21.666 14.5 -36.999c0 -23.333 -8.83301 -43.333 -26.5 -60s-37.834 -25 -60.501 -25
c-16.667 0 -29.667 4.5 -39 13.5z" />
    <glyph glyph-name="oslash" unicode="&#xf8;" horiz-adv-x="548" 
d="M508 367c3.33301 -20 5 -40.9971 5 -62.9971c0 -62 -12.667 -116.833 -38 -164.5s-59.666 -84.5 -102.999 -110.5s-91 -39 -143 -39c-28 0 -53.667 4 -77 12l-38 -58c-17.333 -26 -43 -40.667 -77 -44l79 120c-32.667 20 -57 49 -73 87c-6.66699 22.667 -10 46 -10 70
c0 58 18.333 112.167 55 162.5s86 90.166 148 119.499c-37.333 -34 -66.5 -75.833 -87.5 -125.5s-31.5 -104.167 -31.5 -163.5c0 -22.667 1.66699 -46.334 5 -71.001c8.66699 -10.667 18.334 -19 29.001 -25l115 175c-16.667 11.333 -29.5 25.333 -38.5 42
s-13.5 35 -13.5 55c0 25.333 6.66699 48.166 20 68.499s31.166 36 53.499 47s46.166 16.5 71.499 16.5c18.667 0 36 -3 52 -9l38 57c10.667 16.667 23.5 29.5 38.5 38.5s30.5 14.167 46.5 15.5l-86 -131c26 -20 46 -47.333 60 -82zM298 296.003l76.999 117
c-2 0.666992 -5 1 -9 1c-21.333 0 -38.666 -8 -51.999 -24s-20 -37 -20 -63c0 -12 1.33301 -22.333 4 -31zM336.499 95.5029c31.667 26.333 55.501 63.668 71.501 112.001s23.333 105.166 22 170.499c-6 8 -11.667 14.333 -17 19l-95 -144c8.66699 -12.667 20 -24 34 -34
c-16 2 -32.333 5.66699 -49 11l-113 -171c11.333 -2 22.666 -3 33.999 -3c43.333 0 80.833 13.167 112.5 39.5z" />
    <glyph glyph-name="ugrave" unicode="&#xf9;" horiz-adv-x="549" 
d="M112 1.5c-14 7.66699 -25.667 17.833 -35 30.5s-14 25.667 -14 39c0 3.33301 0.666992 7.66602 2 12.999l76 302c0.666992 2 1 4.66699 1 8c0 6 -1.83301 10.667 -5.5 14s-8.5 5 -14.5 5c-23.333 0 -53.666 -12.333 -90.999 -37c27.333 30.667 54.666 55 81.999 73
s51.666 27 72.999 27c14 0 25.333 -4 34 -12s13 -19 13 -33c0 -5.33301 -1 -11.666 -3 -18.999l-84 -336c32 4 67.667 18.833 107 44.5s76.333 57.5 111 95.5l56 222c6.66699 25.333 23.667 38 51 38c22 0 33 -8.33301 33 -25c0 -2 -0.666992 -6.33301 -2 -13l-89 -354
c-1.33301 -4 -2 -7.66699 -2 -11c0 -10.667 7.33301 -16 22 -16c23.333 0 53.666 12.333 90.999 37c-27.333 -30.667 -54.666 -55 -81.999 -73s-51.666 -27 -72.999 -27c-14.667 0 -26 4.16699 -34 12.5s-12 19.5 -12 33.5c0 7.33301 0.666992 13.333 2 18l15 62
c-37.333 -39.333 -73.333 -70.833 -108 -94.5s-62 -35.5 -82 -35.5c-11.333 0 -24 3.83301 -38 11.5zM227 687.999h96l51 -158h-40z" />
    <glyph glyph-name="uacute" unicode="&#xfa;" horiz-adv-x="549" 
d="M112 1.5c-14 7.66699 -25.667 17.833 -35 30.5s-14 25.667 -14 39c0 3.33301 0.666992 7.66602 2 12.999l76 302c0.666992 2 1 4.66699 1 8c0 6 -1.83301 10.667 -5.5 14s-8.5 5 -14.5 5c-23.333 0 -53.666 -12.333 -90.999 -37c27.333 30.667 54.666 55 81.999 73
s51.666 27 72.999 27c14 0 25.333 -4 34 -12s13 -19 13 -33c0 -5.33301 -1 -11.666 -3 -18.999l-84 -336c32 4 67.667 18.833 107 44.5s76.333 57.5 111 95.5l56 222c6.66699 25.333 23.667 38 51 38c22 0 33 -8.33301 33 -25c0 -2 -0.666992 -6.33301 -2 -13l-89 -354
c-1.33301 -4 -2 -7.66699 -2 -11c0 -10.667 7.33301 -16 22 -16c23.333 0 53.666 12.333 90.999 37c-27.333 -30.667 -54.666 -55 -81.999 -73s-51.666 -27 -72.999 -27c-14.667 0 -26 4.16699 -34 12.5s-12 19.5 -12 33.5c0 7.33301 0.666992 13.333 2 18l15 62
c-37.333 -39.333 -73.333 -70.833 -108 -94.5s-62 -35.5 -82 -35.5c-11.333 0 -24 3.83301 -38 11.5zM345 687.999h96l-107 -158h-40z" />
    <glyph glyph-name="ucircumflex" unicode="&#xfb;" horiz-adv-x="549" 
d="M112 1.5c-14 7.66699 -25.667 17.833 -35 30.5s-14 25.667 -14 39c0 3.33301 0.666992 7.66602 2 12.999l76 302c0.666992 2 1 4.66699 1 8c0 6 -1.83301 10.667 -5.5 14s-8.5 5 -14.5 5c-23.333 0 -53.666 -12.333 -90.999 -37c27.333 30.667 54.666 55 81.999 73
s51.666 27 72.999 27c14 0 25.333 -4 34 -12s13 -19 13 -33c0 -5.33301 -1 -11.666 -3 -18.999l-84 -336c32 4 67.667 18.833 107 44.5s76.333 57.5 111 95.5l56 222c6.66699 25.333 23.667 38 51 38c22 0 33 -8.33301 33 -25c0 -2 -0.666992 -6.33301 -2 -13l-89 -354
c-1.33301 -4 -2 -7.66699 -2 -11c0 -10.667 7.33301 -16 22 -16c23.333 0 53.666 12.333 90.999 37c-27.333 -30.667 -54.666 -55 -81.999 -73s-51.666 -27 -72.999 -27c-14.667 0 -26 4.16699 -34 12.5s-12 19.5 -12 33.5c0 7.33301 0.666992 13.333 2 18l15 62
c-37.333 -39.333 -73.333 -70.833 -108 -94.5s-62 -35.5 -82 -35.5c-11.333 0 -24 3.83301 -38 11.5zM345 667.999h80l64 -148l-119 88l-161 -88z" />
    <glyph glyph-name="udieresis" unicode="&#xfc;" horiz-adv-x="549" 
d="M112 1.5c-14 7.66699 -25.667 17.833 -35 30.5s-14 25.667 -14 39c0 3.33301 0.666992 7.66602 2 12.999l76 302c0.666992 2 1 4.66699 1 8c0 6 -1.83301 10.667 -5.5 14s-8.5 5 -14.5 5c-23.333 0 -53.666 -12.333 -90.999 -37c27.333 30.667 54.666 55 81.999 73
s51.666 27 72.999 27c14 0 25.333 -4 34 -12s13 -19 13 -33c0 -5.33301 -1 -11.666 -3 -18.999l-84 -336c32 4 67.667 18.833 107 44.5s76.333 57.5 111 95.5l56 222c6.66699 25.333 23.667 38 51 38c22 0 33 -8.33301 33 -25c0 -2 -0.666992 -6.33301 -2 -13l-89 -354
c-1.33301 -4 -2 -7.66699 -2 -11c0 -10.667 7.33301 -16 22 -16c23.333 0 53.666 12.333 90.999 37c-27.333 -30.667 -54.666 -55 -81.999 -73s-51.666 -27 -72.999 -27c-14.667 0 -26 4.16699 -34 12.5s-12 19.5 -12 33.5c0 7.33301 0.666992 13.333 2 18l15 62
c-37.333 -39.333 -73.333 -70.833 -108 -94.5s-62 -35.5 -82 -35.5c-11.333 0 -24 3.83301 -38 11.5zM233.5 529.999c-7.66699 6.66699 -11.499 15.666 -11.499 26.999c0 18.667 6.66699 34.834 20 48.501s29.666 20.5 48.999 20.5c12.667 0 22.667 -3.33301 30 -10
s11 -16 11 -28c0 -19.333 -6.5 -35.5 -19.5 -48.5s-28.833 -19.5 -47.5 -19.5c-13.333 0 -23.833 3.33301 -31.5 10zM399.501 529.998c-7.66699 6.66699 -11.499 15.666 -11.499 26.999c0 18.667 6.66699 34.834 20 48.501s29.666 20.5 48.999 20.5
c12.667 0 22.667 -3.33301 30 -10s11 -16 11 -28c0 -19.333 -6.5 -35.5 -19.5 -48.5s-28.833 -19.5 -47.5 -19.5c-13.333 0 -23.833 3.33301 -31.5 10z" />
    <glyph glyph-name="yacute" unicode="&#xfd;" horiz-adv-x="553" 
d="M367 -102c-0.666992 -5.33301 -2.3291 -11.001 -4.99609 -17.001c42.667 -18 83 -42.333 121 -73c-17.333 12.667 -61.666 24.667 -132.999 36c-24.667 -65.333 -59.167 -115.166 -103.5 -149.499s-96.833 -51.5 -157.5 -51.5c-36.667 0 -67.834 6 -93.501 18
s-47.834 31.333 -66.501 58c-7.33301 18 -11 36.667 -11 56c0 28 10.167 53 30.5 75s49.166 39.167 86.499 51.5s80.333 18.5 129 18.5c41.333 0 82.333 -4.66699 123 -14l55 220c-37.333 -38.667 -72.833 -69.334 -106.5 -92.001s-60.834 -34 -81.501 -34
c-11.333 0 -24 3.83301 -38 11.5s-25.667 17.834 -35 30.501s-14 25.667 -14 39c0 3.33301 0.666992 7.66602 2 12.999l72 292c0.666992 2 1 4.66699 1 8c0 6 -1.83301 10.667 -5.5 14s-8.5 5 -14.5 5c-23.333 0 -53.666 -12.333 -90.999 -37
c27.333 30.667 54.666 55 81.999 73s51.666 27 72.999 27c14 0 25.333 -4 34 -12s13 -19 13 -33c0 -5.33301 -1 -11.666 -3 -18.999l-81 -326c32.667 4 68.5 18.333 107.5 43s75.5 55.667 109.5 93l54 216c6.66699 25.333 23.667 38 51 38c22 0 33 -8.33301 33 -25
c0 -2 -0.666992 -6.33301 -2 -13zM193.005 -254.001c33.333 24.667 58.998 60 76.998 106c-25.333 1.33301 -44.666 2 -57.999 2c-68.667 0 -121.167 -8.66699 -157.5 -26s-54.5 -40.333 -54.5 -69c0 -6 0.5 -11.667 1.5 -17s2.16699 -9.33301 3.5 -12
c12.667 -14 36.334 -21 71.001 -21c44.667 0 83.667 12.333 117 37zM347.003 687.999h96l-107 -158h-40z" />
    </font>
</defs>
</svg>
